<?xml version="1.0" encoding="UTF-8" standalone="no"?>
<svg width="98px" height="19px" viewBox="0 0 98 19" version="1.1" xmlns="http://www.w3.org/2000/svg" xmlns:xlink="http://www.w3.org/1999/xlink" xmlns:sketch="http://www.bohemiancoding.com/sketch/ns">
    <!-- Generator: Sketch 3.1.1 (8761) - http://www.bohemiancoding.com/sketch -->
    <title>chain + linxz</title>
    <desc>Created with Sketch.</desc>
    <defs></defs>
    <g id="Page-1" stroke="none" stroke-width="1" fill="none" fill-rule="evenodd" sketch:type="MSPage">
        <g id="bookmark-list" sketch:type="MSArtboardGroup" transform="translate(-33.000000, -26.000000)">
            <g id="chain-+-linxz" sketch:type="MSLayerGroup" transform="translate(34.000000, 26.000000)">
                <g id="chain" fill="#D0011B" sketch:type="MSShapeGroup">
                    <path d="M26.475,10.80625 L26.475,0.0339285714 L-0.025,0.0339285714 L-0.025,18.9830357 L11.6833333,18.9830357 L11.6833333,13.1133929 L5.63333333,13.1133929 L5.63333333,5.9375 L21.5,5.9375 L21.5,10.80625 L26.475,10.80625 L26.475,10.80625 Z M28.9,0.0339285714 L28.9,6.06473214 L34.325,6.06473214 L34.325,13.2745536 L19.0833333,13.2745536 L19.0833333,8.57544643 L14.1083333,8.57544643 L14.1083333,18.9830357 L39.975,18.9830357 L39.975,0.0339285714 L28.9,0.0339285714 L28.9,0.0339285714 Z" id="Shape"></path>
                </g>
                <path d="M49.8499255,15.4375 C49.8499255,16.0532438 49.9564207,16.4930542 50.1694143,16.7569444 C50.3824079,17.0208347 50.6841443,17.1527778 51.0746326,17.1527778 C51.3053757,17.1527778 51.5538645,17.1351854 51.8201065,17.1 C52.0863485,17.0648146 52.388085,16.9856488 52.7253248,16.8625 L52.9649414,18.525 C52.68095,18.6657414 52.2860302,18.7800922 51.7801704,18.8680556 C51.2743106,18.956019 50.8350179,19 50.462279,19 C49.663553,19 49.0068325,18.7756967 48.492098,18.3270833 C47.9773634,17.87847 47.72,17.117598 47.72,16.0444444 L47.72,0.211111111 L49.8499255,0.211111111 L49.8499255,15.4375 Z M55.7072205,5.48888889 L57.8371459,5.48888889 L57.8371459,18.6833333 L55.7072205,18.6833333 L55.7072205,5.48888889 Z M55.2546113,1.47777778 C55.2546113,1.07314613 55.3921676,0.725695896 55.6672844,0.435416667 C55.9424011,0.145137438 56.2929478,0 56.7189351,0 C57.1449223,0 57.5087809,0.145137438 57.8105219,0.435416667 C58.1122628,0.725695896 58.263131,1.07314613 58.263131,1.47777778 C58.263131,1.88240943 58.1122628,2.21666535 57.8105219,2.48055556 C57.5087809,2.74444576 57.1449223,2.87638889 56.7189351,2.87638889 C56.2929478,2.87638889 55.9424011,2.74444576 55.6672844,2.48055556 C55.3921676,2.21666535 55.2546113,1.88240943 55.2546113,1.47777778 L55.2546113,1.47777778 Z M70.0043451,18.6833333 L70.0043451,11.1625 C70.0043451,9.79027092 69.8046665,8.75671644 69.4053035,8.06180556 C69.0059405,7.36689467 68.2737859,7.01944444 67.2088179,7.01944444 C66.2680961,7.01944444 65.4915685,7.27013638 64.8792119,7.77152778 C64.2668553,8.27291917 63.8364372,8.90184807 63.5879446,9.65833333 L63.5879446,18.6833333 L61.4580191,18.6833333 L61.4580191,5.48888889 L62.948967,5.48888889 L63.348328,7.09861111 L63.4548243,7.09861111 C63.8808115,6.53564533 64.4532232,6.0738444 65.1720767,5.71319444 C65.8909301,5.35254449 66.7473291,5.17222222 67.7412993,5.17222222 C68.4690274,5.17222222 69.1079987,5.2557862 69.6582322,5.42291667 C70.2084657,5.59004713 70.6655076,5.88472011 71.0293717,6.30694444 C71.3932358,6.72916878 71.6683484,7.29652422 71.8547178,8.00902778 C72.0410872,8.72153134 72.1342705,9.62314269 72.1342705,10.7138889 L72.1342705,18.6833333 L70.0043451,18.6833333 Z M78.577295,11.9277778 L74.1044515,5.48888889 L76.7136102,5.48888889 L79.2428967,9.13055556 L79.9883706,10.6347222 L80.7604686,9.13055556 L83.3430032,5.48888889 L85.7391693,5.48888889 L81.2397018,11.8222222 L86.00541,18.6833333 L83.4761235,18.6833333 L80.6539723,14.6722222 L79.8552503,13.0888889 L79.0299041,14.6722222 L76.1545048,18.6833333 L73.7849627,18.6833333 L78.577295,11.9277778 Z M86.9372524,16.8361111 L93.0874121,8.44444444 L94.205623,7.33611111 L86.9372524,7.33611111 L86.9372524,5.48888889 L96.4154207,5.48888889 L96.4154207,7.33611111 L90.2120127,15.8069444 L89.1204259,16.8361111 L96.4154207,16.8361111 L96.4154207,18.6833333 L86.9372524,18.6833333 L86.9372524,16.8361111 Z" id="linxz" fill="#000000" sketch:type="MSShapeGroup"></path>
            </g>
        </g>
    </g>
</svg>