<?xml version="1.0" encoding="utf-8"?>
<!-- Generator: Adobe Illustrator 18.1.1, SVG Export Plug-In . SVG Version: 6.00 Build 0)  -->
<svg version="1.1" id="Layer_1" xmlns="http://www.w3.org/2000/svg" xmlns:xlink="http://www.w3.org/1999/xlink" x="0px" y="0px"
	 width="320px" height="175px" viewBox="0 0 320 175" enable-background="new 0 0 320 175" xml:space="preserve">
<g>
	<path fill="#FFFFFF" d="M136,34.3c6.3-3.6,12.5-7.2,18.8-10.8c3.9-2.2,7.8-4.4,11.6-6.7c1.3-0.8,2.3-0.8,3.7,0
		c17.9,10.4,35.7,20.7,53.6,31.1c2.6,1.5,5.2,3.1,7.9,4.5c0.9,0.5,1.4,1,1.4,2.2c0,10.2,0,20.4,0,30.6c0,1.1-0.4,1.7-1.3,2.2
		c-9.9,5.7-19.8,11.3-29.7,17.1c-1.2,0.7-2,0.3-2.9-0.3c-9.5-5.5-19-11-28.5-16.6c-1.3-0.7-2.2-0.8-3.5-0.1
		c-9.6,5.5-19.2,11-28.7,16.5c-1.4,0.8-2.4,0.9-3.9,0.1C114.2,92.3,94,80.6,73.7,68.9c-1.5-0.8-2-1.7-2-3.4c0.1-9.7,0.1-19.4,0-29.1
		c0-1.4,0.3-2.3,1.7-3.1c9.7-5.5,19.5-11.1,29.1-16.7c1.2-0.7,2-0.5,3.1,0.2c9.3,5.5,18.7,10.9,28.1,16.3
		C134.5,33.5,135.2,33.9,136,34.3z M79.2,38.5c8.1,4.7,15.9,9.2,23.6,13.7c1.1,0.6,1.8,0.4,2.8-0.2c7.2-4.2,14.5-8.4,21.7-12.6
		c0.5-0.3,0.9-0.6,1.3-0.9c-0.2-0.3-0.3-0.4-0.4-0.5c-7.7-4.4-15.4-8.8-23.1-13.3c-1.1-0.6-1.7-0.2-2.6,0.3
		c-5.6,3.2-11.3,6.5-16.9,9.7C83.6,35.9,81.5,37.1,79.2,38.5z M176.1,57.2c0.2,0.3,0.3,0.5,0.4,0.5c7.7,4.5,15.5,9,23.2,13.5
		c0.5,0.3,1.5,0.2,2.1-0.1c7.5-4.3,14.9-8.6,22.3-12.9c0.4-0.2,0.7-0.6,1.1-1c-8-4.6-15.8-9.1-23.7-13.5c-0.5-0.3-1.4-0.2-1.9,0.1
		C191.8,48.2,184,52.7,176.1,57.2z M193.1,38.7c-8.2-4.7-16-9.1-23.8-13.7c-1.1-0.6-1.7-0.2-2.5,0.3c-7.4,4.2-14.8,8.5-22.2,12.7
		c-0.3,0.2-0.6,0.4-1.1,0.8c8.2,4.7,16.1,9.4,24,13.9c0.5,0.3,1.4,0.1,1.9-0.2c3.1-1.7,6.1-3.5,9.2-5.3
		C183.3,44.3,188,41.6,193.1,38.7z M111.5,57.3c0.8,0.5,1.3,0.8,1.8,1.1c7.2,4.2,14.4,8.3,21.5,12.5c1.2,0.7,2,0.6,3.1-0.1
		c6.3-3.7,12.6-7.3,18.9-11c1.4-0.8,2.7-1.6,4.3-2.6c-8.5-4.9-16.6-9.5-24.8-14.2C128.1,47.8,120,52.5,111.5,57.3z"/>
	<path fill="#FFFFFF" d="M149.3,156c1,0.1,2,0.2,3.2,0.3c0,1.5,0,3,0,4.6c-4,0-8,0-12.2,0c0-1.4,0-2.9,0-4.5
		c0.8-0.1,1.7-0.2,2.7-0.4c0-3.8,0.1-7.6-0.1-11.4c-0.1-1.4-1.6-2.3-3.2-1.9c-1.6,0.4-3.2,1.3-4.7,2.1c-0.3,0.2-0.6,0.8-0.6,1.3
		c-0.1,3.2,0,6.5,0,9.9c1.1,0.1,2,0.2,3,0.3c0,1.5,0,3,0,4.6c-3.9,0-7.8,0-11.8,0c0-1.4,0-2.9,0-4.6c0.8-0.1,1.7-0.2,2.8-0.3
		c0-3.8,0.1-7.5,0-11.2c0-1.4-1.2-2.1-2.6-2.2c-2.1,0-3.9,0.9-5.4,2.3c-0.2,0.2-0.3,0.6-0.3,1c0,3.3,0,6.6,0,10
		c1.1,0.1,2,0.3,2.9,0.4c0,1.5,0,3,0,4.6c-4.1,0-8.1,0-12.2,0c0-1.5,0-3,0-4.6c1-0.1,2-0.2,3.1-0.3c0-4.4,0-8.8,0-13.2
		c-1.1-0.1-2.1-0.2-3.2-0.3c0-1.6,0-3.1,0-4.7c3,0,5.9,0,8.9,0c0.1,1,0.1,1.9,0.2,3.1c2.2-1.8,4.3-3.5,7.1-3.7
		c2.9-0.2,5.2,0.8,6.9,3.5c0.5-0.4,1-0.8,1.5-1.1c1.8-1.4,3.8-2.4,6.1-2.4c4.8-0.1,7.6,2.6,7.7,7.4c0.1,3.6,0,7.2,0.1,10.8
		C149.1,155.7,149.2,155.8,149.3,156z"/>
	<path fill="#FFFFFF" d="M162.6,159.5c0,2.5,0,4.6,0,6.9c1.2,0.1,2.3,0.2,3.6,0.3c0,1.5,0,3,0,4.6c-4.2,0-8.5,0-12.8,0
		c0-1.5,0-2.9,0-4.6c1-0.1,2-0.2,3.1-0.3c0-7.8,0-15.5,0-23.6c-1-0.1-2-0.2-3.2-0.3c0-1.6,0-3.1,0-4.7c2.9,0,5.8,0,8.8,0
		c0.1,0.6,0.3,1.2,0.5,2.1c2.6-2.2,5.5-3.2,8.7-2.5c4.6,1,7.5,4.4,8.4,9.6c1.1,6.8-3,13.1-9.2,14.3
		C167.7,161.9,165.2,161,162.6,159.5z M162.6,149.7c0,1.2-0.1,2.3,0,3.5c0,0.6,0.1,1.4,0.5,1.7c2.4,2.4,7.3,1.9,9.3-0.7
		c1.9-2.6,1.9-7,0-9.5c-1.5-1.9-4.1-2.7-6.6-1.8c-2.8,0.9-3.2,1.6-3.2,4.7C162.6,148.2,162.6,148.9,162.6,149.7z"/>
	<path fill="#FFFFFF" d="M73.1,132.7c-4.7-3.1-11.7-1.7-15.3,2.8c-3.9,5-3.4,13,1.1,17.3c4.9,4.7,12,4.2,18.5-1.2
		c1.4,1.3,2.8,2.6,4.2,4c-5.6,5.7-12.1,7.2-19.4,5.6c-6.4-1.5-10.9-5.4-12.6-11.8c-2-7.4-0.7-14.2,5.2-19.4c5.9-5.2,12.9-5.8,20.1-3
		c1.8,0.7,3.5,2.3,4.8,3.9c0.8,1,1,2.7,0.9,4c-0.2,2.4-2.1,3.6-4.4,3.3c-2.3-0.3-3.6-2.1-3.3-4.5C72.9,133.3,73,133,73.1,132.7z"/>
	<path fill="#FFFFFF" d="M255.5,151.4c-5.4,0-10.9,0-16.4,0c0.5,2.9,2.4,4.6,5.6,5c2.6,0.3,5.2-0.1,7.6-1.1c0.8-0.3,1.6-0.7,2.6-1.1
		c-0.1,1.7-0.2,3.2-0.5,4.6c-0.1,0.4-0.7,0.9-1.1,1.1c-4.6,2-9.4,2.3-14.1,0.2c-5.5-2.4-7.9-8.7-5.9-14.9c1.8-5.7,7.4-8.9,13.5-7.9
		C253.5,138.6,257,144.2,255.5,151.4z M249.8,147.2c-0.2-3.3-2.2-5.1-5.3-5.1c-3.1,0-5.3,2.1-5.4,5.1
		C242.7,147.2,246.2,147.2,249.8,147.2z"/>
	<path fill="#FFFFFF" d="M207.2,149.4c0,7-5.4,12.1-12.5,12.1c-7.1,0-12.3-5.1-12.4-12c0-7,5.3-12.2,12.4-12.2
		C202,137.3,207.2,142.4,207.2,149.4z M201.1,149.4c0-4.1-2.7-7.1-6.3-7.1c-3.8,0-6.5,2.9-6.5,7.2c0,4.1,2.6,7.1,6.3,7.1
		C198.4,156.6,201.1,153.6,201.1,149.4z"/>
	<path fill="#FFFFFF" d="M95.8,137.3c7.3,0,12.5,5,12.5,12.1c0,6.9-5.4,12.2-12.5,12.2c-7.2,0-12.3-5-12.3-12
		C83.5,142.4,88.6,137.3,95.8,137.3z M89.5,149.6c0.1,0.6,0.1,1.4,0.3,2.1c0.8,2.9,3.1,4.7,5.9,4.8c2.9,0,5.2-1.7,6.1-4.6
		c0.7-2.2,0.5-4.3-0.5-6.3c-1.6-3.2-5.6-4.4-8.7-2.5C90.3,144.6,89.6,146.8,89.5,149.6z"/>
	<path fill="#FFFFFF" d="M223.3,142.2c-2-0.7-3.8-0.9-5.5,0c-0.6,0.3-1.2,1.1-1.3,1.8c0,0.5,0.6,1.3,1.2,1.6
		c1.1,0.6,2.3,0.9,3.4,1.3c1.7,0.6,3.5,1,5.1,1.7c5.6,2.3,4.4,8.6,1.1,10.9c-3.6,2.5-7.6,2.6-11.6,1.5c-1.3-0.4-2.6-0.9-3.8-1.6
		c-1.3-0.8-2-2-2.1-3.6c0-1.8,1.1-3.1,2.8-3.3c1.8-0.2,3.4,0.7,3.5,2.5c0.1,1.6,0.9,2,2.2,2c1.6,0,3.2,0,4.7-0.4
		c0.6-0.1,1.4-1.1,1.4-1.7c0-0.6-0.6-1.5-1.2-1.8c-1.2-0.6-2.6-0.9-3.9-1.4c-1.6-0.6-3.3-1.1-4.9-1.7c-5.1-2.1-4.2-8-1.2-10.5
		c3.6-3,11.3-3,14.7,0.2c0.8,0.8,1.3,2.2,1.5,3.4c0.2,1.7-1,2.8-2.5,2.9c-1.9,0.2-3.1-0.7-3.4-2.5
		C223.3,143.1,223.3,142.7,223.3,142.2z"/>
</g>
</svg>
