<?xml version="1.0" encoding="utf-8"?>
<!-- Generator: Adobe Illustrator 18.1.1, SVG Export Plug-In . SVG Version: 6.00 Build 0)  -->
<svg version="1.1" id="Layer_1" xmlns="http://www.w3.org/2000/svg" xmlns:xlink="http://www.w3.org/1999/xlink" x="0px" y="0px"
	 width="320px" height="175px" viewBox="0 0 320 175" enable-background="new 0 0 320 175" xml:space="preserve">
<g>
	<g>
		<path fill-rule="evenodd" clip-rule="evenodd" fill="#FFFFFF" d="M82.7,99.6c30.9-19.9,66-5.6,83.4,4
			C141.9,94.1,106.5,91.8,82.7,99.6z"/>
		<path fill-rule="evenodd" clip-rule="evenodd" fill="#FFFFFF" d="M137,8.7c14.9,0,27.6,8.8,33.4,21.3h-11.6
			c-5.1-6.3-13-10.4-21.9-10.4c-8.7,0-16.5,3.9-21.6,10.1c0.3-0.2,0.6-0.4,0.9-0.6c12.1-8.7,28.3,0.9,28.3,0.9s-15.4-4.4-25.8,2.8
			c-10.4,7.3-8.7,21.9-8.7,21.9s-0.1-0.2-0.2-0.5c0,0.2,0.1,0.3,0.1,0.5c-2.5-1.8-5.5-3-8.8-3.4c-0.4-2.1-0.6-4.3-0.6-6.5
			C100.4,24.8,116.8,8.7,137,8.7L137,8.7z M90.2,91.2v-3.1c9.7-7.1,27.4-16.4,48.8-9.7c32.5,10.2,53.2,24,78.3,17.8
			c25.1-6.2,27.3-19.9,27.3-19.9s-4.4,19.4-29.2,23.6c-24.7,4.3-47.5-0.5-76.5-11.3C119.4,81.2,100.5,86.9,90.2,91.2L90.2,91.2z
			 M90.2,84.9c1.8-1.2,3.6-2.4,5.3-3.2c-0.8-0.5-1.6-1.1-2.3-1.8c-1.3-1.3-2.3-2.7-3-4.1v6.7l0.2,0.2c0.3,0.3,0.7,0.6,1,0.9
			c-0.4-0.2-0.8-0.4-1.2-0.6V84.9L90.2,84.9z M90.2,53.6V42.2c2.4-0.8,4.9-1.3,7.5-1.4c-0.1,1.3-0.2,2.6-0.2,4
			c0,2.3,0.2,4.5,0.6,6.6C95.2,51.5,92.6,52.3,90.2,53.6z M90.2,42.2v11.5c-5.1,2.9-8.5,8.4-8.5,14.6c0,6.2,3.4,11.7,8.5,14.6v2
			c-2.1,1.4-4.1,2.9-5.7,4.1C77.2,84.4,72.3,76.2,72.3,67C72.3,55.5,79.8,45.7,90.2,42.2L90.2,42.2z M90.2,75.8
			c-3.3-6.3-2.1-13.5-2.1-13.5s-5.5,12.6,2.1,20.2V75.8L90.2,75.8z M90.2,88.1c-5,3.7-7.9,6.8-7.9,6.8c0,0.1,2.9-1.6,7.9-3.7V88.1z"
			/>
		<path fill-rule="evenodd" clip-rule="evenodd" fill="#FFFFFF" d="M172,83.1c0,0,15.5,7.9,30.1,6.6c14.6-1.3,19-6.5,19-6.5
			s-5.4,9.9-19.4,10.4C187.7,94.3,172,83.5,172,83.1z"/>
		<rect x="160.1" y="33" fill-rule="evenodd" clip-rule="evenodd" fill="#FFFFFF" width="13" height="13"/>
		<rect x="211.8" y="69.1" fill-rule="evenodd" clip-rule="evenodd" fill="#FFFFFF" width="10.1" height="10.1"/>
		<rect x="175.8" y="21" fill-rule="evenodd" clip-rule="evenodd" fill="#FFFFFF" width="17.4" height="17.4"/>
		<rect x="226.3" y="51.1" fill-rule="evenodd" clip-rule="evenodd" fill="#FFFFFF" width="17.4" height="17.4"/>
		<rect x="194.8" y="39.7" fill-rule="evenodd" clip-rule="evenodd" fill="#FFFFFF" width="9.7" height="9.7"/>
		<rect x="201.3" y="58.8" fill-rule="evenodd" clip-rule="evenodd" fill="#FFFFFF" width="9.7" height="9.7"/>
		<rect x="180.9" y="59.8" fill-rule="evenodd" clip-rule="evenodd" fill="#FFFFFF" width="9.7" height="9.7"/>
		<rect x="214.9" y="40.1" fill-rule="evenodd" clip-rule="evenodd" fill="#FFFFFF" width="9.7" height="9.7"/>
	</g>
	<g>
		<path fill="#FFFFFF" d="M71.2,144.1c0,2.4-0.4,4.6-1.2,6.7c-0.8,2-1.9,3.8-3.4,5.2c-1.5,1.5-3.2,2.6-5.3,3.4
			c-2.1,0.8-4.3,1.2-6.8,1.2H41.8v-33h12.6c2.5,0,4.8,0.4,6.8,1.2c2.1,0.8,3.8,1.9,5.3,3.4c1.5,1.5,2.6,3.2,3.4,5.2
			C70.8,139.5,71.2,141.7,71.2,144.1z M64.9,144.1c0-1.8-0.2-3.4-0.7-4.9c-0.5-1.4-1.2-2.7-2.1-3.7c-0.9-1-2-1.8-3.3-2.3
			c-1.3-0.5-2.7-0.8-4.4-0.8H48v23.2h6.4c1.6,0,3.1-0.3,4.4-0.8c1.3-0.5,2.4-1.3,3.3-2.3c0.9-1,1.6-2.2,2.1-3.7
			C64.6,147.5,64.9,145.9,64.9,144.1z"/>
		<path fill="#FFFFFF" d="M80.2,130.3c0,0.5-0.1,0.9-0.3,1.4c-0.2,0.4-0.5,0.8-0.8,1.1c-0.3,0.3-0.7,0.6-1.2,0.8
			c-0.4,0.2-0.9,0.3-1.4,0.3c-0.5,0-0.9-0.1-1.4-0.3c-0.4-0.2-0.8-0.4-1.1-0.8c-0.3-0.3-0.6-0.7-0.8-1.1c-0.2-0.4-0.3-0.9-0.3-1.4
			c0-0.5,0.1-1,0.3-1.4c0.2-0.4,0.4-0.8,0.8-1.1c0.3-0.3,0.7-0.6,1.1-0.8c0.4-0.2,0.9-0.3,1.4-0.3c0.5,0,1,0.1,1.4,0.3
			c0.4,0.2,0.8,0.4,1.2,0.8c0.3,0.3,0.6,0.7,0.8,1.1C80.1,129.4,80.2,129.8,80.2,130.3z M79.4,137.2v23.4h-5.6v-23.4H79.4z"/>
		<path fill="#FFFFFF" d="M91.6,136.8c1,0,1.9,0.1,2.8,0.3c0.9,0.2,1.7,0.5,2.4,0.9h6.7v2.1c0,0.4-0.1,0.6-0.3,0.8
			c-0.2,0.2-0.5,0.3-0.9,0.4l-2.1,0.4c0.2,0.4,0.3,0.8,0.4,1.3c0.1,0.4,0.1,0.9,0.1,1.4c0,1.2-0.2,2.2-0.7,3.1
			c-0.5,0.9-1.1,1.7-1.9,2.4c-0.8,0.7-1.8,1.2-2.9,1.5c-1.1,0.4-2.3,0.5-3.6,0.5c-0.9,0-1.7-0.1-2.6-0.3c-0.7,0.4-1.1,0.9-1.1,1.5
			c0,0.5,0.2,0.8,0.7,1c0.4,0.2,1,0.4,1.7,0.5c0.7,0.1,1.5,0.1,2.4,0.1c0.9,0,1.8,0,2.8,0.1c0.9,0.1,1.9,0.2,2.8,0.4
			c0.9,0.2,1.7,0.5,2.4,0.9c0.7,0.4,1.3,1,1.7,1.7c0.4,0.7,0.7,1.6,0.7,2.7c0,1-0.3,2-0.8,3c-0.5,1-1.2,1.8-2.2,2.6
			c-1,0.8-2.2,1.4-3.6,1.8c-1.4,0.5-3,0.7-4.8,0.7c-1.8,0-3.3-0.2-4.6-0.5c-1.3-0.3-2.4-0.8-3.3-1.4c-0.9-0.6-1.5-1.2-1.9-2
			c-0.4-0.7-0.6-1.5-0.6-2.3c0-1.1,0.3-2,1-2.8c0.7-0.7,1.6-1.3,2.8-1.8c-0.6-0.3-1-0.7-1.4-1.3c-0.4-0.5-0.5-1.2-0.5-2.1
			c0-0.3,0.1-0.7,0.2-1.1c0.1-0.4,0.3-0.7,0.6-1.1c0.3-0.4,0.6-0.7,0.9-1c0.4-0.3,0.8-0.6,1.3-0.9c-1.2-0.6-2.1-1.5-2.8-2.6
			c-0.7-1.1-1-2.3-1-3.7c0-1.2,0.2-2.2,0.7-3.1c0.5-0.9,1.1-1.7,1.9-2.4c0.8-0.7,1.8-1.2,2.9-1.5C89,136.9,90.2,136.8,91.6,136.8z
			 M97.8,161.6c0-0.5-0.1-0.8-0.4-1.1c-0.3-0.3-0.6-0.5-1.1-0.7c-0.5-0.2-1-0.3-1.7-0.4c-0.6-0.1-1.3-0.1-2-0.1c-0.7,0-1.4,0-2.2,0
			s-1.5-0.1-2.2-0.3c-0.6,0.4-1.2,0.8-1.5,1.2c-0.4,0.5-0.6,1-0.6,1.7c0,0.4,0.1,0.8,0.3,1.2c0.2,0.4,0.5,0.7,1,0.9
			c0.4,0.3,1,0.5,1.7,0.6c0.7,0.1,1.6,0.2,2.6,0.2c1.1,0,2-0.1,2.7-0.2c0.8-0.2,1.4-0.4,1.9-0.7c0.5-0.3,0.9-0.6,1.1-1
			C97.7,162.5,97.8,162.1,97.8,161.6z M91.6,148.3c0.7,0,1.3-0.1,1.8-0.3c0.5-0.2,0.9-0.5,1.3-0.8c0.3-0.3,0.6-0.7,0.8-1.2
			c0.2-0.5,0.3-1,0.3-1.6c0-1.2-0.3-2.1-1-2.8c-0.7-0.7-1.7-1-3.1-1c-1.4,0-2.4,0.3-3.1,1c-0.7,0.7-1,1.6-1,2.8
			c0,0.5,0.1,1.1,0.3,1.5c0.2,0.5,0.4,0.9,0.8,1.2c0.3,0.3,0.8,0.6,1.3,0.8C90.3,148.2,90.9,148.3,91.6,148.3z"/>
		<path fill="#FFFFFF" d="M111.7,130.3c0,0.5-0.1,0.9-0.3,1.4c-0.2,0.4-0.5,0.8-0.8,1.1c-0.3,0.3-0.7,0.6-1.2,0.8
			c-0.4,0.2-0.9,0.3-1.4,0.3c-0.5,0-0.9-0.1-1.4-0.3c-0.4-0.2-0.8-0.4-1.1-0.8c-0.3-0.3-0.6-0.7-0.8-1.1c-0.2-0.4-0.3-0.9-0.3-1.4
			c0-0.5,0.1-1,0.3-1.4c0.2-0.4,0.4-0.8,0.8-1.1c0.3-0.3,0.7-0.6,1.1-0.8c0.4-0.2,0.9-0.3,1.4-0.3c0.5,0,1,0.1,1.4,0.3
			c0.4,0.2,0.8,0.4,1.2,0.8c0.3,0.3,0.6,0.7,0.8,1.1C111.6,129.4,111.7,129.8,111.7,130.3z M110.8,137.2v23.4h-5.6v-23.4H110.8z"/>
		<path fill="#FFFFFF" d="M122.6,161c-2,0-3.6-0.6-4.7-1.7c-1.1-1.1-1.6-2.7-1.6-4.8v-13.1h-2.4c-0.3,0-0.6-0.1-0.8-0.3
			c-0.2-0.2-0.3-0.5-0.3-0.9V138l3.8-0.6l1.2-6.4c0.1-0.3,0.2-0.5,0.4-0.7c0.2-0.2,0.5-0.3,0.8-0.3h2.9v7.4h6.2v4h-6.2v12.7
			c0,0.7,0.2,1.3,0.5,1.7c0.4,0.4,0.9,0.6,1.5,0.6c0.3,0,0.6,0,0.9-0.1c0.2-0.1,0.4-0.2,0.6-0.3c0.2-0.1,0.3-0.2,0.5-0.3
			c0.1-0.1,0.3-0.1,0.4-0.1c0.2,0,0.3,0,0.4,0.1c0.1,0.1,0.2,0.2,0.3,0.4l1.7,2.7c-0.8,0.7-1.8,1.2-2.8,1.6
			C124.9,160.8,123.8,161,122.6,161z"/>
		<path fill="#FFFFFF" d="M148.7,160.6h-2.5c-0.5,0-1-0.1-1.3-0.2c-0.3-0.2-0.5-0.5-0.7-1l-0.5-1.7c-0.6,0.5-1.2,1-1.7,1.4
			c-0.6,0.4-1.2,0.7-1.8,1c-0.6,0.3-1.3,0.5-1.9,0.6c-0.7,0.1-1.4,0.2-2.3,0.2c-1,0-1.9-0.1-2.7-0.4c-0.8-0.3-1.6-0.7-2.2-1.2
			c-0.6-0.5-1.1-1.2-1.4-2c-0.3-0.8-0.5-1.7-0.5-2.8c0-0.9,0.2-1.8,0.7-2.6c0.5-0.9,1.2-1.6,2.3-2.3c1.1-0.7,2.5-1.3,4.3-1.7
			c1.8-0.5,4-0.7,6.7-0.7v-1.4c0-1.6-0.3-2.7-1-3.5c-0.7-0.8-1.6-1.1-2.9-1.1c-0.9,0-1.7,0.1-2.3,0.3c-0.6,0.2-1.1,0.5-1.6,0.7
			c-0.4,0.3-0.9,0.5-1.2,0.7c-0.4,0.2-0.8,0.3-1.3,0.3c-0.4,0-0.7-0.1-1-0.3c-0.3-0.2-0.5-0.4-0.7-0.7l-1-1.8
			c2.7-2.5,5.9-3.7,9.8-3.7c1.4,0,2.6,0.2,3.7,0.7c1.1,0.4,2,1.1,2.7,1.9c0.7,0.8,1.3,1.8,1.7,2.9c0.4,1.1,0.6,2.3,0.6,3.7V160.6z
			 M137.7,157.1c0.6,0,1.1-0.1,1.6-0.2c0.5-0.1,0.9-0.3,1.4-0.5c0.4-0.2,0.9-0.5,1.3-0.8c0.4-0.3,0.8-0.7,1.2-1.1v-3.9
			c-1.6,0-3,0.1-4.1,0.3c-1.1,0.2-2,0.5-2.7,0.8c-0.7,0.3-1.1,0.7-1.4,1.1c-0.3,0.4-0.4,0.9-0.4,1.4c0,1,0.3,1.7,0.9,2.1
			C136,156.9,136.8,157.1,137.7,157.1z"/>
		<path fill="#FFFFFF" d="M157.9,126.7v33.9h-5.6v-33.9H157.9z"/>
		<path fill="#FFFFFF" d="M194,144.1c0,2.4-0.4,4.7-1.2,6.7c-0.8,2.1-1.9,3.8-3.4,5.4c-1.5,1.5-3.2,2.7-5.3,3.5
			c-2.1,0.8-4.3,1.3-6.8,1.3s-4.8-0.4-6.8-1.3c-2.1-0.8-3.8-2-5.3-3.5c-1.5-1.5-2.6-3.3-3.4-5.4c-0.8-2.1-1.2-4.3-1.2-6.7
			c0-2.4,0.4-4.7,1.2-6.7c0.8-2.1,1.9-3.8,3.4-5.4c1.5-1.5,3.2-2.7,5.3-3.5c2.1-0.8,4.3-1.3,6.8-1.3s4.8,0.4,6.8,1.3
			c2.1,0.9,3.8,2,5.3,3.5c1.5,1.5,2.6,3.3,3.4,5.3C193.6,139.4,194,141.7,194,144.1z M187.7,144.1c0-1.8-0.2-3.4-0.7-4.9
			c-0.5-1.4-1.2-2.7-2.1-3.7c-0.9-1-2-1.8-3.3-2.3c-1.3-0.5-2.7-0.8-4.4-0.8s-3.1,0.3-4.4,0.8c-1.3,0.5-2.4,1.3-3.3,2.3
			c-0.9,1-1.6,2.2-2.1,3.7c-0.5,1.4-0.7,3.1-0.7,4.9c0,1.8,0.2,3.4,0.7,4.9c0.5,1.4,1.2,2.7,2.1,3.7c0.9,1,2,1.8,3.3,2.3
			c1.3,0.5,2.7,0.8,4.4,0.8s3.1-0.3,4.4-0.8c1.3-0.5,2.4-1.3,3.3-2.3c0.9-1,1.6-2.2,2.1-3.7C187.5,147.5,187.7,145.9,187.7,144.1z"
			/>
		<path fill="#FFFFFF" d="M212.7,142.1c-0.2,0.2-0.3,0.4-0.5,0.5c-0.2,0.1-0.4,0.2-0.7,0.2c-0.3,0-0.6-0.1-0.8-0.3
			c-0.3-0.2-0.6-0.4-1-0.6c-0.4-0.2-0.8-0.4-1.4-0.6c-0.5-0.2-1.2-0.3-2-0.3c-1,0-1.9,0.2-2.6,0.5c-0.7,0.4-1.4,0.9-1.9,1.5
			c-0.5,0.7-0.9,1.5-1.1,2.4c-0.2,1-0.4,2-0.4,3.2c0,1.2,0.1,2.4,0.4,3.3c0.3,1,0.7,1.8,1.2,2.5c0.5,0.7,1.1,1.2,1.8,1.5
			c0.7,0.3,1.5,0.5,2.4,0.5c0.9,0,1.6-0.1,2.2-0.3c0.6-0.2,1-0.5,1.4-0.7c0.4-0.3,0.7-0.5,1-0.7c0.3-0.2,0.6-0.3,0.9-0.3
			c0.5,0,0.8,0.2,1,0.5l1.6,2.1c-0.6,0.7-1.3,1.3-2,1.8c-0.7,0.5-1.5,0.9-2.3,1.2c-0.8,0.3-1.6,0.5-2.4,0.6
			c-0.8,0.1-1.7,0.2-2.5,0.2c-1.4,0-2.8-0.3-4.1-0.8c-1.3-0.5-2.4-1.3-3.3-2.4c-1-1-1.7-2.3-2.3-3.8c-0.6-1.5-0.8-3.2-0.8-5.1
			c0-1.7,0.2-3.3,0.7-4.8c0.5-1.5,1.2-2.7,2.2-3.8c1-1.1,2.1-1.9,3.6-2.5c1.4-0.6,3-0.9,4.9-0.9c1.8,0,3.3,0.3,4.6,0.8
			c1.3,0.6,2.5,1.4,3.6,2.4L212.7,142.1z"/>
		<path fill="#FFFFFF" d="M225.5,136.8c1.5,0,2.8,0.2,4.1,0.7c1.2,0.5,2.3,1.2,3.2,2.1c0.9,0.9,1.6,2,2.1,3.3
			c0.5,1.3,0.8,2.8,0.8,4.5c0,0.4,0,0.8-0.1,1.1c0,0.3-0.1,0.5-0.2,0.7c-0.1,0.2-0.2,0.3-0.4,0.3c-0.2,0.1-0.4,0.1-0.6,0.1h-14.5
			c0.2,2.4,0.8,4.2,1.9,5.3c1.1,1.1,2.6,1.7,4.5,1.7c0.9,0,1.7-0.1,2.4-0.3c0.7-0.2,1.2-0.4,1.7-0.7c0.5-0.3,0.9-0.5,1.3-0.7
			c0.4-0.2,0.7-0.3,1.1-0.3c0.2,0,0.4,0,0.6,0.1c0.2,0.1,0.3,0.2,0.4,0.4l1.6,2.1c-0.6,0.7-1.3,1.3-2.1,1.8
			c-0.8,0.5-1.6,0.9-2.4,1.2c-0.8,0.3-1.7,0.5-2.6,0.6c-0.9,0.1-1.7,0.2-2.5,0.2c-1.6,0-3.1-0.3-4.5-0.8c-1.4-0.5-2.6-1.3-3.7-2.4
			c-1-1.1-1.8-2.4-2.4-3.9c-0.6-1.6-0.9-3.4-0.9-5.4c0-1.6,0.3-3.1,0.8-4.5c0.5-1.4,1.3-2.6,2.2-3.7c1-1,2.1-1.9,3.5-2.5
			C222.1,137.1,223.7,136.8,225.5,136.8z M225.6,140.9c-1.6,0-2.9,0.5-3.9,1.4c-0.9,0.9-1.5,2.2-1.8,4h10.6c0-0.7-0.1-1.4-0.3-2.1
			c-0.2-0.6-0.5-1.2-0.9-1.7c-0.4-0.5-0.9-0.9-1.6-1.2C227.1,141,226.4,140.9,225.6,140.9z"/>
		<path fill="#FFFFFF" d="M256.3,160.6h-2.5c-0.5,0-1-0.1-1.3-0.2c-0.3-0.2-0.5-0.5-0.7-1l-0.5-1.7c-0.6,0.5-1.2,1-1.7,1.4
			c-0.6,0.4-1.2,0.7-1.8,1c-0.6,0.3-1.3,0.5-1.9,0.6c-0.7,0.1-1.4,0.2-2.3,0.2c-1,0-1.9-0.1-2.7-0.4c-0.8-0.3-1.6-0.7-2.2-1.2
			c-0.6-0.5-1.1-1.2-1.4-2c-0.3-0.8-0.5-1.7-0.5-2.8c0-0.9,0.2-1.8,0.7-2.6c0.5-0.9,1.2-1.6,2.3-2.3c1.1-0.7,2.5-1.3,4.3-1.7
			c1.8-0.5,4-0.7,6.7-0.7v-1.4c0-1.6-0.3-2.7-1-3.5c-0.7-0.8-1.6-1.1-2.9-1.1c-0.9,0-1.7,0.1-2.3,0.3c-0.6,0.2-1.1,0.5-1.6,0.7
			c-0.4,0.3-0.9,0.5-1.2,0.7c-0.4,0.2-0.8,0.3-1.3,0.3c-0.4,0-0.7-0.1-1-0.3c-0.3-0.2-0.5-0.4-0.7-0.7l-1-1.8
			c2.7-2.5,5.9-3.7,9.8-3.7c1.4,0,2.6,0.2,3.7,0.7c1.1,0.4,2,1.1,2.7,1.9c0.7,0.8,1.3,1.8,1.7,2.9c0.4,1.1,0.6,2.3,0.6,3.7V160.6z
			 M245.3,157.1c0.6,0,1.1-0.1,1.6-0.2c0.5-0.1,0.9-0.3,1.4-0.5c0.4-0.2,0.9-0.5,1.3-0.8c0.4-0.3,0.8-0.7,1.2-1.1v-3.9
			c-1.6,0-3,0.1-4.1,0.3c-1.1,0.2-2,0.5-2.7,0.8c-0.7,0.3-1.1,0.7-1.4,1.1c-0.3,0.4-0.4,0.9-0.4,1.4c0,1,0.3,1.7,0.9,2.1
			C243.6,156.9,244.4,157.1,245.3,157.1z"/>
		<path fill="#FFFFFF" d="M259.5,160.6v-23.4h3.4c0.7,0,1.2,0.3,1.4,1l0.4,1.8c0.5-0.5,1-0.9,1.5-1.3c0.5-0.4,1.1-0.7,1.7-1
			c0.6-0.3,1.2-0.5,1.9-0.7c0.7-0.2,1.4-0.2,2.2-0.2c1.3,0,2.4,0.2,3.4,0.7c1,0.4,1.8,1,2.5,1.8c0.7,0.8,1.2,1.7,1.5,2.8
			c0.3,1.1,0.5,2.3,0.5,3.6v14.9h-5.6v-14.9c0-1.4-0.3-2.5-1-3.3c-0.7-0.8-1.7-1.2-3-1.2c-1,0-1.9,0.2-2.7,0.7
			c-0.9,0.4-1.7,1-2.4,1.8v16.9H259.5z"/>
	</g>
</g>
</svg>
