<?xml version="1.0" encoding="utf-8"?>
<!-- Generator: Adobe Illustrator 18.1.1, SVG Export Plug-In . SVG Version: 6.00 Build 0)  -->
<svg version="1.1" id="Layer_1" xmlns="http://www.w3.org/2000/svg" xmlns:xlink="http://www.w3.org/1999/xlink" x="0px" y="0px"
	 width="320px" height="100.4px" viewBox="0 0 320 100.4" enable-background="new 0 0 320 100.4" xml:space="preserve">
<g id="_x31_n6meT.tif">
	<g>
		<path fill="#FFFFFF" d="M273.6,78.4c0.8,0.1,1.6,0.2,2.7,0.4c0.1,1,0.1,2.1,0.2,3.4c-2.7,0-5.3,0-8.1,0c0-0.8-0.1-1.6-0.1-2.4
			c0-4,0-8,0-12.1c0-1.7-0.1-3.3-2-4c-1.8-0.7-3.6-0.3-5.1,1.1c-1.5,1.4-2.5,3.2-2.6,5.2c-0.2,2.7-0.1,5.5-0.1,8.2
			c1.2,0.3,2.5,0.4,3.1,1c0.5,0.6,0.2,1.9,0.3,3c-4,0-7.7,0-11.4,0c-1.2-2.7-0.7-3.4,2.7-3.9c0-4.8,0-9.7,0-14.5
			c-1.1-0.3-2.4-0.4-3.2-1c-0.5-0.4-0.2-1.8-0.3-3c2.3-0.3,4.5-0.3,6.6-0.1c1.5,0.2,1.6,1.7,1.9,3.2c2.1-2.1,4.3-3.9,7.3-3.9
			c3.1,0,5.5,1.2,6.6,4.6c0.6-0.7,1-1.2,1.4-1.6c2.5-2.6,5.5-3.5,9-2.7c2.5,0.6,4,2.3,4.6,4.8c0.3,1.4,0.5,2.9,0.5,4.3
			c0.1,3.3,0,6.5,0,9.7c1.2,0.3,2.6,0.3,3.2,1c0.5,0.6,0.2,1.9,0.3,2.9c-0.6,0.1-1,0.2-1.3,0.2c-2.2,0-4.4,0-6.8,0
			c-0.1-1-0.3-1.9-0.3-2.8c-0.1-4.1,0-8.2-0.1-12.3c-0.1-3.4-2.6-4.8-5.7-3.3c-1.9,0.9-2.7,2.5-3.4,4.4
			C273.1,70.2,273,76.1,273.6,78.4z"/>
		<path fill="#FFFFFF" d="M141.2,63.5c0-1.4,0-2.4,0-3.6c1.2-0.1,2.3-0.1,3.5-0.2c1.5,0,3.1,0,4.6,0c2.1,0,2.3,0.2,2.2,2.2
			c0,0.4-0.1,0.9-0.2,1.4c-0.9,0.1-1.6,0.2-2.7,0.3c1.2,4.3,2.4,8.5,3.8,13.2c1.5-4.9,2.8-9.4,4.1-13.8c0.1-0.3,0.2-0.6,0.3-0.8
			c0.7-2.4,1.7-2.9,4.2-2.5c1.1,0.2,1.1,1,1.4,1.8c1.3,4.2,2.5,8.4,3.7,12.6c0.2,0.8,0.5,1.5,0.9,2.8c1.3-4.6,2.5-8.7,3.7-13
			c-1-0.2-1.7-0.3-2.6-0.4c0-1.1,0-2.1,0-3.5c1.2-0.1,2.3-0.1,3.4-0.2c1.5,0,3.1,0,4.6,0c2.1,0,2.3,0.2,2.2,2.2
			c0,0.4-0.1,0.8-0.2,1.4c-0.9,0.1-1.6,0.2-2.7,0.4c-0.8,2.5-1.6,5.1-2.4,7.8c-0.9,3.1-1.9,6.3-2.8,9.4c-0.4,1.3-0.9,1.9-2.4,1.9
			c-3.3,0-3.3,0.1-4.3-3.2c-0.9-2.9-1.7-5.9-2.7-8.8c-0.3-1.1-0.8-2.2-1.3-3.6c-1.4,4.6-2.8,8.8-4.1,13c-0.3,0.9-0.6,2.2-1.2,2.3
			c-1.3,0.4-2.8,0.3-4.1,0.1c-0.5-0.1-0.9-1.1-1.1-1.7c-1.5-4.8-2.9-9.6-4.4-14.4c0-0.1,0-0.1,0-0.2
			C144.3,64.4,143.6,62.9,141.2,63.5z"/>
		<path fill="#FFFFFF" d="M130.3,82.2c0-1.3,0-2.3,0-3.5c1-0.1,1.8-0.2,3-0.4c-0.7-2-1.3-3.9-2-5.8c-0.1-0.4-0.9-0.7-1.4-0.7
			c-2.7-0.1-5.4-0.1-8.1,0c-0.5,0-1.2,0.4-1.4,0.7c-0.7,1.8-1.3,3.7-2,5.7c1.1,0.2,1.9,0.3,3,0.4c0.1,1.1,0.1,2.1,0.2,3.1
			c-1.7,0.6-8.2,0.8-11.1,0.3c0-1.1,0-2.2,0-3.4c0.9-0.1,1.8-0.2,2.8-0.3c1.3-3.7,2.7-7.5,4.1-11.2c1.7-4.8,3.5-9.6,5.1-14.4
			c0.5-1.4,1.2-1.9,2.7-1.9c4.1,0.1,3.2-0.4,4.6,3.2c2.6,7.2,5.2,14.4,7.7,21.6c0.3,0.9,0.7,1.8,1,2.7c0.9,0.1,1.7,0.2,2.8,0.3
			c0,1.1,0,2.2,0,3.5C137.7,82.2,134.1,82.2,130.3,82.2z M129.9,67.8c-1.3-3.7-2.5-7.2-3.8-10.8c-0.1,0-0.3,0.1-0.4,0.1
			c-1.2,3.5-2.4,6.9-3.8,10.7C124.7,67.8,127.1,67.8,129.9,67.8z"/>
		<path fill="#FFFFFF" d="M60.8,63.7c-3.8-0.6-3.8-0.6-3.1-4c2,0,4-0.1,6,0.1c0.7,0.1,1.3,1,1.8,1.6c0.3,0.4,0.2,0.9,0.4,1.7
			c0.6-0.5,1-0.9,1.4-1.3c2.7-2.8,6-3.1,9.5-2.3c2.6,0.6,4,2.4,4.5,4.9c0.3,1.6,0.4,3.3,0.5,5c0.1,3,0,6,0,8.9
			c3.7,0.9,3.7,0.9,3.3,3.9c-2.5,0-5.1,0-8,0c-0.1-0.7-0.3-1.6-0.3-2.4c-0.1-4.1,0-8.2-0.1-12.3c-0.1-3.1-2-4.5-4.9-3.8
			c-3,0.7-5.4,3.1-5.7,6.2c-0.3,2.7-0.1,5.5-0.1,8.2c1.2,0.4,2.5,0.6,3.2,1.3c0.5,0.5,0.1,1.7,0.1,2.8c-3.9,0-7.5,0-11.2,0
			c-1.2-2.7-0.7-3.4,2.7-3.9C60.8,73.5,60.8,68.7,60.8,63.7z"/>
		<path fill="#FFFFFF" d="M23.9,55.2c-2.8,0-5.4,0-8.4,0c-0.2,3.2-0.1,6.2,0,9.6c3.5,0,6.9,0,10.1,0c0.3,0.4,0.4,0.6,0.4,0.7
			c0.4,3.4,0.3,3.5-3,3.5c-2.4,0-4.8,0-7.3,0c0,3.2,0,6.2,0,9.3c1.3,0.1,2.5,0.2,3.8,0.3c0,1.2,0,2.2,0,3.5c-4.2,0-8.3,0-12.7,0
			c-0.1-1.1-0.1-2.2-0.2-3.5c1.3-0.1,2.5-0.2,3.8-0.3c0-7.8,0-15.6,0-23.5c-1.1-0.1-2.2-0.2-3.6-0.3c0-1.2,0-2.3,0-3.5
			c7.2,0,14.3,0,21.6,0c0.5,2.2,0.3,4.5,0.1,6.7c0,0.3-0.6,0.8-1,0.9c-1,0.1-2,0-3.1,0C24.2,57.4,24.1,56.4,23.9,55.2z"/>
		<path fill="#FFFFFF" d="M42.8,59.2c7,0,12.3,5.1,12.2,11.8c-0.1,7.6-6.9,11.9-12.3,11.9c-5.6,0-12.3-4.7-12.2-12.2
			C30.6,64.8,35.8,58.8,42.8,59.2z M50,70.9c0-4.6-2.9-7.4-7.4-7.4c-4.2,0-7.5,3.4-7.3,7.7c0.2,4.1,3,7.6,7.5,7.5
			C47.1,78.4,50,75.4,50,70.9z"/>
		<path fill="#FFFFFF" d="M235.3,82.8c-5.9,0.4-10.8-4.2-11.8-8.3c-2.4-9.7,4.8-15.3,11.3-15.3c5,0,8.9,1.8,11.3,6.1
			C250.8,74.2,243.4,83.3,235.3,82.8z M242.5,71c0-4.6-2.8-7.6-7.2-7.6c-4.2,0-7.5,3.2-7.4,7.5c0.1,4.2,3,7.6,7.3,7.7
			C238.6,78.6,242.8,75.5,242.5,71z"/>
		<path fill="#FFFFFF" d="M297.9,71.8c-0.1,2.6,1,4.5,3,5.6c3.7,2.2,7.3,1.1,10.8-1.2c0.7,1.1,1.3,2.1,1.9,3.2c-1.6,2-3.7,2.6-5.8,3
			c-5.3,1.1-10-0.3-13-4.5c-3.8-5.3-2.7-16,5.8-18.3c7.6-2,12.8,1.8,13.4,9.6c0.1,1.8-0.4,2.4-2.2,2.4c-3.8,0-7.6,0-11.4,0
			C299.7,71.7,298.9,71.8,297.9,71.8z M298,68.3c3.7,0,7.3,0,10.9,0c-0.3-3.3-1.8-4.9-4.4-5.2C301.9,62.8,298.4,64.8,298,68.3z"/>
		<path fill="#FFFFFF" d="M184.4,71.7c-0.1,2.9,1.2,4.8,3.2,5.9c3.6,2,7,0.9,10.5-1.4c0.7,1.1,1.3,2,2,3.1c-1.5,2.1-3.7,2.7-5.9,3.1
			c-5.4,1.1-10.2-0.3-13.2-5c-3.9-6.1-1.4-16.2,6.4-18c7.7-1.8,12.6,2.1,13.1,9.8c0.1,1.8-0.4,2.3-2.3,2.3c-3.7,0-7.4,0-11.2,0
			C186.2,71.7,185.4,71.7,184.4,71.7z M195.4,68.3c-0.6-3.5-2.1-5.1-4.8-5.2c-3-0.1-5.4,1.8-6.1,5.2
			C188.1,68.3,191.7,68.3,195.4,68.3z"/>
		<path fill="#FFFFFF" d="M203.2,74.8c0.7-0.1,1.5-0.1,2.3-0.2c1.1-0.1,1.7,0.4,1.6,1.5c-0.1,1.2,0.8,1.8,1.7,2.2
			c1.8,0.7,3.5,0.8,5.3,0.1c1-0.4,1.8-1,1.9-2.2c0.1-1.2-0.7-1.8-1.5-2.2c-1.4-0.6-2.8-1.1-4.2-1.8c-1.5-0.7-2.9-1.3-4.3-2.2
			c-3.3-2-3.1-7.9,0.6-9.7c3.8-1.8,7.4-1.8,11.1,0c1.9,0.9,2.9,3.5,2.2,5.4c-0.1,0.4-0.5,0.8-0.8,0.9c-0.8,0.1-1.6,0.1-2.4,0.1
			c-1.2-0.1-0.9-1.1-1.1-1.8c-0.2-0.5-0.6-1.1-1-1.3c-1.5-0.8-3.1-0.9-4.6-0.2c-1.9,0.9-2.2,2.7-0.4,3.9c0.9,0.6,1.9,1,2.9,1.4
			c1.8,0.8,3.7,1.4,5.4,2.3c4,2,3.5,8,0.2,10c-3.6,2.3-10.1,2.2-13.5-0.3C203,79.5,202.6,78,203.2,74.8z"/>
		<path fill="#FFFFFF" d="M89.3,53.6c1.8,0,3.1,0,4.7,0c0,2,0,3.8,0,5.9c1.9,0.1,3.5,0.2,5.3,0.2c0,1.2,0,2.3,0,3.7
			c-1.8,0-3.4,0-5.3,0c0,2.4-0.1,4.6,0,6.7c0.1,1.8,0.1,3.6,0.5,5.4c0.3,1.6,1.5,2.4,3.1,2.6c2.3,0.3,2.5,0.6,2.3,2.9
			c0,0.4-0.2,0.7-0.3,1c-6,1.3-10.3-2-10.3-8c0-3.4,0-6.8,0-10.4c-0.6-0.1-1.1-0.2-1.6-0.2c-2.1-0.1-2.4-0.4-2.2-2.5
			c0-0.4,0.1-0.7,0.3-1.2c1.1-0.1,2.1-0.2,3.5-0.2C89.3,57.6,89.3,55.8,89.3,53.6z"/>
	</g>
</g>
</svg>
