<?xml version="1.0" encoding="utf-8"?>
<!-- Generator: Adobe Illustrator 18.1.1, SVG Export Plug-In . SVG Version: 6.00 Build 0)  -->
<svg version="1.1" id="Layer_1" xmlns="http://www.w3.org/2000/svg" xmlns:xlink="http://www.w3.org/1999/xlink" x="0px" y="0px"
	 width="125px" height="125px" viewBox="0 0 125 125" enable-background="new 0 0 125 125" xml:space="preserve">
<g>
	<circle fill="#D02027" cx="62.5" cy="62.5" r="62.5"/>
	<path fill="#FFFFFF" d="M64.4,76.2c-1.3,0-2.6,0-3.9,0c-0.5,5.4-2.8,9.8-7.1,13.1c-3.2,2.4-6.9,3.6-10.9,3.6
		c-8.8-0.1-16.9-7.1-17.4-16.7c-1.5,0-3.1-0.1-4.6,0c-3.1,0.2-3.4-1.3-2.9-3.6c2.6-10.9,5.2-21.9,7.7-32.9c1.1-4.8,6-8.1,10.8-7.3
		c1.2,0.2,1.9,1,1.8,2.1c-0.1,1.1-1,1.8-2.2,1.8c-3.9-0.1-5.9,1.4-6.8,5.1c-2.4,10.1-4.7,20.2-7.1,30.3c0,0.2-0.1,0.4-0.1,0.6
		c1.2,0,2.3,0,3.6,0c1-4.9,3.4-8.8,7.6-11.7c3.1-2.1,6.6-3.1,10.4-3c7.1,0.1,15.2,5.4,16.9,14.7c0.1,0,0.3,0,0.4,0
		c1.3,0,2.5,0,3.9,0c1.1-5.3,3.8-9.4,8.4-12.2c3.2-2,6.8-2.8,10.6-2.4c7.2,0.6,14.1,5.7,15.9,14.6c1.1,0,2.3,0,3.6,0
		c-0.3-1.5-0.7-2.9-1-4.3c-2.1-9-4.2-18-6.4-27.1c-0.7-2.9-3.2-4.8-6.2-4.6c-0.2,0-0.4,0-0.6,0c-1.1,0-1.9-0.8-2-1.8
		c-0.1-1.1,0.6-1.9,1.6-2.1c4.8-0.9,9.9,2.6,11,7.5c2.4,10.4,4.8,20.7,7.3,31.1c0.2,0.9,0.4,1.7,0.6,2.6c0.3,1.6-0.5,2.6-2.1,2.6
		c-1.9,0-3.7,0-5.7,0c-0.5,5.7-3,10.3-7.7,13.6c-3.2,2.3-6.9,3.3-10.8,3.1C72.5,92.3,65.1,85.5,64.4,76.2z M42.8,88.9
		c7.5,0.1,13.8-6.1,13.8-13.6c0.1-7.6-6-13.8-13.5-13.9c-7.7-0.1-13.8,6-13.9,13.7C29.1,82.6,35.2,88.8,42.8,88.9z M82,88.9
		c7.4,0.1,13.7-6,13.7-13.4c0.1-7.7-5.9-13.9-13.5-14c-7.6-0.1-13.8,6-13.9,13.6C68.3,82.7,74.4,88.8,82,88.9z"/>
</g>
</svg>
