<?xml version="1.0" encoding="UTF-8" standalone="no"?>
<svg width="359px" height="95px" viewBox="0 0 359 95" version="1.1" xmlns="http://www.w3.org/2000/svg" xmlns:xlink="http://www.w3.org/1999/xlink" xmlns:sketch="http://www.bohemiancoding.com/sketch/ns">
    <!-- Generator: Sketch 3.1.1 (8761) - http://www.bohemiancoding.com/sketch -->
    <title>chain + linxz 2</title>
    <desc>Created with Sketch.</desc>
    <defs></defs>
    <g id="Page-1" stroke="none" stroke-width="1" fill="none" fill-rule="evenodd" sketch:type="MSPage">
        <g id="bookmark-list" sketch:type="MSArtboardGroup" transform="translate(-732.000000, -236.000000)">
            <g id="chain-+-linxz-2-+-A-simple-solution-to" sketch:type="MSLayerGroup" transform="translate(597.000000, 251.000000)">
                <g id="chain-+-linxz-2" transform="translate(150.000000, 0.000000)" sketch:type="MSShapeGroup">
                    <g id="chain" fill="#D0011B">
                        <path d="M90.7714286,36.96875 L90.7714286,0.116071429 L-0.0857142857,0.116071429 L-0.0857142857,64.9419643 L40.0571429,64.9419643 L40.0571429,44.8616071 L19.3142857,44.8616071 L19.3142857,20.3125 L73.7142857,20.3125 L73.7142857,36.96875 L90.7714286,36.96875 L90.7714286,36.96875 Z M99.0857143,0.116071429 L99.0857143,20.7477679 L117.685714,20.7477679 L117.685714,45.4129464 L65.4285714,45.4129464 L65.4285714,29.3370536 L48.3714286,29.3370536 L48.3714286,64.9419643 L137.057143,64.9419643 L137.057143,0.116071429 L99.0857143,0.116071429 L99.0857143,0.116071429 Z" id="Shape"></path>
                    </g>
                    <path d="M170.91403,52.8125 C170.91403,54.918992 171.279157,56.4236066 172.00942,57.3263889 C172.739684,58.2291712 173.774209,58.6805556 175.113026,58.6805556 C175.904145,58.6805556 176.756107,58.620371 177.668937,58.5 C178.581766,58.379629 179.616291,58.1087984 180.772542,57.6875 L181.594085,63.375 C180.6204,63.8564839 179.266389,64.2476837 177.532013,64.5486111 C175.797636,64.8495385 174.29149,65 173.013528,65 C170.275039,65 168.023426,64.2326466 166.258622,62.6979167 C164.493817,61.1631868 163.611429,58.5602035 163.611429,54.8888889 L163.611429,0.722222222 L170.91403,0.722222222 L170.91403,52.8125 Z M190.996184,18.7777778 L198.298786,18.7777778 L198.298786,63.9166667 L190.996184,63.9166667 L190.996184,18.7777778 Z M189.444382,5.05555556 C189.444382,3.67128938 189.916003,2.48264385 190.859261,1.48958333 C191.802518,0.496522813 193.004393,0 194.46492,0 C195.925448,0 197.172963,0.496522813 198.207503,1.48958333 C199.242044,2.48264385 199.759306,3.67128938 199.759306,5.05555556 C199.759306,6.43982174 199.242044,7.58332882 198.207503,8.48611111 C197.172963,9.3888934 195.925448,9.84027778 194.46492,9.84027778 C193.004393,9.84027778 191.802518,9.3888934 190.859261,8.48611111 C189.916003,7.58332882 189.444382,6.43982174 189.444382,5.05555556 L189.444382,5.05555556 Z M240.014897,63.9166667 L240.014897,38.1875 C240.014897,33.4930321 239.330285,29.9571878 237.961041,27.5798611 C236.591796,25.2025344 234.081552,24.0138889 230.430233,24.0138889 C227.204901,24.0138889 224.542521,24.8715192 222.443012,26.5868056 C220.343504,28.3020919 218.867785,30.4536908 218.01581,33.0416667 L218.01581,63.9166667 L210.713208,63.9166667 L210.713208,18.7777778 L215.82503,18.7777778 L217.194267,24.2847222 L217.559397,24.2847222 C219.019925,22.3587867 220.98248,20.7789414 223.44712,19.5451389 C225.91176,18.3113364 228.847985,17.6944444 232.255883,17.6944444 C234.750951,17.6944444 236.94171,17.9803212 238.828225,18.5520833 C240.714739,19.1238455 242.28174,20.1319372 243.529274,21.5763889 C244.776808,23.0208406 245.720052,24.9617934 246.359032,27.3993056 C246.998013,29.8368177 247.317499,32.9212776 247.317499,36.6527778 L247.317499,63.9166667 L240.014897,63.9166667 Z M269.407868,40.8055556 L254.072405,18.7777778 L263.018092,18.7777778 L271.689931,31.2361111 L274.245842,36.3819444 L276.893035,31.2361111 L285.74744,18.7777778 L293.962866,18.7777778 L278.53612,40.4444444 L294.875692,63.9166667 L286.203852,63.9166667 L276.527905,50.1944444 L273.789429,44.7777778 L270.959671,50.1944444 L261.101159,63.9166667 L252.977015,63.9166667 L269.407868,40.8055556 Z M298.070579,57.5972222 L319.156842,28.8888889 L322.990707,25.0972222 L298.070579,25.0972222 L298.070579,18.7777778 L330.567157,18.7777778 L330.567157,25.0972222 L309.298329,54.0763889 L305.555746,57.5972222 L330.567157,57.5972222 L330.567157,63.9166667 L298.070579,63.9166667 L298.070579,57.5972222 Z" id="linxz" fill="#FFFFFF"></path>
                </g>
            </g>
        </g>
    </g>
</svg>