<?xml version="1.0" encoding="utf-8"?>
<!-- Generator: Adobe Illustrator 18.1.1, SVG Export Plug-In . SVG Version: 6.00 Build 0)  -->
<svg version="1.1" id="Layer_1" xmlns="http://www.w3.org/2000/svg" xmlns:xlink="http://www.w3.org/1999/xlink" x="0px" y="0px"
	 width="320px" height="175px" viewBox="0 0 320 175" enable-background="new 0 0 320 175" xml:space="preserve">
<g>
	<path fill="#FFFFFF" d="M213.5,67c12.9,0,18.2,7,17.8,15.6c-0.3,10.3-10.4,16.6-19.9,16.6c-5.9,0-8.2-2.4-8.8-4.2
		c-0.3-1-1.5-0.7-1.5,0.2c-0.1,5.3,2.8,11.8,12,11.8c7,0,12.6-4,12.6-4c1.9,1.9,2.6,4,2.5,6.3c-0.4,5-7,9.3-17.7,9.3
		c-16.9,0-23.3-11.7-22.5-24.1C188.7,78.5,198.8,67,213.5,67 M208,90c5.3,0,10.1-2,10.1-6.8c0.1-3-2.1-5.1-5.8-5.1
		c-6.1,0-9.4,4.9-10.2,9.1c-0.1,0.7-0.3,1.7-0.3,1.7C202.3,89.1,204.4,90,208,90"/>
	<path fill="#FFFFFF" d="M258.7,67c12.9,0,18.2,7,17.8,15.6c-0.3,10.3-10.4,16.6-19.9,16.6c-5.9,0-8.2-2.4-8.8-4.2
		c-0.3-1-1.5-0.7-1.5,0.2c-0.1,5.3,2.8,11.8,12,11.8c7,0,12.6-4,12.6-4c1.9,1.9,2.6,4,2.5,6.3c-0.4,5-7,9.3-17.7,9.3
		c-16.9,0-23.3-11.7-22.5-24.1C234,78.5,244.1,67,258.7,67 M253.3,90c5.3,0,10.1-2,10.1-6.8c0.1-3-2.1-5.1-5.8-5.1
		c-6.1,0-9.4,4.9-10.2,9.1c-0.1,0.7-0.3,1.7-0.3,1.7C247.6,89.1,249.7,90,253.3,90"/>
	<path fill="#FFFFFF" d="M284,79.4c-6.4,0-5.8-3.5-5.8-5.5c0-2.1,2.1-4.7,4.1-5.1c5.9-1.1,6.1-5.9,6.9-8.5c0.5-1.6,1.4-2.3,2.9-2.3
		h4.5c1.9,0,3.3,1.3,2.9,3.7c-0.3,2.4-0.6,4.6-0.9,6.2c1.9,0.1,1.4,0,4.5,0c4.6,0,6.3,2.4,6.3,6.1c0,2.1-2.1,5.3-6.5,5.3h-5.8
		c-1.1,7.3-2.4,17-3.1,22.6c-0.4,3.8,1.3,4.7,3.9,4.7c1.9,0.1,4.8-1.4,5.8-2.2c4,4.7,3,14.3-10,14.3c-9.4,0-14-7.2-12.9-16.5
		C281.5,97,284,79.4,284,79.4"/>
	<path fill="#FFFFFF" d="M184.1,56.2h-0.2h-3.7h-10.9c-1.8,0-7.2,0.5-7.5,6c-0.3,4.9,2.2,7.2,7.7,7.2c2.9,0,5.9-2.1,7.2-2.9
		c1.5-0.9,2.4,0.3,1.3,1.2c-2,1.7-3.9,3.7-5,9.9l-3,18.5c-0.9,6.2-3.6,9.2-8.1,9.2c-4.1,0-6.9-2.3-9.3-5.5
		c-4.8,1.5-7.3,8.2-3.8,12.6c1.6,2,4.9,6,13.3,6c8.7,0,18.7-4.2,21.1-21.1c1.2-8.2,4.6-29.8,5.1-33.6
		C188.6,60.5,189.2,56.2,184.1,56.2"/>
	<g>
		<g>
			<defs>
				<path id="SVGID_1_" d="M88.4,84c-0.1,1.3-0.4,2.5-0.7,3.7c-0.1,8.3-6.7,15.1-14.9,15.5c-1.5,0.5-3,0.8-4.6,1l-9.1,9.1l26.7,26.7
					l8.5-8.5c0.7-11.7,10-21,21.7-21.7l7.1-7.1L96.3,76.1L88.4,84z"/>
			</defs>
			<clipPath id="SVGID_2_">
				<use xlink:href="#SVGID_1_"  overflow="visible"/>
			</clipPath>
			
				<linearGradient id="SVGID_3_" gradientUnits="userSpaceOnUse" x1="-27.7777" y1="-713.1348" x2="-27.1217" y2="-713.1348" gradientTransform="matrix(-29 33.5 -33.5 -29 -24595.0566 -19653.25)">
				<stop  offset="0" style="stop-color:#58BF91"/>
				<stop  offset="1" style="stop-color:#41BBEC"/>
			</linearGradient>
			<polygon clip-path="url(#SVGID_2_)" fill="url(#SVGID_3_)" points="154.6,103.5 95.6,171.7 27.4,112.7 86.4,44.5 			"/>
		</g>
	</g>
	<g>
		<g>
			<defs>
				<path id="SVGID_4_" d="M21,102l7.9,7.9c10.6,1.2,19,9.6,20.2,20.2l9.1,9.1l26.7-26.7l-8.5-8.5c-1.7-0.1-3.3-0.4-4.8-0.8
					c-8.4-0.1-15.2-6.6-15.7-14.9c-0.6-1.9-1-3.9-1.1-6l-7.1-7.1L21,102z"/>
			</defs>
			<clipPath id="SVGID_5_">
				<use xlink:href="#SVGID_4_"  overflow="visible"/>
			</clipPath>
			
				<linearGradient id="SVGID_6_" gradientUnits="userSpaceOnUse" x1="-29.9518" y1="-689.6821" x2="-29.2958" y2="-689.6821" gradientTransform="matrix(29.5 31 -31 29.5 -20453.1172 21371.3984)">
				<stop  offset="0" style="stop-color:#FFC907"/>
				<stop  offset="1" style="stop-color:#41BBEC"/>
			</linearGradient>
			<polygon clip-path="url(#SVGID_5_)" fill="url(#SVGID_6_)" points="54.6,43.4 116.9,108.9 51.4,171.2 -10.9,105.7 			"/>
		</g>
	</g>
	<g>
		<g>
			<defs>
				<path id="SVGID_7_" d="M49.4,43.7c-0.7,11.7-10,21-21.7,21.7l-7.1,7.1l26.7,26.7l7.9-7.9c0.1-1.2,0.4-2.5,0.7-3.6
					c0-0.1,0-0.2,0-0.2c0-8.8,7.1-15.8,15.8-15.8c0.3,0,0.5,0,0.8,0c0.9-0.2,1.9-0.4,2.9-0.5l9.1-9.1L57.8,35.3L49.4,43.7z"/>
			</defs>
			<clipPath id="SVGID_8_">
				<use xlink:href="#SVGID_7_"  overflow="visible"/>
			</clipPath>
			
				<linearGradient id="SVGID_9_" gradientUnits="userSpaceOnUse" x1="-56.6865" y1="-690.646" x2="-56.0305" y2="-690.646" gradientTransform="matrix(29 -29.5 29.5 29 22060.6367 18433.7871)">
				<stop  offset="0" style="stop-color:#FFC907"/>
				<stop  offset="1" style="stop-color:#F2674E"/>
			</linearGradient>
			<polygon clip-path="url(#SVGID_8_)" fill="url(#SVGID_9_)" points="-11.4,67.8 52,3.3 116.5,66.7 53.1,131.2 			"/>
		</g>
	</g>
	<g>
		<g>
			<defs>
				<path id="SVGID_10_" d="M58.2,62.8l8.5,8.5c1.1,0.1,2.2,0.2,3.3,0.4c0.6-0.1,1.2-0.1,1.9-0.1c8.8,0,15.8,7.1,15.8,15.8
					c0,0.3,0,0.7,0,1c0.4,1.4,0.6,2.9,0.7,4.5l7.1,7.1l26.7-26.7l-7.9-7.9c-10.6-1.2-19-9.6-20.2-20.2l-9.1-9.1L58.2,62.8z"/>
			</defs>
			<clipPath id="SVGID_11_">
				<use xlink:href="#SVGID_10_"  overflow="visible"/>
			</clipPath>
			
				<linearGradient id="SVGID_12_" gradientUnits="userSpaceOnUse" x1="-52.3738" y1="-716.0003" x2="-51.7178" y2="-716.0003" gradientTransform="matrix(-34.5 -33.5 33.5 -34.5 22281.4199 -26376.666)">
				<stop  offset="0" style="stop-color:#58BF91"/>
				<stop  offset="1" style="stop-color:#F2674E"/>
			</linearGradient>
			<polygon clip-path="url(#SVGID_11_)" fill="url(#SVGID_12_)" points="91.1,132 26.2,69 89.2,4.1 154.1,67.1 			"/>
		</g>
	</g>
	<path fill="#FFC907" d="M32.4,110.4c-12.7,0-23-10.3-23-23c0-12.7,10.3-23,23-23s23,10.3,23,23C55.4,100.1,45.1,110.4,32.4,110.4"
		/>
	<path fill="#F2674E" d="M71.2,71.6c-12.7,0-23-10.3-23-23c0-12.7,10.3-23,23-23c12.7,0,23,10.3,23,23
		C94.2,61.3,83.9,71.6,71.2,71.6"/>
	<path fill="#41BBEC" d="M71.8,149.7c-12.7,0-23-10.3-23-23c0-12.7,10.3-23,23-23s23,10.3,23,23C94.8,139.4,84.5,149.7,71.8,149.7"
		/>
	<path fill="#58BF91" d="M110.9,111.2c-12.7,0-23-10.3-23-23c0-12.7,10.3-23,23-23s23,10.3,23,23
		C133.9,100.9,123.6,111.2,110.9,111.2"/>
</g>
</svg>
