<?xml version="1.0" encoding="utf-8"?>
<!-- Generator: Adobe Illustrator 18.1.1, SVG Export Plug-In . SVG Version: 6.00 Build 0)  -->
<svg version="1.1" id="Layer_1" xmlns="http://www.w3.org/2000/svg" xmlns:xlink="http://www.w3.org/1999/xlink" x="0px" y="0px"
	 width="600px" height="132.1px" viewBox="0 0 600 132.1" enable-background="new 0 0 600 132.1" xml:space="preserve">
<g>
	<path fill="#FFFFFF" d="M0.2,132.1c-0.1-1.5-0.2-3-0.2-4.5c0-26.7,0-53.4,0-80.1c0-1.3,0-2.6,0-3.9c3.6-1.1,14.5-1.3,21.8-0.5
		C29.2,55,36.6,66.9,44.4,79.4c1-1.4,1.7-2.2,2.2-3.1C52.9,66,59.3,55.8,65.5,45.6c1.3-2.1,2.8-2.9,5.3-2.9c6,0.2,11.9,0.1,17.5,0.1
		c0.5,0.6,0.6,0.7,0.7,0.8c0.1,0.1,0.2,0.3,0.2,0.4c0,28.2,0.1,56.4,0.1,84.5c0,1.2,0,2.3,0,3.5c-6.7,0-13.4,0-20,0
		c0-18.8,0-37.7,0-57.4c-1.4,2-2.2,3.2-3,4.4c-6.3,9.6-12.6,19.2-19,28.8c-0.9,1.3-1.4,3-3.7,3.3c-7.9-11.9-15.7-23.8-24.2-36.7
		c0,2.8,0,4.4,0,6c0,11.2,0,22.3,0,33.5c0,6-0.1,12-0.2,18C12.9,132.1,6.6,132.1,0.2,132.1z"/>
	<path fill="#FFFFFF" d="M523.9,132.1c0-29.6,0-59.2,0-89c1.7-0.1,2.8-0.3,3.9-0.3c13.5,0,27,0,40.5,0c7.2,0,13.8,1.9,19.6,6.2
		c5.8,4.3,8.8,10.1,10.2,17.1c1,5,0.5,9.9-0.6,14.8c-1.8,7.8-6.8,13.1-13.5,17.1c-1.1,0.7-2.4,1.2-3.9,2c0.6,1,1.1,2,1.7,2.9
		c6,8.8,12.1,17.5,18.1,26.3c0,1,0,2,0,3c-7.3,0-14.7,0-22,0c-5.9-9-11.8-18-17.8-27c-0.6-0.9-1.7-1.8-2.7-1.9
		c-4.4-0.2-8.8-0.1-13.6-0.1c0,10,0,19.5,0,28.9C537.3,132.1,530.6,132.1,523.9,132.1z M544.4,61c-0.9,8.9-0.6,21.4,0.5,24.8
		c5.8,0,11.6,0.1,17.4,0c1.8,0,3.6-0.5,5.4-0.8c7.1-1.1,10.6-5.4,10.3-12.8c-0.2-6.3-4.4-10.9-11-11.1C559.6,60.8,552.1,61,544.4,61
		z"/>
	<path fill="#FFFFFF" d="M302.6,132.1c-0.1-1.3-0.2-2.7-0.2-4c0-27.2,0-54.3,0-81.5c0-1,0.1-2,0.1-2.9c0.2-0.2,0.3-0.3,0.5-0.5
		c0.1-0.1,0.2-0.3,0.4-0.3c20.3-0.1,40.7-0.1,61-0.2c1.5,0,3,0,4.5,0c1.3,3,0.6,5.9,0.7,8.6c0.1,2.6,0,5.3,0,8.5
		c-1.8,0.1-3.4,0.3-5,0.3c-12.3,0-24.7,0-37,0c-1.6,0-3.3,0-5.4,0c-0.7,6-0.3,11.5-0.3,17.6c7,0.2,13.8,0.1,20.6,0.1
		c6.8,0,13.7,0,20.6,0c1.4,3,0.5,6,0.7,8.9c0.1,2.8,0,5.6,0,8.6c-4.8,1-9.3,0.4-13.7,0.5c-4.7,0.1-9.3,0-14,0c-4.5,0-9,0-13.6,0
		c-1.2,2.9-0.5,5.8-0.7,8.5c-0.1,2.8,0,5.6,0,8.2c1.8,1.9,3.8,1.2,5.5,1.2c12.3,0.1,24.7,0,37,0c1.6,0,3.3,0,5.4,0
		c0,3.4,0.1,6.3,0.1,9.2c0,3-0.1,6-0.2,9C347.3,132.1,325,132.1,302.6,132.1z"/>
	<path fill="#FFFFFF" d="M113.4,132.1c-0.1-1.5-0.2-3-0.2-4.5c0-26.7,0-53.4,0-80.1c0-1.3,0-2.6,0-3.9c3.7-1.1,57.3-1.5,67.1-0.5
		c0.4,5.5,0.2,11,0.1,17c-15.9,0-31.3,0-47.3,0c-0.9,5.9-0.2,11.5-0.5,17.6c14,0.4,27.8-0.1,41.8,0.3c0,6,0,11.6,0,17.7
		c-13.8,0.4-27.5-0.1-41.5,0.3c-0.3,6-0.2,11.6-0.1,17.7c16.1,0.3,31.7-0.1,47.8,0.2c0,3.3,0.1,6.2,0.1,9.1c0,3-0.1,6-0.2,9
		C158.1,132.1,135.7,132.1,113.4,132.1z"/>
	<path fill="#FFFFFF" d="M231.5,132.1c-0.1-2.2-0.2-4.3-0.2-6.5c0-19.7,0-39.4,0-59.1c0-1.6,0-3.3,0-5.4c-9,0-17.6,0-26.7,0
		c-0.1-3.4-0.1-6.3-0.2-9.2c0-2.8,0-5.6,0-8.1c0.4-0.5,0.5-0.6,0.7-0.7c0.1-0.1,0.3-0.2,0.4-0.2c22.5-0.1,45-0.1,67.6-0.2
		c1.3,0,2.7,0,4,0.1c0.3,0,0.6,0.3,1.2,0.6c0,5.5,0,11.1,0,17.3c-4.3,0.6-8.8,0.2-13.2,0.2c-4.3,0.1-8.6,0-13.3,0
		c-0.1,2.1-0.2,3.9-0.2,5.7c0,19.9,0,39.7,0,59.6c0,1.9-0.6,3.9-0.9,5.8C244.2,132.1,237.9,132.1,231.5,132.1z"/>
	<path fill="#CB2026" d="M464.8,132.1c-2.8-3.3-5.5-6.6-8.5-9.8c-5.6-6.1-11.4-12.2-17-18.3c-10.3-11.1-20.5-22.3-30.7-33.5
		c-4.7-5.1-9.5-10.3-14.3-15.4c-6-6.5-12.1-12.9-18.1-19.3c-0.4-0.4-0.7-0.9-0.7-1.8c0.5,0.3,1.1,0.6,1.5,1
		c5.6,5.2,11.2,10.5,16.8,15.7c11.8,10.8,23.5,21.6,35.3,32.4c4.7,4.3,9.3,8.6,13.9,12.9c6.9,6.5,13.8,13,20.8,19.5
		c1.9,1.8,3.9,3.7,6,5.2c4.2,3,5,6.8,2.9,11.3C470.2,132.1,467.5,132.1,464.8,132.1z"/>
	<path fill="#CB2026" d="M445.8,132.1c-3.5-4-7-8-10.6-11.9c-6.1-6.6-12.3-13.1-18.4-19.7c-9.2-9.9-18.3-19.8-27.5-29.7
		c-0.2-0.2-0.3-0.6-0.8-1.8c1.4,1.1,2.3,1.6,3,2.3c10.1,9.4,20.2,18.8,30.4,28.2c9.4,8.7,18.9,17.3,28.4,25.9
		c2.3,2.1,1.9,4.4,0.6,6.7C449.1,132.1,447.5,132.1,445.8,132.1z"/>
	<path fill="#CB2026" d="M369.5,0c5.5,5.2,11,10.5,16.5,15.7c12.2,11.5,24.5,23.1,36.7,34.6c11.3,10.6,22.5,21.2,33.8,31.8
		c10.8,10.1,21.6,20.3,32.4,30.4c1.2,1.1,2.4,2.4,2.9,3.9c1,2.9-0.2,5.3-2.9,6.7c-2.3,1.2-5,0.5-7.1-1.8c-3.9-4.1-7.7-8.3-11.6-12.4
		c-12-12.7-24-25.4-36-38.1c-9.7-10.3-19.3-20.6-29-30.9c-11.8-12.5-23.5-24.9-35.3-37.4c-0.4-0.5-0.8-1-1.2-1.6
		C369,0.6,369.3,0.3,369.5,0z"/>
	<path fill="#CB2026" d="M402.2,6.5c0.4,0.2,0.8,0.4,1.1,0.7c6.7,6.3,13.3,12.6,20.1,18.8c14.3,13.3,28.6,26.5,42.9,39.7
		c7.8,7.2,15.7,14.4,23.6,21.6c2.7,2.5,5.5,4.9,8.2,7.3c0.9,0.8,1.7,1.6,2.4,2.5c2.1,2.8,1.8,5.3-0.6,7.5c-2.1,1.9-5.4,2-7.7-0.1
		c-2.1-1.9-4-4-5.9-6.1c-1-1.1-1.9-2.3-2.9-3.4c-10.6-11.3-21.1-22.6-31.7-34c-7.9-8.5-15.8-17.1-23.7-25.7
		c-8.2-8.9-16.5-17.9-24.8-26.8c-0.5-0.5-0.9-1.2-1.3-1.8C402,6.7,402.1,6.6,402.2,6.5z"/>
	<path fill="#CB2026" d="M442.7,24c0.5,0.4,1.1,0.7,1.6,1.1c6.1,5.7,12.1,11.4,18.2,17.1c12,11.1,24,22.1,36,33.2
		c1.5,1.4,2.9,2.7,4.3,4.2c1.5,1.7,1.6,4.1,0.4,5.5c-1.3,1.5-4.1,1.5-5.8-0.2c-2.1-2.1-4-4.5-6-6.7c-6.6-7.1-13.3-14.1-19.9-21.1
		c-9.1-9.7-18.2-19.5-27.2-29.3c-0.9-0.9-1.5-2.1-2.3-3.1C442.2,24.4,442.4,24.2,442.7,24z"/>
	<path fill="#CB2026" d="M498.7,60c-0.7,2-1.8,2.6-3.5,1.6c-0.8-0.5-1.5-1.3-2.2-2c-7.6-8.3-15.2-16.7-22.5-25.5
		c0.5,0.2,1.1,0.4,1.4,0.7c8.6,7.9,17.1,15.8,25.7,23.7C498.1,58.9,498.4,59.5,498.7,60z"/>
	<path fill="#CB2026" d="M402.9,99.1c1,0.9,1.9,1.8,2.9,2.7c7.5,6.9,14.9,13.8,22.4,20.6c0.4,0.3,0.8,0.6,1,1.1
		c0.2,0.6,0.5,1.5,0.2,1.8c-0.5,0.5-1.5,1-2.1,0.9c-1-0.3-2.1-1.1-2.8-1.9c-2.2-2.3-4.2-4.7-6.3-7.1c-5.1-5.5-10.2-11-15.3-16.5
		c-0.3-0.3-0.5-0.7-0.7-1.1C402.4,99.4,402.6,99.2,402.9,99.1z"/>
</g>
</svg>
