<?xml version="1.0" encoding="utf-8"?>
<!-- Generator: Adobe Illustrator 18.1.1, SVG Export Plug-In . SVG Version: 6.00 Build 0)  -->
<svg version="1.1" id="Layer_1" xmlns="http://www.w3.org/2000/svg" xmlns:xlink="http://www.w3.org/1999/xlink" x="0px" y="0px"
	 width="599.2px" height="131.9px" viewBox="0 0 599.2 131.9" enable-background="new 0 0 599.2 131.9" xml:space="preserve">
<rect x="1604.7" y="-1758.2" fill="#1A2326" width="2403.1" height="2322.9"/>
<rect x="1604.7" y="-561.6" fill="#212C31" width="2403.1" height="1126.3"/>
<rect x="2121.8" y="-433.8" width="1328.9" height="78"/>
<text transform="matrix(1 0 0 1 2178.4202 -386.8686)" fill="#FFFFFF" font-family="'Montserrat-Regular'" font-size="30" letter-spacing="1">FRAMEWORKS, TOOLS, AND COMPONENTS</text>
<g>
	<g>
		<path fill="#FFFFFF" d="M2188.3-199.4c0-1.1-0.1-2.1-0.1-3.2c0-18.9,0-37.9,0-56.8c0-0.9,0-1.9,0-2.7c2.5-0.8,10.3-0.9,15.5-0.4
			c5.2,8.4,10.5,16.8,16,25.7c0.7-1,1.2-1.6,1.6-2.2c4.5-7.2,9-14.4,13.4-21.7c0.9-1.5,2-2.1,3.8-2c4.2,0.1,8.5,0,12.4,0
			c0.4,0.4,0.4,0.5,0.5,0.6c0.1,0.1,0.1,0.2,0.1,0.3c0,20,0.1,40,0.1,60c0,0.8,0,1.7,0,2.5c-4.7,0-9.5,0-14.2,0
			c0-13.4,0-26.7,0-40.7c-1,1.4-1.6,2.3-2.1,3.2c-4.5,6.8-9,13.6-13.5,20.4c-0.6,0.9-1,2.1-2.6,2.3c-5.6-8.5-11.1-16.9-17.2-26
			c0,2,0,3.1,0,4.3c0,7.9,0,15.9,0,23.8c0,4.3-0.1,8.5-0.1,12.8C2197.3-199.4,2192.8-199.4,2188.3-199.4z"/>
		<path fill="#FFFFFF" d="M2559.7-199.4c0-21,0-42,0-63.2c1.2-0.1,2-0.2,2.8-0.2c9.6,0,19.1,0,28.7,0c5.1,0,9.8,1.3,13.9,4.4
			c4.1,3,6.3,7.1,7.2,12.1c0.7,3.6,0.4,7-0.4,10.5c-1.2,5.5-4.8,9.3-9.6,12.1c-0.8,0.5-1.7,0.9-2.8,1.4c0.4,0.7,0.8,1.4,1.2,2
			c4.3,6.2,8.6,12.4,12.8,18.6c0,0.7,0,1.4,0,2.1c-5.2,0-10.4,0-15.6,0c-4.2-6.4-8.4-12.8-12.6-19.1c-0.4-0.6-1.2-1.3-1.9-1.3
			c-3.1-0.1-6.3-0.1-9.7-0.1c0,7.1,0,13.8,0,20.5C2569.2-199.4,2564.5-199.4,2559.7-199.4z M2574.3-249.8
			c-0.6,6.3-0.4,15.2,0.4,17.6c4.1,0,8.2,0,12.4,0c1.3,0,2.6-0.3,3.8-0.5c5-0.8,7.5-3.8,7.3-9.1c-0.1-4.5-3.1-7.7-7.8-7.9
			C2585.1-250,2579.8-249.8,2574.3-249.8z"/>
		<path fill="#FFFFFF" d="M2402.8-199.4c0-0.9-0.1-1.9-0.1-2.8c0-19.3,0-38.6,0-57.8c0-0.7,0.1-1.4,0.1-2c0.2-0.2,0.2-0.2,0.3-0.3
			c0.1-0.1,0.2-0.2,0.3-0.2c14.4-0.1,28.8-0.1,43.3-0.1c1.1,0,2.1,0,3.2,0c0.9,2.1,0.4,4.2,0.5,6.1c0.1,1.9,0,3.8,0,6
			c-1.3,0.1-2.4,0.2-3.5,0.2c-8.8,0-17.5,0-26.3,0c-1.2,0-2.3,0-3.8,0c-0.5,4.2-0.2,8.2-0.2,12.5c5,0.1,9.8,0,14.6,0.1
			c4.8,0,9.7,0,14.6,0c1,2.1,0.4,4.3,0.5,6.3c0.1,2,0,4,0,6.1c-3.4,0.7-6.6,0.3-9.7,0.3c-3.3,0.1-6.6,0-9.9,0c-3.2,0-6.4,0-9.6,0
			c-0.9,2.1-0.4,4.1-0.5,6c-0.1,2,0,4,0,5.8c1.3,1.3,2.7,0.8,3.9,0.9c8.8,0,17.5,0,26.3,0c1.2,0,2.3,0,3.8,0c0,2.4,0.1,4.5,0.1,6.6
			c0,2.1-0.1,4.3-0.1,6.4C2434.5-199.4,2418.6-199.4,2402.8-199.4z"/>
		<path fill="#FFFFFF" d="M2268.5-199.4c0-1.1-0.1-2.1-0.1-3.2c0-18.9,0-37.9,0-56.8c0-0.9,0-1.9,0-2.7c2.6-0.8,40.6-1.1,47.6-0.4
			c0.2,3.9,0.2,7.8,0,12.1c-11.3,0-22.2,0-33.5,0c-0.7,4.2-0.1,8.2-0.4,12.5c10,0.3,19.7,0,29.6,0.2c0,4.2,0,8.2,0,12.6
			c-9.8,0.3-19.5,0-29.4,0.2c-0.2,4.3-0.2,8.2-0.1,12.6c11.4,0.2,22.5,0,33.9,0.1c0,2.3,0.1,4.4,0.1,6.5c0,2.1-0.1,4.3-0.1,6.4
			C2300.3-199.4,2284.4-199.4,2268.5-199.4z"/>
		<path fill="#FFFFFF" d="M2352.4-199.4c0-1.5-0.1-3.1-0.1-4.6c0-14,0-27.9,0-41.9c0-1.2,0-2.3,0-3.8c-6.4,0-12.5,0-19,0
			c0-2.4-0.1-4.5-0.1-6.5c0-2,0-4,0-5.7c0.3-0.4,0.4-0.5,0.5-0.5c0.1-0.1,0.2-0.2,0.3-0.2c16,0,32-0.1,47.9-0.1c0.9,0,1.9,0,2.8,0.1
			c0.2,0,0.4,0.2,0.8,0.4c0,3.9,0,7.8,0,12.3c-3.1,0.4-6.2,0.1-9.4,0.2c-3.1,0-6.1,0-9.5,0c-0.1,1.5-0.1,2.8-0.1,4
			c0,14.1,0,28.2,0,42.3c0,1.4-0.4,2.8-0.6,4.1C2361.3-199.4,2356.8-199.4,2352.4-199.4z"/>
		<path fill="#CC0000" d="M2517.8-199.4c-2-2.3-3.9-4.7-6-6.9c-4-4.4-8.1-8.6-12.1-13c-7.3-7.9-14.5-15.8-21.8-23.7
			c-3.4-3.7-6.7-7.3-10.1-10.9c-4.3-4.6-8.6-9.1-12.8-13.7c-0.3-0.3-0.5-0.6-0.5-1.3c0.4,0.2,0.7,0.4,1.1,0.7
			c4,3.7,7.9,7.4,11.9,11.1c8.3,7.7,16.7,15.3,25,23c3.3,3,6.6,6.1,9.9,9.2c4.9,4.6,9.8,9.2,14.8,13.8c1.4,1.3,2.7,2.6,4.3,3.7
			c3,2.1,3.5,4.8,2.1,8C2521.6-199.4,2519.7-199.4,2517.8-199.4z"/>
		<path fill="#CC0000" d="M2504.3-199.4c-2.5-2.8-4.9-5.7-7.5-8.4c-4.3-4.7-8.7-9.3-13.1-14c-6.5-7-13-14-19.5-21.1
			c-0.1-0.2-0.2-0.4-0.6-1.3c1,0.8,1.6,1.1,2.1,1.6c7.2,6.7,14.3,13.4,21.5,20c6.7,6.2,13.4,12.3,20.1,18.4c1.7,1.5,1.3,3.1,0.4,4.8
			C2506.7-199.4,2505.5-199.4,2504.3-199.4z"/>
		<path fill="#CC0000" d="M2450.3-293.1c3.9,3.7,7.8,7.5,11.7,11.2c8.7,8.2,17.3,16.4,26,24.5c8,7.5,16,15,24,22.6
			c7.7,7.2,15.3,14.4,23,21.6c0.8,0.8,1.7,1.7,2.1,2.8c0.7,2.1-0.2,3.8-2,4.7c-1.6,0.8-3.5,0.3-5.1-1.3c-2.7-2.9-5.4-5.9-8.2-8.8
			c-8.5-9-17-18-25.5-27c-6.9-7.3-13.7-14.6-20.6-22c-8.3-8.9-16.7-17.7-25-26.5c-0.3-0.3-0.6-0.7-0.8-1.1
			C2449.9-292.7,2450.1-292.9,2450.3-293.1z"/>
		<path fill="#CC0000" d="M2473.4-288.5c0.3,0.2,0.5,0.3,0.8,0.5c4.7,4.4,9.5,8.9,14.2,13.3c10.1,9.4,20.3,18.8,30.4,28.2
			c5.6,5.1,11.1,10.2,16.7,15.3c1.9,1.8,3.9,3.5,5.8,5.2c0.6,0.6,1.2,1.1,1.7,1.8c1.5,2,1.3,3.8-0.4,5.3c-1.5,1.4-3.8,1.4-5.4-0.1
			c-1.5-1.4-2.8-2.9-4.2-4.3c-0.7-0.8-1.3-1.6-2.1-2.4c-7.5-8-15-16.1-22.5-24.1c-5.6-6.1-11.2-12.2-16.8-18.2
			c-5.9-6.3-11.7-12.7-17.6-19c-0.4-0.4-0.6-0.8-0.9-1.3C2473.3-288.3,2473.3-288.4,2473.4-288.5z"/>
		<path fill="#CC0000" d="M2502.1-276.1c0.4,0.3,0.8,0.5,1.1,0.8c4.3,4,8.6,8.1,12.9,12.1c8.5,7.9,17,15.7,25.5,23.5
			c1,1,2.1,1.9,3,3c1,1.2,1.1,2.9,0.3,3.9c-0.9,1-2.9,1.1-4.1-0.1c-1.5-1.5-2.8-3.2-4.3-4.7c-4.7-5-9.4-10-14.1-15
			c-6.4-6.9-12.9-13.8-19.3-20.8c-0.6-0.7-1.1-1.5-1.6-2.2C2501.8-275.8,2502-276,2502.1-276.1z"/>
		<path fill="#CC0000" d="M2541.9-250.6c-0.5,1.4-1.3,1.8-2.5,1.1c-0.6-0.4-1.1-0.9-1.6-1.4c-5.4-5.9-10.8-11.8-16-18.1
			c0.3,0.2,0.8,0.3,1,0.5c6.1,5.6,12.2,11.2,18.2,16.8C2541.4-251.3,2541.6-250.9,2541.9-250.6z"/>
		<path fill="#CC0000" d="M2473.9-222.9c0.7,0.6,1.4,1.3,2.1,1.9c5.3,4.9,10.6,9.8,15.9,14.6c0.3,0.2,0.6,0.5,0.7,0.8
			c0.2,0.4,0.4,1.1,0.2,1.3c-0.4,0.4-1.1,0.7-1.5,0.6c-0.7-0.2-1.5-0.8-2-1.3c-1.5-1.6-3-3.4-4.5-5c-3.6-3.9-7.2-7.8-10.8-11.7
			c-0.2-0.2-0.3-0.5-0.5-0.8C2473.6-222.6,2473.7-222.7,2473.9-222.9z"/>
	</g>
	<g>
		<path fill-rule="evenodd" clip-rule="evenodd" fill="#FFFFFF" d="M2243.3,13.5c0-1.1-0.6-2.1-1.5-2.6l-24.6-14.2
			c-0.4-0.2-0.9-0.4-1.4-0.4c0,0-0.2,0-0.3,0c-0.5,0-0.9,0.1-1.4,0.4l-24.6,14.2c-0.9,0.5-1.5,1.5-1.5,2.6l0.1,38.1
			c0,0.5,0.3,1,0.7,1.3c0.5,0.3,1,0.3,1.5,0l14.6-8.4c0.9-0.5,1.5-1.5,1.5-2.6V24.2c0-1.1,0.6-2,1.5-2.6l6.2-3.6
			c0.5-0.3,1-0.4,1.5-0.4c0.5,0,1,0.1,1.5,0.4l6.2,3.6c0.9,0.5,1.5,1.5,1.5,2.6V42c0,1.1,0.6,2,1.5,2.6l14.6,8.4
			c0.5,0.3,1,0.3,1.5,0c0.5-0.3,0.7-0.8,0.7-1.3L2243.3,13.5z"/>
		<path fill-rule="evenodd" clip-rule="evenodd" fill="#FFFFFF" d="M2374.7-38.9c-0.5-0.3-1-0.3-1.5,0c-0.5,0.3-0.7,0.8-0.7,1.3V0.2
			c0,0.4-0.2,0.7-0.5,0.9c-0.3,0.2-0.7,0.2-1,0l-6.2-3.6c-0.9-0.5-2.1-0.5-3,0l-24.6,14.2c-0.9,0.5-1.5,1.5-1.5,2.6v28.4
			c0,1.1,0.6,2,1.5,2.6l24.6,14.2c0.9,0.5,2.1,0.5,3,0l24.6-14.2c0.9-0.5,1.5-1.5,1.5-2.6v-70.8c0-1.1-0.6-2.1-1.5-2.6L2374.7-38.9z
			 M2372.4,33.4c0,0.3-0.1,0.5-0.4,0.6l-8.5,4.9c-0.2,0.1-0.5,0.1-0.7,0l-8.5-4.9c-0.2-0.1-0.4-0.4-0.4-0.6v-9.8
			c0-0.3,0.1-0.5,0.4-0.6l8.5-4.9c0.2-0.1,0.5-0.1,0.7,0l8.5,4.9c0.2,0.1,0.4,0.4,0.4,0.6V33.4z"/>
		<path fill-rule="evenodd" clip-rule="evenodd" fill="#FFFFFF" d="M2462.7,23.3c0.9-0.5,1.5-1.5,1.5-2.6v-6.9c0-1.1-0.6-2-1.5-2.6
			l-24.5-14.2c-0.9-0.5-2.1-0.5-3,0l-24.6,14.2c-0.9,0.5-1.5,1.5-1.5,2.6v28.4c0,1.1,0.6,2.1,1.5,2.6l24.5,13.9c0.9,0.5,2,0.5,2.9,0
			l14.8-8.2c0.5-0.3,0.8-0.8,0.8-1.3c0-0.5-0.3-1-0.7-1.3l-24.8-14.2c-0.5-0.3-0.7-0.8-0.7-1.3v-8.9c0-0.5,0.3-1,0.7-1.3l7.7-4.4
			c0.5-0.3,1-0.3,1.5,0l7.7,4.4c0.5,0.3,0.7,0.8,0.7,1.3v7c0,0.5,0.3,1,0.7,1.3c0.5,0.3,1,0.3,1.5,0L2462.7,23.3z"/>
		<path fill-rule="evenodd" clip-rule="evenodd" fill="#80BD01" d="M2288-3c0.9-0.5,2.1-0.5,3,0l24.6,14.2c0.9,0.5,1.5,1.5,1.5,2.6
			v28.4c0,1.1-0.6,2-1.5,2.6L2291,59c-0.9,0.5-2.1,0.5-3,0l-24.6-14.2c-0.9-0.5-1.5-1.5-1.5-2.6V13.7c0-1.1,0.6-2,1.5-2.6L2288-3z"
			/>
		<path fill="#80BD01" d="M2510.5,59.4c-0.8,0-1.7-0.2-2.4-0.7l-7.7-4.6c-1.2-0.6-0.6-0.9-0.2-1c1.5-0.5,1.9-0.7,3.5-1.6
			c0.2-0.1,0.4-0.1,0.6,0l6,3.5c0.2,0.1,0.5,0.1,0.7,0l23.2-13.4c0.2-0.1,0.4-0.4,0.4-0.6V14.3c0-0.3-0.1-0.5-0.4-0.6l-23.2-13.4
			c-0.2-0.1-0.5-0.1-0.7,0L2487,13.7c-0.2,0.1-0.4,0.4-0.4,0.6v26.8c0,0.3,0.1,0.5,0.4,0.6l6.4,3.7c3.4,1.7,5.6-0.3,5.6-2.3V16.6
			c0-0.4,0.3-0.7,0.7-0.7h2.9c0.4,0,0.7,0.3,0.7,0.7V43c0,4.6-2.5,7.2-6.9,7.2c-1.3,0-2.4,0-5.3-1.5l-6.1-3.5
			c-1.5-0.9-2.4-2.5-2.4-4.2V14.3c0-1.7,0.9-3.4,2.4-4.2l23.2-13.4c1.5-0.8,3.4-0.8,4.9,0l23.2,13.4c1.5,0.9,2.4,2.5,2.4,4.2v26.8
			c0,1.7-0.9,3.4-2.4,4.2L2513,58.7C2512.2,59.1,2511.4,59.4,2510.5,59.4z"/>
		<path fill="#80BD01" d="M2517.7,40.9c-10.2,0-12.3-4.7-12.3-8.6c0-0.4,0.3-0.7,0.7-0.7h3c0.3,0,0.6,0.2,0.7,0.6
			c0.5,3.1,1.8,4.6,7.9,4.6c4.9,0,7-1.1,7-3.7c0-1.5-0.6-2.6-8.2-3.3c-6.3-0.6-10.3-2-10.3-7.1c0-4.7,3.9-7.5,10.6-7.5
			c7.4,0,11.1,2.6,11.6,8.1c0,0.2-0.1,0.4-0.2,0.5c-0.1,0.1-0.3,0.2-0.5,0.2h-3c-0.3,0-0.6-0.2-0.7-0.5c-0.7-3.2-2.5-4.2-7.2-4.2
			c-5.3,0-6,1.9-6,3.3c0,1.7,0.7,2.2,7.9,3.1c7.1,0.9,10.5,2.3,10.5,7.3C2529.3,38,2525,40.9,2517.7,40.9z"/>
		<path fill-rule="evenodd" clip-rule="evenodd" fill="#80BD01" d="M2436.4,22c0.2-0.1,0.4-0.1,0.6,0l4.7,2.7
			c0.2,0.1,0.3,0.3,0.3,0.5v5.5c0,0.2-0.1,0.4-0.3,0.5l-4.7,2.7c-0.2,0.1-0.4,0.1-0.6,0l-4.7-2.7c-0.2-0.1-0.3-0.3-0.3-0.5v-5.5
			c0-0.2,0.1-0.4,0.3-0.5L2436.4,22z"/>
		<g>
			<path fill="#80BD01" d="M2554.7,3.9c0,2.5-2,4.5-4.5,4.5c-2.4,0-4.5-2-4.5-4.5c0-2.5,2.1-4.5,4.5-4.5
				C2552.6-0.6,2554.7,1.4,2554.7,3.9z M2546.4,3.9c0,2.1,1.7,3.8,3.7,3.8c2.1,0,3.8-1.7,3.8-3.8c0-2.1-1.7-3.7-3.8-3.7
				C2548.2,0.2,2546.4,1.8,2546.4,3.9z M2548.5,1.4h1.7c0.6,0,1.8,0,1.8,1.3c0,0.9-0.6,1.1-0.9,1.2c0.7,0,0.7,0.5,0.8,1.1
				c0,0.4,0.1,1.1,0.3,1.3h-1.1c0-0.2-0.2-1.5-0.2-1.6c-0.1-0.3-0.2-0.4-0.5-0.4h-0.9v2h-1V1.4z M2549.5,3.6h0.8
				c0.6,0,0.8-0.4,0.8-0.7c0-0.7-0.5-0.7-0.7-0.7h-0.8V3.6z"/>
		</g>
	</g>
	<rect x="2188.1" y="-164.7" fill="none" width="547" height="104"/>
	<text transform="matrix(1 0 0 1 2188.1306 -154.0001)"><tspan x="0" y="0" fill="#FFFFFF" font-family="'MyriadPro-Regular'" font-size="15">lBacon ipsum dolor amet biltong alcatra turducken flank sausage, salami spare ribs </tspan><tspan x="0" y="24" fill="#FFFFFF" font-family="'MyriadPro-Regular'" font-size="15">turkey shankle filet mignon pork chop tail t-bone. Chuck ham sausage boudin jowl </tspan><tspan x="0" y="48" fill="#FFFFFF" font-family="'MyriadPro-Regular'" font-size="15">leberkas meatloaf biltong capicola meatball bacon swine pig shank cupim. </tspan></text>
	<rect x="2188.1" y="95.5" fill="none" width="547" height="104"/>
	<text transform="matrix(1 0 0 1 2188.1306 106.1083)"><tspan x="0" y="0" fill="#FFFFFF" font-family="'MyriadPro-Regular'" font-size="15">lBacon ipsum dolor amet biltong alcatra turducken flank sausage, salami spare ribs </tspan><tspan x="0" y="24" fill="#FFFFFF" font-family="'MyriadPro-Regular'" font-size="15">turkey shankle filet mignon pork chop tail t-bone. Chuck ham sausage boudin jowl </tspan><tspan x="0" y="48" fill="#FFFFFF" font-family="'MyriadPro-Regular'" font-size="15">leberkas meatloaf.</tspan></text>
	<g>
		<path fill="#FFFFFF" d="M2999-261.7c8.8,0,12.5,4.8,12.1,10.7c-0.2,7.1-7.1,11.3-13.6,11.3c-4,0-5.6-1.6-6-2.9
			c-0.2-0.7-1-0.5-1,0.1c-0.1,3.6,1.9,8.1,8.2,8.1c4.8,0,8.6-2.7,8.6-2.7c1.3,1.3,1.8,2.7,1.7,4.3c-0.2,3.4-4.8,6.4-12.1,6.4
			c-11.6,0-15.9-8-15.4-16.5C2982.1-253.8,2989-261.7,2999-261.7 M2995.3-245.9c3.6,0,6.9-1.4,6.9-4.6c0.1-2-1.4-3.5-4-3.5
			c-4.2,0-6.4,3.3-7,6.2c-0.1,0.5-0.2,1.2-0.2,1.2C2991.4-246.5,2992.8-245.9,2995.3-245.9"/>
		<path fill="#FFFFFF" d="M3030-261.7c8.8,0,12.5,4.8,12.1,10.7c-0.2,7.1-7.1,11.3-13.6,11.3c-4,0-5.6-1.6-6-2.9
			c-0.2-0.7-1-0.5-1,0.1c-0.1,3.6,1.9,8.1,8.2,8.1c4.8,0,8.6-2.7,8.6-2.7c1.3,1.3,1.8,2.7,1.7,4.3c-0.2,3.4-4.8,6.4-12.1,6.4
			c-11.6,0-15.9-8-15.4-16.5C3013.1-253.8,3020-261.7,3030-261.7 M3026.3-245.9c3.6,0,6.9-1.4,6.9-4.6c0.1-2-1.4-3.5-4-3.5
			c-4.2,0-6.4,3.3-7,6.2c-0.1,0.5-0.2,1.2-0.2,1.2C3022.4-246.5,3023.8-245.9,3026.3-245.9"/>
		<path fill="#FFFFFF" d="M3047.3-253.2c-4.4,0-4-2.4-4-3.8c0-1.4,1.4-3.2,2.8-3.5c4-0.8,4.1-4,4.7-5.8c0.4-1.1,0.9-1.5,2-1.5h3.1
			c1.3,0,2.2,0.9,2,2.5c-0.2,1.6-0.4,3.2-0.6,4.2c1.3,0.1,1,0,3.1,0c3.1,0,4.3,1.6,4.3,4.2c0,1.4-1.4,3.6-4.5,3.6h-3.9
			c-0.7,5-1.7,11.7-2.1,15.4c-0.2,2.6,0.9,3.2,2.7,3.2c1.3,0.1,3.3-1,4-1.5c2.7,3.2,2,9.8-6.8,9.8c-6.4,0-9.6-4.9-8.8-11.3
			C3045.6-241.1,3047.3-253.2,3047.3-253.2"/>
		<path fill="#FFFFFF" d="M2978.9-269.1h-0.2h-2.5h-7.5c-1.2,0-4.9,0.4-5.2,4.1c-0.2,3.4,1.5,4.9,5.3,4.9c2,0,4-1.4,4.9-2
			c1-0.6,1.6,0.2,0.9,0.8c-1.4,1.2-2.7,2.5-3.4,6.8l-2.1,12.6c-0.6,4.3-2.5,6.3-5.6,6.3c-2.8,0-4.8-1.6-6.4-3.7
			c-3.3,1-5,5.6-2.6,8.6c1.1,1.4,3.4,4.1,9.1,4.1c6,0,12.8-2.9,14.5-14.4c0.8-5.6,3.1-20.4,3.5-23
			C2982-266.1,2982.4-269.1,2978.9-269.1"/>
		<g>
			<g>
				<defs>
					<path id="SVGID_1_" d="M2913.4-250c-0.1,0.9-0.3,1.7-0.5,2.5c-0.1,5.7-4.6,10.3-10.2,10.6c-1,0.3-2.1,0.6-3.1,0.7l-6.2,6.2
						l18.3,18.3l5.8-5.8c0.4-8,6.8-14.4,14.8-14.8l4.9-4.9l-18.3-18.3L2913.4-250z"/>
				</defs>
				<clipPath id="SVGID_2_">
					<use xlink:href="#SVGID_1_"  overflow="visible"/>
				</clipPath>
				
					<linearGradient id="SVGID_3_" gradientUnits="userSpaceOnUse" x1="-259.7192" y1="-123.2409" x2="-259.2703" y2="-123.2409" gradientTransform="matrix(-29 33.5 -33.5 -29 -8738.7207 4885.5273)">
					<stop  offset="0" style="stop-color:#09E09C"/>
					<stop  offset="1" style="stop-color:#00BFFF"/>
				</linearGradient>
				<polygon clip-path="url(#SVGID_2_)" fill="url(#SVGID_3_)" points="2958.7,-236.7 2918.3,-190 2871.7,-230.4 2912.1,-277.1 				
					"/>
			</g>
		</g>
		<g>
			<g>
				<defs>
					<path id="SVGID_4_" d="M2867.3-237.7l5.4,5.4c7.3,0.8,13,6.6,13.8,13.8l6.2,6.2l18.3-18.3l-5.8-5.8c-1.1-0.1-2.2-0.3-3.3-0.5
						c-5.7,0-10.4-4.5-10.7-10.2c-0.4-1.3-0.7-2.7-0.8-4.1l-4.9-4.9L2867.3-237.7z"/>
				</defs>
				<clipPath id="SVGID_5_">
					<use xlink:href="#SVGID_4_"  overflow="visible"/>
				</clipPath>
				
					<linearGradient id="SVGID_6_" gradientUnits="userSpaceOnUse" x1="-169.0643" y1="-129.4857" x2="-168.6153" y2="-129.4857" gradientTransform="matrix(29.5 31 -31 29.5 3855.9934 8819.8525)">
					<stop  offset="0" style="stop-color:#FFC800"/>
					<stop  offset="1" style="stop-color:#00BFFF"/>
				</linearGradient>
				<polygon clip-path="url(#SVGID_5_)" fill="url(#SVGID_6_)" points="2890.3,-277.9 2932.9,-233 2888.1,-190.4 2845.4,-235.2 				
					"/>
			</g>
		</g>
		<g>
			<g>
				<defs>
					<path id="SVGID_7_" d="M2886.7-277.6c-0.4,8-6.8,14.4-14.8,14.8l-4.9,4.9l18.3,18.3l5.4-5.4c0.1-0.8,0.3-1.7,0.5-2.5
						c0-0.1,0-0.1,0-0.2c0-6,4.9-10.8,10.8-10.8c0.2,0,0.4,0,0.5,0c0.6-0.2,1.3-0.3,2-0.4l6.2-6.2l-18.3-18.3L2886.7-277.6z"/>
				</defs>
				<clipPath id="SVGID_8_">
					<use xlink:href="#SVGID_7_"  overflow="visible"/>
				</clipPath>
				
					<linearGradient id="SVGID_9_" gradientUnits="userSpaceOnUse" x1="-160.4129" y1="-28.2871" x2="-159.964" y2="-28.2871" gradientTransform="matrix(29 -29.5 29.5 29 8368.5645 -4166.4868)">
					<stop  offset="0" style="stop-color:#FFC800"/>
					<stop  offset="1" style="stop-color:#FF664A"/>
				</linearGradient>
				<polygon clip-path="url(#SVGID_8_)" fill="url(#SVGID_9_)" points="2845.1,-261.1 2888.5,-305.3 2932.6,-261.9 2889.3,-217.8 
									"/>
			</g>
		</g>
		<g>
			<g>
				<defs>
					<path id="SVGID_10_" d="M2892.7-264.6l5.8,5.8c0.8,0,1.5,0.1,2.2,0.3c0.4,0,0.8-0.1,1.3-0.1c6,0,10.8,4.9,10.8,10.8
						c0,0.2,0,0.5,0,0.7c0.3,1,0.4,2,0.5,3.1l4.9,4.9l18.3-18.3l-5.4-5.4c-7.3-0.8-13-6.6-13.8-13.8l-6.2-6.2L2892.7-264.6z"/>
				</defs>
				<clipPath id="SVGID_11_">
					<use xlink:href="#SVGID_10_"  overflow="visible"/>
				</clipPath>
				
					<linearGradient id="SVGID_12_" gradientUnits="userSpaceOnUse" x1="-254.3848" y1="-31.641" x2="-253.9358" y2="-31.641" gradientTransform="matrix(-34.5 -33.5 33.5 -34.5 -4793.3677 -9866.3809)">
					<stop  offset="0" style="stop-color:#09E09C"/>
					<stop  offset="1" style="stop-color:#FF664A"/>
				</linearGradient>
				<polygon clip-path="url(#SVGID_11_)" fill="url(#SVGID_12_)" points="2915.3,-217.2 2870.9,-260.3 2914,-304.7 2958.4,-261.6 
									"/>
			</g>
		</g>
		<path fill="#FFC800" d="M2875.1-232c-8.7,0-15.7-7-15.7-15.7c0-8.7,7-15.7,15.7-15.7s15.7,7,15.7,15.7
			C2890.8-239,2883.8-232,2875.1-232"/>
		<path fill="#FF664A" d="M2901.6-258.5c-8.7,0-15.7-7-15.7-15.7c0-8.7,7-15.7,15.7-15.7c8.7,0,15.7,7,15.7,15.7
			C2917.4-265.6,2910.3-258.5,2901.6-258.5"/>
		<path fill="#00BFFF" d="M2902-205.1c-8.7,0-15.7-7-15.7-15.7c0-8.7,7-15.7,15.7-15.7c8.7,0,15.7,7,15.7,15.7
			C2917.8-212.2,2910.7-205.1,2902-205.1"/>
		<path fill="#09E09C" d="M2928.8-231.4c-8.7,0-15.7-7-15.7-15.7c0-8.7,7-15.7,15.7-15.7c8.7,0,15.7,7,15.7,15.7
			C2944.6-238.5,2937.5-231.4,2928.8-231.4"/>
	</g>
	<g>
		<g>
			<path fill-rule="evenodd" clip-rule="evenodd" fill="#FFFFFF" d="M2929,271.3c13.1-8.4,27.9-2.4,35.2,1.7
				C2954,269,2939,268,2929,271.3z"/>
			<path fill-rule="evenodd" clip-rule="evenodd" fill="#FFFFFF" d="M2951.9,232.9c6.3,0,11.7,3.7,14.1,9h-4.9
				c-2.2-2.7-5.5-4.4-9.2-4.4c-3.7,0-7,1.7-9.1,4.3c0.1-0.1,0.2-0.2,0.4-0.3c5.1-3.7,12,0.4,12,0.4s-6.5-1.9-10.9,1.2
				c-4.4,3.1-3.7,9.3-3.7,9.3s0-0.1-0.1-0.2c0,0.1,0,0.1,0.1,0.2c-1.1-0.8-2.3-1.3-3.7-1.4c-0.2-0.9-0.3-1.8-0.3-2.8
				C2936.5,239.7,2943.4,232.9,2951.9,232.9L2951.9,232.9z M2932.1,267.8v-1.3c4.1-3,11.6-6.9,20.6-4.1c13.7,4.3,22.5,10.2,33.1,7.5
				c10.6-2.6,11.5-8.4,11.5-8.4s-1.9,8.2-12.3,10c-10.5,1.8-20.1-0.2-32.3-4.8C2944.5,263.6,2936.5,265.9,2932.1,267.8L2932.1,267.8
				z M2932.1,265.1c0.8-0.5,1.5-1,2.2-1.4c-0.3-0.2-0.7-0.5-1-0.8c-0.5-0.5-1-1.1-1.3-1.7v2.8l0.1,0.1c0.1,0.1,0.3,0.2,0.4,0.4
				c-0.2-0.1-0.3-0.2-0.5-0.3V265.1L2932.1,265.1z M2932.1,251.9v-4.9c1-0.3,2.1-0.5,3.2-0.6c-0.1,0.6-0.1,1.1-0.1,1.7
				c0,1,0.1,1.9,0.2,2.8C2934.3,251,2933.1,251.3,2932.1,251.9z M2932.1,247.1v4.9c-2.2,1.2-3.6,3.5-3.6,6.2c0,2.6,1.4,4.9,3.6,6.2
				v0.9c-0.9,0.6-1.7,1.2-2.4,1.7c-3.1-2-5.1-5.4-5.1-9.3C2924.6,252.7,2927.7,248.6,2932.1,247.1L2932.1,247.1z M2932.1,261.2
				c-1.4-2.7-0.9-5.7-0.9-5.7s-2.3,5.3,0.9,8.5V261.2L2932.1,261.2z M2932.1,266.4c-2.1,1.6-3.3,2.9-3.3,2.9c0,0.1,1.2-0.7,3.3-1.6
				V266.4z"/>
			<path fill-rule="evenodd" clip-rule="evenodd" fill="#FFFFFF" d="M2966.7,264.4c0,0,6.6,3.4,12.7,2.8s8-2.7,8-2.7
				s-2.3,4.2-8.2,4.4C2973.3,269.1,2966.7,264.5,2966.7,264.4z"/>
			<rect x="2961.6" y="243.2" fill-rule="evenodd" clip-rule="evenodd" fill="#FFFFFF" width="5.5" height="5.5"/>
			<rect x="2983.5" y="258.4" fill-rule="evenodd" clip-rule="evenodd" fill="#FFFFFF" width="4.3" height="4.3"/>
			<rect x="2968.3" y="238.1" fill-rule="evenodd" clip-rule="evenodd" fill="#FFFFFF" width="7.3" height="7.3"/>
			<rect x="2989.6" y="250.8" fill-rule="evenodd" clip-rule="evenodd" fill="#FFFFFF" width="7.3" height="7.3"/>
			<rect x="2976.3" y="246" fill-rule="evenodd" clip-rule="evenodd" fill="#FFFFFF" width="4.1" height="4.1"/>
			<rect x="2979.1" y="254.1" fill-rule="evenodd" clip-rule="evenodd" fill="#FFFFFF" width="4.1" height="4.1"/>
			<rect x="2970.5" y="254.5" fill-rule="evenodd" clip-rule="evenodd" fill="#FFFFFF" width="4.1" height="4.1"/>
			<rect x="2984.8" y="246.2" fill-rule="evenodd" clip-rule="evenodd" fill="#FFFFFF" width="4.1" height="4.1"/>
		</g>
		<g>
			<path fill="#FFFFFF" d="M2924.1,290.1c0,1-0.2,2-0.5,2.8s-0.8,1.6-1.4,2.2c-0.6,0.6-1.4,1.1-2.2,1.4c-0.9,0.3-1.8,0.5-2.9,0.5
				h-5.3v-13.9h5.3c1.1,0,2,0.2,2.9,0.5c0.9,0.3,1.6,0.8,2.2,1.4c0.6,0.6,1.1,1.3,1.4,2.2C2923.9,288.2,2924.1,289.1,2924.1,290.1z
				 M2921.4,290.1c0-0.8-0.1-1.5-0.3-2.1c-0.2-0.6-0.5-1.1-0.9-1.5c-0.4-0.4-0.8-0.7-1.4-1c-0.5-0.2-1.2-0.3-1.8-0.3h-2.7v9.8h2.7
				c0.7,0,1.3-0.1,1.8-0.3c0.5-0.2,1-0.5,1.4-1c0.4-0.4,0.7-0.9,0.9-1.5C2921.3,291.6,2921.4,290.9,2921.4,290.1z"/>
			<path fill="#FFFFFF" d="M2927.9,284.3c0,0.2,0,0.4-0.1,0.6c-0.1,0.2-0.2,0.3-0.3,0.5c-0.1,0.1-0.3,0.2-0.5,0.3
				c-0.2,0.1-0.4,0.1-0.6,0.1c-0.2,0-0.4,0-0.6-0.1c-0.2-0.1-0.3-0.2-0.5-0.3c-0.1-0.1-0.2-0.3-0.3-0.5c-0.1-0.2-0.1-0.4-0.1-0.6
				c0-0.2,0-0.4,0.1-0.6c0.1-0.2,0.2-0.3,0.3-0.5c0.1-0.1,0.3-0.2,0.5-0.3c0.2-0.1,0.4-0.1,0.6-0.1c0.2,0,0.4,0,0.6,0.1
				c0.2,0.1,0.3,0.2,0.5,0.3c0.1,0.1,0.2,0.3,0.3,0.5C2927.9,283.9,2927.9,284.1,2927.9,284.3z M2927.6,287.2v9.9h-2.4v-9.9H2927.6z
				"/>
			<path fill="#FFFFFF" d="M2932.7,287c0.4,0,0.8,0,1.2,0.1c0.4,0.1,0.7,0.2,1,0.4h2.8v0.9c0,0.1,0,0.3-0.1,0.3
				c-0.1,0.1-0.2,0.1-0.4,0.2l-0.9,0.2c0.1,0.2,0.1,0.3,0.1,0.5c0,0.2,0.1,0.4,0.1,0.6c0,0.5-0.1,0.9-0.3,1.3
				c-0.2,0.4-0.5,0.7-0.8,1c-0.3,0.3-0.8,0.5-1.2,0.6c-0.5,0.2-1,0.2-1.5,0.2c-0.4,0-0.7,0-1.1-0.1c-0.3,0.2-0.5,0.4-0.5,0.6
				c0,0.2,0.1,0.3,0.3,0.4c0.2,0.1,0.4,0.2,0.7,0.2c0.3,0,0.6,0.1,1,0.1c0.4,0,0.8,0,1.2,0c0.4,0,0.8,0.1,1.2,0.2
				c0.4,0.1,0.7,0.2,1,0.4s0.5,0.4,0.7,0.7c0.2,0.3,0.3,0.7,0.3,1.2c0,0.4-0.1,0.9-0.3,1.3c-0.2,0.4-0.5,0.8-0.9,1.1
				c-0.4,0.3-0.9,0.6-1.5,0.8c-0.6,0.2-1.3,0.3-2,0.3c-0.8,0-1.4-0.1-2-0.2c-0.6-0.1-1-0.3-1.4-0.6c-0.4-0.2-0.6-0.5-0.8-0.8
				c-0.2-0.3-0.3-0.6-0.3-1c0-0.5,0.1-0.9,0.4-1.2c0.3-0.3,0.7-0.6,1.2-0.8c-0.2-0.1-0.4-0.3-0.6-0.5c-0.1-0.2-0.2-0.5-0.2-0.9
				c0-0.1,0-0.3,0.1-0.5c0.1-0.2,0.1-0.3,0.2-0.5c0.1-0.2,0.2-0.3,0.4-0.4c0.2-0.1,0.4-0.3,0.6-0.4c-0.5-0.3-0.9-0.6-1.2-1.1
				c-0.3-0.4-0.4-1-0.4-1.6c0-0.5,0.1-0.9,0.3-1.3c0.2-0.4,0.5-0.7,0.8-1c0.4-0.3,0.8-0.5,1.2-0.6
				C2931.6,287.1,2932.1,287,2932.7,287z M2935.3,297.5c0-0.2-0.1-0.4-0.2-0.5c-0.1-0.1-0.3-0.2-0.5-0.3c-0.2-0.1-0.4-0.1-0.7-0.2
				c-0.3,0-0.5,0-0.8,0s-0.6,0-0.9,0s-0.6,0-0.9-0.1c-0.3,0.1-0.5,0.3-0.7,0.5c-0.2,0.2-0.2,0.4-0.2,0.7c0,0.2,0,0.3,0.1,0.5
				s0.2,0.3,0.4,0.4c0.2,0.1,0.4,0.2,0.7,0.3c0.3,0.1,0.7,0.1,1.1,0.1c0.4,0,0.8,0,1.1-0.1c0.3-0.1,0.6-0.2,0.8-0.3
				c0.2-0.1,0.4-0.3,0.5-0.4C2935.3,297.9,2935.3,297.7,2935.3,297.5z M2932.7,291.9c0.3,0,0.6,0,0.8-0.1s0.4-0.2,0.5-0.3
				c0.1-0.1,0.3-0.3,0.3-0.5c0.1-0.2,0.1-0.4,0.1-0.7c0-0.5-0.1-0.9-0.4-1.2c-0.3-0.3-0.7-0.4-1.3-0.4s-1,0.1-1.3,0.4
				c-0.3,0.3-0.4,0.7-0.4,1.2c0,0.2,0,0.4,0.1,0.6c0.1,0.2,0.2,0.4,0.3,0.5c0.1,0.1,0.3,0.3,0.6,0.3S2932.4,291.9,2932.7,291.9z"/>
			<path fill="#FFFFFF" d="M2941.2,284.3c0,0.2,0,0.4-0.1,0.6c-0.1,0.2-0.2,0.3-0.3,0.5c-0.1,0.1-0.3,0.2-0.5,0.3
				c-0.2,0.1-0.4,0.1-0.6,0.1c-0.2,0-0.4,0-0.6-0.1c-0.2-0.1-0.3-0.2-0.5-0.3c-0.1-0.1-0.2-0.3-0.3-0.5c-0.1-0.2-0.1-0.4-0.1-0.6
				c0-0.2,0-0.4,0.1-0.6c0.1-0.2,0.2-0.3,0.3-0.5c0.1-0.1,0.3-0.2,0.5-0.3c0.2-0.1,0.4-0.1,0.6-0.1c0.2,0,0.4,0,0.6,0.1
				c0.2,0.1,0.3,0.2,0.5,0.3c0.1,0.1,0.2,0.3,0.3,0.5C2941.2,283.9,2941.2,284.1,2941.2,284.3z M2940.8,287.2v9.9h-2.4v-9.9H2940.8z
				"/>
			<path fill="#FFFFFF" d="M2945.8,297.2c-0.9,0-1.5-0.2-2-0.7c-0.5-0.5-0.7-1.2-0.7-2V289h-1c-0.1,0-0.2,0-0.3-0.1
				c-0.1-0.1-0.1-0.2-0.1-0.4v-0.9l1.6-0.3l0.5-2.7c0-0.1,0.1-0.2,0.2-0.3c0.1-0.1,0.2-0.1,0.4-0.1h1.2v3.1h2.6v1.7h-2.6v5.4
				c0,0.3,0.1,0.5,0.2,0.7c0.2,0.2,0.4,0.3,0.6,0.3c0.1,0,0.3,0,0.4-0.1c0.1,0,0.2-0.1,0.3-0.1c0.1,0,0.1-0.1,0.2-0.1
				c0.1,0,0.1-0.1,0.2-0.1c0.1,0,0.1,0,0.2,0.1c0,0,0.1,0.1,0.1,0.2l0.7,1.2c-0.3,0.3-0.7,0.5-1.2,0.7
				C2946.8,297.2,2946.3,297.2,2945.8,297.2z"/>
			<path fill="#FFFFFF" d="M2956.8,297.1h-1.1c-0.2,0-0.4,0-0.5-0.1c-0.1-0.1-0.2-0.2-0.3-0.4l-0.2-0.7c-0.3,0.2-0.5,0.4-0.7,0.6
				c-0.2,0.2-0.5,0.3-0.7,0.4c-0.3,0.1-0.5,0.2-0.8,0.3c-0.3,0.1-0.6,0.1-1,0.1c-0.4,0-0.8-0.1-1.2-0.2c-0.4-0.1-0.7-0.3-0.9-0.5
				c-0.3-0.2-0.5-0.5-0.6-0.8c-0.1-0.3-0.2-0.7-0.2-1.2c0-0.4,0.1-0.7,0.3-1.1c0.2-0.4,0.5-0.7,1-1c0.5-0.3,1.1-0.5,1.8-0.7
				c0.8-0.2,1.7-0.3,2.8-0.3v-0.6c0-0.7-0.1-1.2-0.4-1.5c-0.3-0.3-0.7-0.5-1.2-0.5c-0.4,0-0.7,0-1,0.1c-0.3,0.1-0.5,0.2-0.7,0.3
				c-0.2,0.1-0.4,0.2-0.5,0.3c-0.2,0.1-0.3,0.1-0.5,0.1c-0.2,0-0.3,0-0.4-0.1c-0.1-0.1-0.2-0.2-0.3-0.3l-0.4-0.8
				c1.1-1,2.5-1.6,4.1-1.6c0.6,0,1.1,0.1,1.5,0.3c0.5,0.2,0.8,0.5,1.2,0.8c0.3,0.3,0.6,0.7,0.7,1.2c0.2,0.5,0.2,1,0.2,1.5V297.1z
				 M2952.2,295.6c0.2,0,0.5,0,0.7-0.1c0.2,0,0.4-0.1,0.6-0.2c0.2-0.1,0.4-0.2,0.5-0.3c0.2-0.1,0.3-0.3,0.5-0.5v-1.7
				c-0.7,0-1.3,0-1.7,0.1c-0.5,0.1-0.8,0.2-1.1,0.3c-0.3,0.1-0.5,0.3-0.6,0.5c-0.1,0.2-0.2,0.4-0.2,0.6c0,0.4,0.1,0.7,0.4,0.9
				C2951.5,295.5,2951.8,295.6,2952.2,295.6z"/>
			<path fill="#FFFFFF" d="M2960.7,282.8v14.3h-2.4v-14.3H2960.7z"/>
			<path fill="#FFFFFF" d="M2976,290.1c0,1-0.2,2-0.5,2.8c-0.3,0.9-0.8,1.6-1.4,2.3c-0.6,0.6-1.4,1.1-2.2,1.5
				c-0.9,0.4-1.8,0.5-2.9,0.5s-2-0.2-2.9-0.5s-1.6-0.9-2.2-1.5c-0.6-0.6-1.1-1.4-1.4-2.3c-0.3-0.9-0.5-1.8-0.5-2.8
				c0-1,0.2-2,0.5-2.8c0.3-0.9,0.8-1.6,1.4-2.3c0.6-0.6,1.4-1.1,2.2-1.5c0.9-0.4,1.8-0.5,2.9-0.5s2,0.2,2.9,0.5
				c0.9,0.4,1.6,0.9,2.2,1.5c0.6,0.6,1.1,1.4,1.4,2.3C2975.8,288.1,2976,289.1,2976,290.1z M2973.3,290.1c0-0.8-0.1-1.5-0.3-2.1
				c-0.2-0.6-0.5-1.1-0.9-1.5c-0.4-0.4-0.8-0.7-1.4-1c-0.5-0.2-1.2-0.3-1.8-0.3s-1.3,0.1-1.8,0.3c-0.5,0.2-1,0.5-1.4,1
				c-0.4,0.4-0.7,0.9-0.9,1.5c-0.2,0.6-0.3,1.3-0.3,2.1c0,0.8,0.1,1.5,0.3,2.1c0.2,0.6,0.5,1.1,0.9,1.5c0.4,0.4,0.8,0.7,1.4,1
				c0.5,0.2,1.2,0.3,1.8,0.3s1.3-0.1,1.8-0.3c0.5-0.2,1-0.5,1.4-1c0.4-0.4,0.7-0.9,0.9-1.5C2973.2,291.6,2973.3,290.9,2973.3,290.1z
				"/>
			<path fill="#FFFFFF" d="M2983.9,289.3c-0.1,0.1-0.1,0.2-0.2,0.2c-0.1,0.1-0.2,0.1-0.3,0.1c-0.1,0-0.2,0-0.4-0.1
				c-0.1-0.1-0.3-0.2-0.4-0.3c-0.2-0.1-0.4-0.2-0.6-0.3c-0.2-0.1-0.5-0.1-0.8-0.1c-0.4,0-0.8,0.1-1.1,0.2c-0.3,0.2-0.6,0.4-0.8,0.7
				c-0.2,0.3-0.4,0.6-0.5,1c-0.1,0.4-0.2,0.9-0.2,1.4c0,0.5,0.1,1,0.2,1.4c0.1,0.4,0.3,0.8,0.5,1c0.2,0.3,0.5,0.5,0.8,0.6
				c0.3,0.1,0.6,0.2,1,0.2c0.4,0,0.7,0,0.9-0.1c0.2-0.1,0.4-0.2,0.6-0.3c0.2-0.1,0.3-0.2,0.4-0.3s0.3-0.1,0.4-0.1
				c0.2,0,0.3,0.1,0.4,0.2l0.7,0.9c-0.3,0.3-0.6,0.6-0.9,0.8c-0.3,0.2-0.6,0.4-1,0.5c-0.3,0.1-0.7,0.2-1,0.3
				c-0.4,0.1-0.7,0.1-1.1,0.1c-0.6,0-1.2-0.1-1.7-0.3c-0.5-0.2-1-0.6-1.4-1c-0.4-0.4-0.7-1-1-1.6c-0.2-0.6-0.4-1.4-0.4-2.2
				c0-0.7,0.1-1.4,0.3-2c0.2-0.6,0.5-1.2,0.9-1.6c0.4-0.5,0.9-0.8,1.5-1.1c0.6-0.3,1.3-0.4,2.1-0.4c0.7,0,1.4,0.1,1.9,0.4
				c0.6,0.2,1.1,0.6,1.5,1L2983.9,289.3z"/>
			<path fill="#FFFFFF" d="M2989.3,287c0.6,0,1.2,0.1,1.7,0.3c0.5,0.2,1,0.5,1.4,0.9c0.4,0.4,0.7,0.9,0.9,1.4
				c0.2,0.6,0.3,1.2,0.3,1.9c0,0.2,0,0.3,0,0.4c0,0.1,0,0.2-0.1,0.3c0,0.1-0.1,0.1-0.2,0.1c-0.1,0-0.2,0-0.3,0h-6.1
				c0.1,1,0.3,1.8,0.8,2.2c0.5,0.5,1.1,0.7,1.9,0.7c0.4,0,0.7,0,1-0.1c0.3-0.1,0.5-0.2,0.7-0.3c0.2-0.1,0.4-0.2,0.5-0.3
				c0.2-0.1,0.3-0.1,0.5-0.1c0.1,0,0.2,0,0.3,0.1c0.1,0,0.1,0.1,0.2,0.2l0.7,0.9c-0.3,0.3-0.6,0.6-0.9,0.8c-0.3,0.2-0.7,0.4-1,0.5
				c-0.4,0.1-0.7,0.2-1.1,0.3c-0.4,0.1-0.7,0.1-1.1,0.1c-0.7,0-1.3-0.1-1.9-0.3c-0.6-0.2-1.1-0.6-1.5-1c-0.4-0.4-0.8-1-1-1.7
				c-0.3-0.7-0.4-1.4-0.4-2.3c0-0.7,0.1-1.3,0.3-1.9c0.2-0.6,0.5-1.1,0.9-1.6c0.4-0.4,0.9-0.8,1.5-1
				C2987.9,287.2,2988.5,287,2989.3,287z M2989.3,288.7c-0.7,0-1.2,0.2-1.6,0.6c-0.4,0.4-0.6,0.9-0.8,1.7h4.5c0-0.3,0-0.6-0.1-0.9
				c-0.1-0.3-0.2-0.5-0.4-0.7c-0.2-0.2-0.4-0.4-0.7-0.5C2990,288.8,2989.7,288.7,2989.3,288.7z"/>
			<path fill="#FFFFFF" d="M3002.3,297.1h-1.1c-0.2,0-0.4,0-0.5-0.1c-0.1-0.1-0.2-0.2-0.3-0.4l-0.2-0.7c-0.3,0.2-0.5,0.4-0.7,0.6
				c-0.2,0.2-0.5,0.3-0.7,0.4c-0.3,0.1-0.5,0.2-0.8,0.3c-0.3,0.1-0.6,0.1-1,0.1c-0.4,0-0.8-0.1-1.2-0.2c-0.4-0.1-0.7-0.3-0.9-0.5
				c-0.3-0.2-0.5-0.5-0.6-0.8c-0.1-0.3-0.2-0.7-0.2-1.2c0-0.4,0.1-0.7,0.3-1.1c0.2-0.4,0.5-0.7,1-1c0.5-0.3,1.1-0.5,1.8-0.7
				c0.8-0.2,1.7-0.3,2.8-0.3v-0.6c0-0.7-0.1-1.2-0.4-1.5c-0.3-0.3-0.7-0.5-1.2-0.5c-0.4,0-0.7,0-1,0.1c-0.3,0.1-0.5,0.2-0.7,0.3
				c-0.2,0.1-0.4,0.2-0.5,0.3s-0.3,0.1-0.5,0.1c-0.2,0-0.3,0-0.4-0.1c-0.1-0.1-0.2-0.2-0.3-0.3l-0.4-0.8c1.1-1,2.5-1.6,4.1-1.6
				c0.6,0,1.1,0.1,1.5,0.3c0.5,0.2,0.8,0.5,1.2,0.8c0.3,0.3,0.6,0.7,0.7,1.2c0.2,0.5,0.2,1,0.2,1.5V297.1z M2997.6,295.6
				c0.2,0,0.5,0,0.7-0.1c0.2,0,0.4-0.1,0.6-0.2c0.2-0.1,0.4-0.2,0.5-0.3c0.2-0.1,0.3-0.3,0.5-0.5v-1.7c-0.7,0-1.3,0-1.7,0.1
				c-0.5,0.1-0.8,0.2-1.1,0.3c-0.3,0.1-0.5,0.3-0.6,0.5c-0.1,0.2-0.2,0.4-0.2,0.6c0,0.4,0.1,0.7,0.4,0.9
				C2996.9,295.5,2997.2,295.6,2997.6,295.6z"/>
			<path fill="#FFFFFF" d="M3003.7,297.1v-9.9h1.5c0.3,0,0.5,0.1,0.6,0.4l0.2,0.8c0.2-0.2,0.4-0.4,0.6-0.6c0.2-0.2,0.5-0.3,0.7-0.4
				c0.2-0.1,0.5-0.2,0.8-0.3c0.3-0.1,0.6-0.1,0.9-0.1c0.5,0,1,0.1,1.4,0.3c0.4,0.2,0.8,0.4,1,0.8c0.3,0.3,0.5,0.7,0.6,1.2
				c0.1,0.5,0.2,1,0.2,1.5v6.3h-2.4v-6.3c0-0.6-0.1-1.1-0.4-1.4c-0.3-0.3-0.7-0.5-1.3-0.5c-0.4,0-0.8,0.1-1.2,0.3
				c-0.4,0.2-0.7,0.4-1,0.8v7.2H3003.7z"/>
		</g>
	</g>
	<rect x="2844.3" y="-164.6" fill="none" width="235.4" height="176.3"/>
	<text transform="matrix(1 0 0 1 2844.2759 -154)"><tspan x="0" y="0" fill="#FFFFFF" font-family="'MyriadPro-Regular'" font-size="15">lBacon ipsum dolor amet biltong </tspan><tspan x="0" y="24" fill="#FFFFFF" font-family="'MyriadPro-Regular'" font-size="15">alcatra turducken flank sausage, </tspan><tspan x="0" y="48" fill="#FFFFFF" font-family="'MyriadPro-Regular'" font-size="15">salami spare ribs turkey shankle filet </tspan><tspan x="0" y="72" fill="#FFFFFF" font-family="'MyriadPro-Regular'" font-size="15">mignon pork chop tail t-bone. </tspan></text>
	<rect x="2841" y="344.1" fill="none" width="241.9" height="129.9"/>
	<text transform="matrix(1 0 0 1 2841.0435 354.7206)"><tspan x="0" y="0" fill="#FFFFFF" font-family="'MyriadPro-Regular'" font-size="15">lBacon ipsum dolor amet biltong alca</tspan><tspan x="232.6" y="0" fill="#FFFFFF" font-family="'MyriadPro-Regular'" font-size="15">-</tspan><tspan x="0" y="24" fill="#FFFFFF" font-family="'MyriadPro-Regular'" font-size="15">tra turducken flank sausage, salami </tspan><tspan x="0" y="48" fill="#FFFFFF" font-family="'MyriadPro-Regular'" font-size="15">spare ribs turkey shankle filet mignon </tspan><tspan x="0" y="72" fill="#FFFFFF" font-family="'MyriadPro-Regular'" font-size="15">pork chop tail t-bone..</tspan></text>
	<g>
		<path fill="#FFFFFF" d="M3308-256.4c-2.9,5.4-4.9,11-4.9,17.1c0,0.9,0.6,1.8,0.8,2.5c2.1,0.1,2.7-1.8,4.4-2.7
			c-0.4,2-1.5,3-2.5,3.9c-0.7,0.7-1.7,1.2-2.6,1.5c-2.3,0.8-4.3-0.5-4.6-3c-0.2-1.3,0-2.7,0.1-4c0.1-1,0.2-1.9,0-3
			c-0.9,1.3-1.8,2.8-2.8,4c-1.5,1.7-3.1,3.3-4.7,4.9c-0.4,0.4-1,0.7-1.5,1c-3.3,1.7-6-0.4-5.7-4.3c0.4-3.8,1.3-7.4,2.8-10.9
			c0.3-0.7,0.6-1.4,1.1-2.6c-1.1,0.7-1.9,1.2-3,1.9c0.2-0.7,0.1-1.1,0.3-1.3c2.3-2.3,4.9-4,7.8-5.3c0.5-0.2,1.1,0,1.9,0
			c-0.6,1.1-1.1,1.9-1.6,2.7c-2.2,3.7-3.8,7.6-4.4,12c-0.1,0.8-0.2,1.6-0.1,2.4c0.2,2.2,1.4,2.9,3,1.5c1.3-1,2.5-2.2,3.3-3.6
			c2.4-4,4.7-8.1,7-12.2C3303.6-256.3,3305.4-257.3,3308-256.4z"/>
		<path fill="#80BD01" d="M3229.9-199.9c1.4,3.2,2.8,3.9,5.3,3.4c2.9-0.6,5.2-2.3,7.4-4.3c4.1-3.9,7.1-8.6,9.7-13.7
			c4.8-9.3,8.1-19.2,9.8-29.7c0.4-2.3,0.5-4.7,0.6-7c0-0.7-0.1-1.5-0.3-2.1c-0.4-1.1-1.3-1.5-2.2-0.8c-1.1,0.9-2.1,2-3.2,3
			c-0.1-0.2-0.2-0.5-0.2-0.6c1.6-2.6,3.5-4.8,6.4-5.8c2.4-0.8,4.1,0.4,4,3.1c-0.2,3-0.5,6.1-1.2,9c-3.8,15-10.1,28.6-18.6,41.1
			c-2.7,4-5.8,7.8-9.7,10.4c-1.3,0.9-2.8,1.6-4.3,2c-2.9,0.8-5-1.5-4.4-4.6C3229.1-197.3,3229.5-198.3,3229.9-199.9z"/>
		<path fill="#80BD01" d="M3307.4-293c-2.1-3.3-4.5-3.9-8.1-2c-3.4,1.8-6.1,4.4-8.4,7.6c-7.7,10.3-12.3,22.2-15,35.1
			c-0.7,3.4-1,6.9-1.5,10.4c0,0.4,0,0.7,0,1.1c0.1,1.1,0.2,2.3,1.4,2.7c1,0.4,1.7-0.4,2.4-1.1c0.7-0.7,1.3-1.4,2.2-1.9
			c-1.3,3-3.4,5-6.2,6.1c-2.6,1-4.4-0.4-4.2-3.4c0.3-3.5,0.8-7,1.7-10.3c4.1-14.7,10.4-28.3,19-40.6c2.5-3.5,5.2-6.9,8.8-9.2
			c1.5-0.9,3.2-1.6,4.8-2c2.5-0.6,4.5,1.5,4.1,4.2C3308.2-295.3,3307.8-294.3,3307.4-293z"/>
		<path fill="#FFFFFF" d="M3254.5-267.9c-1.9,4-3.5,7.5-5.2,11.1c2.2,0.6,4.3-0.3,6.5,0.8c-2.3,1.6-4.8,0.4-7.2,1.3
			c-1.5,3.5-2.6,7.4-3.4,11.3c-0.2,0.8-0.3,1.6-0.4,2.4c-0.1,1.4-0.2,2.9,1.1,3.6c1.4,0.8,2.6,0,3.6-1c0.8-0.8,1.6-1.5,2.4-2.2
			c0,0,0.2,0.3,0.2,0.5c-1.3,2.5-3,4.6-5.5,5.7c-4.1,1.8-7-0.6-6.4-5.3c0.5-3.3,1.4-6.5,2.2-9.7c0.4-1.6,1-3.1,1.6-4.9
			c-1.3,0.1-2.5,0.2-3.9,0.4c0.8-1.6,1.9-2.1,3.2-2.1c1.2,0,1.7-0.7,2.2-1.8c0.9-2.1,2.1-4.1,3-6.2
			C3249.7-266.6,3251.7-267.4,3254.5-267.9z"/>
		<path fill="#FFFFFF" d="M3223-241.6c-0.2,0.4-0.4,0.8-0.5,1.2c-0.8,2.3-0.1,4.3,1.7,4.9c2.4,0.9,5-0.4,5.5-2.7
			c0.3-1.6,0.3-3.2-0.6-4.7c-0.7-1.2-1.4-2.5-2-3.7c-0.4-0.8-0.9-1.6-1.1-2.4c-1-3.1,0.1-5.9,2.9-7.1c2-0.8,4-1.1,6.1-0.5
			c1.6,0.5,2.1,1.2,1.8,2.9c-0.2,1.1-0.3,2.3-1.7,3.2c-0.1-1-0.1-1.7-0.2-2.5c0-1-0.2-2-1.2-2.4c-1-0.4-2.4,0-3.2,1
			c-0.9,1.3-0.9,2.7-0.3,4.1c0.7,1.5,1.8,2.9,2.5,4.4c0.7,1.5,1.4,3.1,1.6,4.7c0.3,2.9-1,5.1-3.5,6.2c-2.8,1.2-5.6,1.6-8.6,0.6
			c-2.7-0.9-3.2-2.6-1.7-5.1c0.6-0.9,1.3-1.7,2-2.6C3222.6-241.9,3222.8-241.8,3223-241.6z"/>
		<path fill="#FFFFFF" d="M3323.8-250.3c0-1.4,0.1-2.3,0-3.2c-0.2-1-0.6-1.9-1.7-2.1c-1.1-0.1-2,0-2.7,1c-1,1.4-1.1,2.9-0.3,4.3
			c0.8,1.7,1.8,3.3,2.8,4.8c1,1.6,1.4,3.2,1.3,5.1c-0.1,2.3-1.1,4-2.9,5c-3,1.6-6.1,2-9.2,0.9c-2.6-0.9-3.1-2.4-1.7-4.9
			c0.6-1,1.1-2.2,2.7-2.6c-0.2,0.6-0.2,0.9-0.4,1.2c-1.1,2.5-0.6,4.4,1.3,5.3c2.1,0.9,4.7-0.1,5.6-2.1c0.8-1.7,0.3-3.4-0.4-4.9
			c-0.5-1.1-1.1-2.2-1.7-3.3c-0.3-0.5-0.6-1.1-0.9-1.6c-2.3-4.6-0.7-8.2,4.1-9.1c1.5-0.3,3-0.3,4.4,0.1c1.4,0.4,1.8,1,1.6,2.5
			C3325.5-252.8,3325.2-251.6,3323.8-250.3z"/>
	</g>
	<g>
		<path fill="#FFFFFF" d="M3264.3,236c3.2-1.8,6.4-3.7,9.6-5.5c2-1.1,4-2.2,5.9-3.4c0.7-0.4,1.2-0.4,1.9,0
			c9.1,5.3,18.2,10.6,27.3,15.8c1.3,0.8,2.7,1.6,4,2.3c0.5,0.3,0.7,0.5,0.7,1.1c0,5.2,0,10.4,0,15.6c0,0.6-0.2,0.9-0.7,1.1
			c-5.1,2.9-10.1,5.8-15.1,8.7c-0.6,0.4-1,0.1-1.5-0.1c-4.8-2.8-9.7-5.6-14.5-8.4c-0.6-0.4-1.1-0.4-1.8,0c-4.9,2.8-9.8,5.6-14.7,8.4
			c-0.7,0.4-1.2,0.5-2,0c-10.3-6-20.6-12-31-18c-0.7-0.4-1-0.9-1-1.7c0-4.9,0-9.9,0-14.8c0-0.7,0.2-1.2,0.9-1.6
			c5-2.8,9.9-5.6,14.8-8.5c0.6-0.4,1-0.2,1.6,0.1c4.8,2.8,9.5,5.6,14.3,8.3C3263.6,235.6,3263.9,235.7,3264.3,236z M3235.4,238.1
			c4.1,2.4,8.1,4.7,12,7c0.5,0.3,0.9,0.2,1.4-0.1c3.7-2.2,7.4-4.3,11.1-6.4c0.2-0.1,0.4-0.3,0.7-0.4c-0.1-0.1-0.1-0.2-0.2-0.2
			c-3.9-2.2-7.9-4.5-11.8-6.8c-0.5-0.3-0.9-0.1-1.3,0.1c-2.9,1.6-5.7,3.3-8.6,4.9C3237.6,236.8,3236.6,237.4,3235.4,238.1z
			 M3284.8,247.6c0.1,0.2,0.2,0.2,0.2,0.3c3.9,2.3,7.9,4.6,11.8,6.9c0.3,0.2,0.8,0.1,1.1-0.1c3.8-2.2,7.6-4.4,11.4-6.6
			c0.2-0.1,0.3-0.3,0.6-0.5c-4.1-2.3-8.1-4.6-12.1-6.9c-0.2-0.1-0.7-0.1-1,0C3292.8,243,3288.8,245.3,3284.8,247.6z M3293.4,238.2
			c-4.2-2.4-8.2-4.7-12.1-7c-0.5-0.3-0.9-0.1-1.3,0.1c-3.8,2.2-7.5,4.3-11.3,6.5c-0.2,0.1-0.3,0.2-0.6,0.4c4.2,2.4,8.2,4.8,12.2,7.1
			c0.2,0.1,0.7,0,1-0.1c1.6-0.9,3.1-1.8,4.7-2.7C3288.4,241.1,3290.8,239.7,3293.4,238.2z M3251.9,247.7c0.4,0.3,0.7,0.4,0.9,0.6
			c3.7,2.1,7.3,4.2,11,6.4c0.6,0.4,1,0.3,1.6,0c3.2-1.9,6.4-3.7,9.6-5.6c0.7-0.4,1.4-0.8,2.2-1.3c-4.3-2.5-8.5-4.9-12.6-7.2
			C3260.3,242.9,3256.1,245.2,3251.9,247.7z"/>
		<path fill="#FFFFFF" d="M3271.1,298c0.5,0,1,0.1,1.6,0.1c0,0.8,0,1.5,0,2.3c-2.1,0-4.1,0-6.2,0c0-0.7,0-1.5,0-2.3
			c0.4-0.1,0.9-0.1,1.4-0.2c0-1.9,0.1-3.9,0-5.8c0-0.7-0.8-1.2-1.6-1c-0.8,0.2-1.6,0.7-2.4,1.1c-0.2,0.1-0.3,0.4-0.3,0.6
			c0,1.7,0,3.3,0,5c0.5,0.1,1,0.1,1.5,0.2c0,0.8,0,1.5,0,2.4c-2,0-4,0-6,0c0-0.7,0-1.5,0-2.3c0.4,0,0.9-0.1,1.4-0.2
			c0-1.9,0-3.8,0-5.7c0-0.7-0.6-1.1-1.3-1.1c-1.1,0-2,0.5-2.8,1.2c-0.1,0.1-0.2,0.3-0.2,0.5c0,1.7,0,3.4,0,5.1
			c0.6,0.1,1,0.1,1.5,0.2c0,0.8,0,1.5,0,2.3c-2.1,0-4.1,0-6.2,0c0-0.8,0-1.5,0-2.3c0.5,0,1-0.1,1.6-0.1c0-2.2,0-4.5,0-6.7
			c-0.6,0-1.1-0.1-1.6-0.1c0-0.8,0-1.6,0-2.4c1.5,0,3,0,4.5,0c0,0.5,0.1,1,0.1,1.6c1.1-0.9,2.2-1.8,3.6-1.9c1.5-0.1,2.7,0.4,3.5,1.8
			c0.3-0.2,0.5-0.4,0.8-0.6c0.9-0.7,1.9-1.2,3.1-1.2c2.4,0,3.9,1.3,3.9,3.8c0,1.8,0,3.7,0,5.5C3271,297.8,3271.1,297.9,3271.1,298z"
			/>
		<path fill="#FFFFFF" d="M3277.9,299.8c0,1.3,0,2.4,0,3.5c0.6,0,1.2,0.1,1.8,0.1c0,0.8,0,1.5,0,2.4c-2.2,0-4.3,0-6.5,0
			c0-0.7,0-1.5,0-2.3c0.5,0,1-0.1,1.6-0.1c0-4,0-7.9,0-12c-0.5,0-1-0.1-1.6-0.2c0-0.8,0-1.6,0-2.4c1.5,0,2.9,0,4.5,0
			c0.1,0.3,0.2,0.6,0.3,1.1c1.3-1.1,2.8-1.6,4.5-1.3c2.3,0.5,3.8,2.3,4.3,4.9c0.6,3.5-1.5,6.7-4.7,7.3
			C3280.5,301,3279.2,300.6,3277.9,299.8z M3277.9,294.8c0,0.6,0,1.2,0,1.8c0,0.3,0.1,0.7,0.3,0.9c1.2,1.2,3.7,1,4.7-0.4
			c1-1.3,1-3.5,0-4.9c-0.7-1-2.1-1.4-3.4-0.9c-1.4,0.5-1.6,0.8-1.6,2.4C3277.9,294,3277.9,294.4,3277.9,294.8z"/>
		<path fill="#FFFFFF" d="M3232.3,286.1c-2.4-1.6-6-0.9-7.8,1.4c-2,2.5-1.7,6.6,0.6,8.8c2.5,2.4,6.1,2.2,9.4-0.6
			c0.7,0.7,1.4,1.3,2.2,2c-2.9,2.9-6.2,3.7-9.9,2.8c-3.3-0.7-5.5-2.7-6.4-6c-1-3.8-0.4-7.2,2.7-9.9c3-2.6,6.6-3,10.2-1.5
			c0.9,0.4,1.8,1.2,2.4,2c0.4,0.5,0.5,1.4,0.4,2.1c-0.1,1.2-1,1.8-2.3,1.7c-1.2-0.2-1.8-1.1-1.7-2.3
			C3232.2,286.4,3232.2,286.3,3232.3,286.1z"/>
		<path fill="#FFFFFF" d="M3325.3,295.6c-2.8,0-5.5,0-8.3,0c0.3,1.5,1.2,2.4,2.8,2.6c1.3,0.2,2.6,0,3.9-0.6c0.4-0.2,0.8-0.3,1.3-0.5
			c-0.1,0.9-0.1,1.6-0.2,2.4c0,0.2-0.3,0.5-0.6,0.6c-2.4,1-4.8,1.2-7.2,0.1c-2.8-1.2-4-4.4-3-7.6c0.9-2.9,3.8-4.6,6.9-4
			C3324.2,289.1,3326,292,3325.3,295.6z M3322.4,293.5c-0.1-1.7-1.1-2.6-2.7-2.6c-1.6,0-2.7,1.1-2.7,2.6
			C3318.7,293.5,3320.5,293.5,3322.4,293.5z"/>
		<path fill="#FFFFFF" d="M3300.6,294.6c0,3.6-2.7,6.2-6.4,6.2c-3.6,0-6.3-2.6-6.3-6.1c0-3.6,2.7-6.2,6.3-6.2
			C3298,288.4,3300.6,291,3300.6,294.6z M3297.5,294.6c0-2.1-1.4-3.6-3.2-3.6c-1.9,0-3.3,1.5-3.3,3.6c0,2.1,1.3,3.6,3.2,3.6
			C3296.1,298.3,3297.5,296.7,3297.5,294.6z"/>
		<path fill="#FFFFFF" d="M3243.8,288.4c3.7,0,6.4,2.6,6.4,6.1c0,3.5-2.7,6.2-6.4,6.2c-3.7,0-6.3-2.5-6.3-6.1
			C3237.5,291.1,3240.2,288.5,3243.8,288.4z M3240.6,294.7c0,0.3,0.1,0.7,0.2,1.1c0.4,1.5,1.6,2.4,3,2.4c1.5,0,2.6-0.9,3.1-2.3
			c0.3-1.1,0.3-2.2-0.3-3.2c-0.8-1.7-2.9-2.2-4.4-1.3C3241,292.2,3240.7,293.3,3240.6,294.7z"/>
		<path fill="#FFFFFF" d="M3308.8,291c-1-0.4-1.9-0.5-2.8,0c-0.3,0.2-0.6,0.6-0.6,0.9c0,0.3,0.3,0.7,0.6,0.8
			c0.5,0.3,1.2,0.4,1.8,0.6c0.9,0.3,1.8,0.5,2.6,0.9c2.9,1.2,2.2,4.4,0.6,5.5c-1.8,1.3-3.9,1.3-5.9,0.7c-0.7-0.2-1.3-0.5-1.9-0.8
			c-0.7-0.4-1-1-1.1-1.8c0-0.9,0.6-1.6,1.4-1.7c0.9-0.1,1.7,0.4,1.8,1.3c0,0.8,0.5,1,1.1,1c0.8,0,1.6,0,2.4-0.2
			c0.3-0.1,0.7-0.5,0.7-0.9c0-0.3-0.3-0.7-0.6-0.9c-0.6-0.3-1.3-0.5-2-0.7c-0.8-0.3-1.7-0.6-2.5-0.9c-2.6-1.1-2.1-4.1-0.6-5.4
			c1.8-1.6,5.8-1.5,7.5,0.1c0.4,0.4,0.7,1.1,0.7,1.7c0.1,0.9-0.5,1.4-1.3,1.5c-1,0.1-1.6-0.3-1.8-1.3
			C3308.8,291.4,3308.8,291.2,3308.8,291z"/>
	</g>
	<rect x="3151.7" y="344.1" fill="none" width="241.9" height="129.9"/>
	<text transform="matrix(1 0 0 1 3151.6904 354.7206)"><tspan x="0" y="0" fill="#FFFFFF" font-family="'MyriadPro-Regular'" font-size="15">lBacon ipsum dolor amet biltong alca</tspan><tspan x="232.6" y="0" fill="#FFFFFF" font-family="'MyriadPro-Regular'" font-size="15">-</tspan><tspan x="0" y="24" fill="#FFFFFF" font-family="'MyriadPro-Regular'" font-size="15">tra turducken flank sausage, salami </tspan><tspan x="0" y="48" fill="#FFFFFF" font-family="'MyriadPro-Regular'" font-size="15">spare ribs turkey shankle filet mignon </tspan><tspan x="0" y="72" fill="#FFFFFF" font-family="'MyriadPro-Regular'" font-size="15">pork chop tail t-bone..</tspan></text>
	<rect x="3154.9" y="-164.6" fill="none" width="235.4" height="176.3"/>
	<text transform="matrix(1 0 0 1 3154.9229 -154)"><tspan x="0" y="0" fill="#FFFFFF" font-family="'MyriadPro-Regular'" font-size="15">lBacon ipsum dolor amet biltong </tspan><tspan x="0" y="24" fill="#FFFFFF" font-family="'MyriadPro-Regular'" font-size="15">alcatra turducken flank sausage, </tspan><tspan x="0" y="48" fill="#FFFFFF" font-family="'MyriadPro-Regular'" font-size="15">salami spare ribs turkey shankle filet </tspan><tspan x="0" y="72" fill="#FFFFFF" font-family="'MyriadPro-Regular'" font-size="15">mignon pork chop tail t-bone. </tspan></text>
	<g>
		
			<linearGradient id="SVGID_13_" gradientUnits="userSpaceOnUse" x1="-2390.4712" y1="-127.8889" x2="-2415.8118" y2="-128.0619" gradientTransform="matrix(-0.9771 -0.323 0.2901 -0.8773 -114.6297 -622.0108)">
			<stop  offset="0.2308" style="stop-color:#999875"/>
			<stop  offset="0.5632" style="stop-color:#9B9977"/>
			<stop  offset="0.6829" style="stop-color:#A09F7E"/>
			<stop  offset="0.7683" style="stop-color:#A9A889"/>
			<stop  offset="0.8373" style="stop-color:#B7B69A"/>
			<stop  offset="0.8964" style="stop-color:#C9C7B0"/>
			<stop  offset="0.9482" style="stop-color:#DEDDCB"/>
			<stop  offset="0.9944" style="stop-color:#F8F6EB"/>
			<stop  offset="1" style="stop-color:#FBF9EF"/>
		</linearGradient>
		<path fill="url(#SVGID_13_)" d="M2198.2,301.6l-2.1-0.7c0,0,0.3-10.9-3.6-11.6c-2.6-3,0.4-128.1,9.8-0.4c0,0-3.2,1.6-3.8,4.4
			C2197.8,295.9,2198.2,301.6,2198.2,301.6z"/>
		
			<linearGradient id="SVGID_14_" gradientUnits="userSpaceOnUse" x1="-2386.5684" y1="-83.5386" x2="-2423.0251" y2="-146.6837" gradientTransform="matrix(-0.9771 -0.323 0.2901 -0.8773 -114.6297 -622.0108)">
			<stop  offset="0" style="stop-color:#48A547"/>
			<stop  offset="1" style="stop-color:#3F9143"/>
		</linearGradient>
		<path fill="url(#SVGID_14_)" d="M2199.4,291.1c0,0,18.7-12.3,14.3-37.9c-4.2-18.6-14.2-24.7-15.2-27c-1.2-1.6-2.4-4.6-2.4-4.6
			l0.8,51.7C2196.9,273.4,2195.2,289.2,2199.4,291.1z"/>
		
			<linearGradient id="SVGID_15_" gradientUnits="userSpaceOnUse" x1="-2383.2285" y1="-128.9312" x2="-2409.0698" y2="-111.5735" gradientTransform="matrix(-0.9771 -0.323 0.2901 -0.8773 -114.6297 -622.0108)">
			<stop  offset="0" style="stop-color:#41A247"/>
			<stop  offset="0.3523" style="stop-color:#4BA74B"/>
			<stop  offset="0.9557" style="stop-color:#67B554"/>
			<stop  offset="1" style="stop-color:#69B655"/>
		</linearGradient>
		<path fill="url(#SVGID_15_)" d="M2195,291.8c0,0-17.5-12-16.5-33c1-21.1,13.4-31.5,15.8-33.3c1.6-1.7,1.6-2.3,1.7-3.9
			c1.1,2.3,0.9,35,1,38.9C2197.5,275.2,2196.2,289,2195,291.8z"/>
		<path fill="#C0BFBE" d="M2394.9,252.5c1,0,4.8,0.2,6.6,0.2c3.3,0,5.6-0.2,11.8-0.2c5.2,0,9.6,1.4,12.7,4.1
			c3.8,3.3,5.8,7.8,5.8,13.3c0,7.9-3.6,12.4-7.2,15c-3.6,2.7-8.3,4.2-14.9,4.2c-3.5,0-9.6-0.1-14.7-0.2h-0.1
			c-0.2-0.5,0.4-2.3,0.9-2.3c1.4-0.2,1.7-0.2,2.4-0.5c1.1-0.4,1.3-1,1.4-2.9c0.2-3.6,0.1-7.9,0.1-12.8c0-3.5,0.1-10.3-0.1-12.5
			c-0.2-1.8-0.9-2.3-2.5-2.6c-0.8-0.2-1.8-0.3-3.3-0.5C2393.7,254.5,2394.6,252.9,2394.9,252.5z M2406.7,285c1.2,1,3.7,1.4,5.9,1.4
			c2.8,0,5.6-0.5,8.3-3c2.8-2.5,4.7-6.4,4.7-12.5c0-5.9-2.2-10.7-6.8-13.5c-2.6-1.6-6-2.3-9.8-2.3c-1.1,0-2.2,0.1-2.9,0.3
			c-0.2,0.1-0.5,0.6-0.5,0.8c-0.1,1-0.1,9-0.1,13.8c0,4.8,0,11.6,0.1,12.4C2405.6,283.2,2405.9,284.4,2406.7,285z"/>
		<path fill="#C0BFBE" d="M2436.8,252.5c0.5,0,2.1,0.2,6.1,0.2c3.8,0,6.8-0.1,10.5-0.1c4.5,0,10.8,1.6,10.8,8.4c0,3.3-2.4,6-5.4,7.3
			c-0.2,0.1-0.2,0.2,0,0.2c4.4,1.1,8.2,3.8,8.2,8.9c0,5-3.1,8.2-7.7,10.1c-2.8,1.2-6.2,1.6-9.7,1.6c-2.7,0-9.8-0.3-13.7-0.2
			c-0.4-0.2,0.4-2,0.7-2.3c0.9-0.1,1.7-0.1,2.7-0.4c1.4-0.3,1.6-0.8,1.8-2.9c0.1-1.8,0.1-8.3,0.1-12.9c0-6.3,0.1-10.5,0-12.6
			c-0.1-1.6-0.6-2.2-1.8-2.4c-0.9-0.2-2.4-0.3-3.5-0.5C2435.5,254.5,2436.5,252.8,2436.8,252.5z M2460.8,278.7c0-5.1-3.8-8-10.7-8
			c-0.3,0-2.5-0.1-3,0.1c-0.2,0.1-0.4,0.2-0.4,0.3c0,3.7-0.1,9.6,0.1,11.9c0.1,1,0.8,2.4,1.7,2.8c0.9,0.5,3.1,0.6,4.5,0.6
			C2457.2,286.4,2460.8,284.1,2460.8,278.7z M2447.4,255.4c-0.2,0.1-0.5,0.6-0.5,0.9c-0.1,2.1-0.1,7.6-0.1,11.4
			c0,0.1,0.2,0.3,0.3,0.3c0.8,0.1,2.7,0.1,4.2,0.1c2.2,0,3.5-0.3,4.2-0.6c1.9-0.9,2.8-3,2.8-5.2c0-5.1-3.5-7-8.8-7
			C2449.2,255.3,2448.2,255.3,2447.4,255.4z"/>
		<path fill="#FFFFFF" d="M2225.6,289.1c-0.1-0.2-0.2-0.6-0.2-1.2c0-0.4,0.1-0.7,0.2-0.8c1.1-0.2,1.6-0.3,2.3-0.5
			c1-0.3,1.4-0.8,1.5-2.2c0.2-3.1,0.2-9,0.1-13.2l0-0.1c0-0.4,0-1.1-0.5-1.5c-0.8-0.5-1.8-1-3.1-1.4c-0.5-0.1-0.8-0.4-0.8-0.7
			c0-0.3,0.3-0.7,1-0.8c1.7-0.2,6.2-1.2,7.9-2.1c0.1,0.1,0.3,0.4,0.2,0.8c0,0.2,0,0.4,0,0.6c-0.1,0.6-0.1,1.2-0.1,1.9
			c0,0.2,0.2,0.4,0.4,0.4c0.1,0,0.2,0,0.3-0.1c3.4-2.6,6.3-3.6,7.9-3.6c2.5,0,4.5,1.2,6,3.7c0.1,0.1,0.2,0.2,0.3,0.2
			c0.1,0,0.2-0.1,0.3-0.2c3.1-2.3,6.1-3.7,8.2-3.7c4.8,0,7.7,3.6,7.7,9.7c0,1.7,0,3.9,0,6c0,1.8,0,3.5,0,4.7c0,0.3,0.4,1.1,1,1.2
			c0.7,0.3,1.7,0.5,3,0.7l0.1,0c0.1,0.3-0.1,1.7-0.3,2c-0.3,0-0.8,0-1.3-0.1c-1-0.1-2.4-0.1-4-0.1c-3.2,0-4.9,0.1-6.5,0.2
			c-0.1-0.4-0.2-1.7,0-2c0.9-0.2,1.4-0.3,2-0.5c1-0.3,1.3-0.8,1.4-2.2c0-1,0.2-9.4-0.1-11.5c-0.3-2.1-1.9-4.5-5.3-4.5
			c-1.3,0-3.3,0.5-5.3,2c-0.1,0.1-0.2,0.3-0.2,0.5l0,0c0.2,1.1,0.2,2.4,0.2,4.3c0,1.1,0,2.3,0,3.4c0,2.3,0,4.5,0,6.2
			c0,1.1,0.7,1.4,1.2,1.6c0.3,0.1,0.5,0.1,0.8,0.2c0.5,0.1,0.9,0.2,1.7,0.3c0.1,0.2,0.1,0.9,0,1.5c-0.1,0.3-0.2,0.5-0.2,0.5
			c-1.8-0.1-3.6-0.1-6.3-0.1c-0.8,0-2.1,0-3.3,0.1c-0.9,0-1.8,0-2.3,0.1c-0.1-0.1-0.2-0.5-0.2-1c0-0.5,0.1-0.8,0.2-1
			c0.2,0,0.5-0.1,0.7-0.1c0.6-0.1,1.2-0.2,1.7-0.3c0.9-0.3,1.2-0.8,1.3-1.9c0.2-2.6,0.3-10.1-0.1-11.9c-0.6-3-2.3-4.5-5.1-4.5
			c-1.6,0-3.6,0.8-5.3,2c-0.3,0.2-0.5,0.7-0.5,1.2c0,0.9,0,1.9,0,3.1c0,3.8,0,8.4,0.1,10.4c0.1,0.6,0.3,1.4,1.4,1.6
			c0.3,0.1,0.7,0.1,1.2,0.2c0.3,0,0.6,0.1,1,0.2c0.1,0.3,0,1.6-0.2,2c-0.5,0-1.1,0-1.9-0.1c-1.1,0-2.5-0.1-4-0.1
			c-1.8,0-3.1,0.1-4.2,0.1C2226.8,289.1,2226.2,289.1,2225.6,289.1L2225.6,289.1z"/>
		<path fill="#FFFFFF" d="M2285.1,289.6c-8.9,0-12-6.5-12-12.6c0-4.2,1.7-7.6,5.2-9.9c2.4-1.5,5.3-2.4,8-2.4
			c6.8,0,11.5,4.9,11.5,11.8c0,4.7-1.9,8.5-5.5,10.8C2290.6,288.5,2287.6,289.6,2285.1,289.6L2285.1,289.6z M2284.2,267.3
			c-1.1,0-2.1,0.3-2.8,0.8c-2,1.2-3.1,3.7-3.1,7.4c0,6.8,3.4,11.6,8.3,11.6c1.4,0,2.6-0.4,3.6-1.3c1.5-1.2,2.3-3.7,2.3-7.3
			C2292.5,271.8,2289.2,267.3,2284.2,267.3L2284.2,267.3z"/>
		<path fill="#FFFFFF" d="M2376.9,289.6c-8.9,0-12-6.5-12-12.6c0-4.2,1.7-7.6,5.2-9.9c2.4-1.5,5.3-2.4,8-2.4
			c6.8,0,11.5,4.9,11.5,11.8c0,4.7-1.9,8.5-5.5,10.8C2382.4,288.5,2379.4,289.6,2376.9,289.6L2376.9,289.6z M2376,267.3
			c-1.1,0-2.1,0.3-2.8,0.8c-2,1.2-3.1,3.7-3.1,7.4c0,6.8,3.4,11.6,8.3,11.6c1.4,0,2.6-0.4,3.6-1.3c1.5-1.2,2.3-3.7,2.3-7.3
			C2384.3,271.9,2381,267.3,2376,267.3L2376,267.3z"/>
		<path fill="#FFFFFF" d="M2346.3,303.6c-3.2,0-5.5-0.7-7.4-2.2c-1.9-1.5-2.8-3.6-2.8-5.2c0-0.4,0.1-1.6,1-2.6
			c0.6-0.6,1.8-1.8,4.8-3.8c0.1,0,0.2-0.1,0.2-0.2c0-0.1-0.1-0.2-0.2-0.2c-2.4-0.9-3.2-2.5-3.4-3.3c0,0,0-0.1,0-0.1
			c-0.1-0.3-0.1-0.6,0.3-1c0.3-0.2,0.9-0.6,1.5-0.9c0.9-0.5,1.8-1.1,2.4-1.5c0.1-0.1,0.1-0.2,0.1-0.3c0-0.1-0.1-0.2-0.2-0.3
			c-3.6-1.2-5.4-3.9-5.4-8c0-2.6,1.2-5,3.3-6.5c1.5-1.1,5.1-2.5,7.5-2.5l0.1,0c2.4,0.1,3.8,0.6,5.7,1.3c1,0.4,2,0.5,3.4,0.5
			c2,0,2.9-0.6,3.7-1.4c0,0.1,0.1,0.4,0.2,1c0,0.7-0.1,1.7-0.7,2.4c-0.4,0.6-1.4,1-2.3,1c-0.1,0-0.2,0-0.3,0
			c-0.9-0.1-1.4-0.2-1.4-0.2l-0.2,0.1c-0.1,0.1,0,0.2,0,0.4c0,0,0,0.1,0,0.1c0.1,0.5,0.3,1.8,0.3,2.2c0,4.3-1.7,6.2-3.5,7.5
			c-1.7,1.3-3.8,2.1-6.1,2.4h0c0,0-0.3,0-0.7,0.1c-0.3,0-0.6,0.1-0.7,0.1l-0.1,0c-0.4,0.1-1.4,0.6-1.4,1.5c0,0.8,0.5,1.7,2.7,1.9
			c0.5,0,0.9,0.1,1.5,0.1c3,0.2,6.7,0.5,8.4,1.1c2.4,0.9,3.9,3,3.9,5.6c0,3.8-2.7,7.5-7.3,9.7C2351,303.1,2348.8,303.6,2346.3,303.6
			L2346.3,303.6z M2346,290.1c-1,0-1.8,0.3-2.2,0.5c-2.2,1.4-3.2,2.8-3.2,4.4c0,1.5,0.6,2.7,1.8,3.8c1.5,1.3,3.6,1.9,6.3,1.9
			c5.3,0,7.7-2.8,7.7-5.7c0-2-1-3.3-3-4C2351.8,290.4,2349.2,290.1,2346,290.1L2346,290.1z M2346.3,267.1c-2.7,0-4.5,2.2-4.5,5.5
			c0,3.4,1.5,7.3,5.8,7.3c0.7,0,2.1-0.3,2.7-1.1c1-0.9,1.6-2.8,1.6-4.8C2352,269.7,2349.9,267.1,2346.3,267.1L2346.3,267.1z"/>
		<path fill="#FFFFFF" d="M2331.9,287c-1.3-0.2-2.2-0.3-3.4-0.9c-0.2-0.1-0.4-0.6-0.4-0.8c-0.1-1.8-0.1-7.1-0.1-10.5
			c0-2.8-0.5-5.2-1.7-7c-1.4-2-3.4-3.1-6-3.1c-2.3,0-5.4,1.6-7.9,3.7c-0.1,0.1-0.4,0.4-0.4-0.1c0-0.6,0.1-1.7,0.2-2.5
			c0.1-0.7-0.4-1.1-0.4-1.1c-1.7,0.8-6.4,1.9-8.1,2.1c-1.3,0.2-1.7,1.4-0.3,1.9v0c0,0,0.1,0,0.1,0c1.4,0.4,2.4,0.9,3.1,1.3
			c0.5,0.4,0.5,1,0.5,1.5c0.1,3.9,0.1,9.9-0.1,13.2c-0.1,1.3-0.4,1.7-1.4,2l0.1,0c-0.7,0.2-1.3,0.3-2.2,0.4c-0.3,0.3-0.3,2,0,2.3
			c0.6,0,3.6-0.2,6.1-0.2c3.4,0,5.2,0.2,6.1,0.2c0.4-0.4,0.5-2,0.2-2.3c-1-0.1-1.7-0.2-2.4-0.3c-0.9-0.2-1.2-0.7-1.2-1.7
			c-0.1-2.7-0.1-8.6-0.1-12.5c0-1.1,0.3-1.6,0.6-1.9c1.2-1,3.1-1.7,4.8-1.7c1.7,0,2.8,0.5,3.6,1.2c1.1,0.9,1.5,2.3,1.7,3.3
			c0.2,2.2,0.2,6.6,0.2,10.5c0,2.1-0.2,2.6-0.9,2.9c-0.4,0.2-1.3,0.3-2.4,0.5c-0.4,0.3-0.2,2,0,2.3c1.5,0,3.3-0.2,5.9-0.2
			c3.2,0,5.3,0.2,6.1,0.2C2332,288.9,2332.1,287.4,2331.9,287z"/>
	</g>
	<rect x="2177" y="346" fill="none" width="547" height="104"/>
	<text transform="matrix(1 0 0 1 2176.9734 356.6638)"><tspan x="0" y="0" fill="#FFFFFF" font-family="'MyriadPro-Regular'" font-size="15">lBacon ipsum dolor amet biltong alcatra turducken flank sausage, salami spare ribs </tspan><tspan x="0" y="24" fill="#FFFFFF" font-family="'MyriadPro-Regular'" font-size="15">turkey shankle filet mignon pork chop tail t-bone. Chuck ham sausage boudin jowl </tspan><tspan x="0" y="48" fill="#FFFFFF" font-family="'MyriadPro-Regular'" font-size="15">leberkas meatloaf.</tspan></text>
	<g>
		<g id="_x36_JPTJa.tif_1_">
			<g>
				<path fill="#FFFFFF" d="M2871.4,21.4c0,6.6,0,13.1,0,19.5c0,0.1-0.1,0.3-0.2,0.5c-0.5,0-0.9,0-1.5,0c0-7.7,0-15.2,0-22.8
					c1.4-0.5,1.6-0.5,2.4,0.8c3.9,5.9,7.9,11.8,11.8,17.7c0.3,0.4,0.5,0.8,1,1.4c0-6.8,0-13.3,0-20c0.5,0,1-0.1,1.4-0.1
					c0.4,1.1,0.5,20.5,0.2,22.9c-1.6,0.4-1.6,0.4-2.5-0.9c-3.9-5.9-7.9-11.8-11.8-17.7C2872,22.3,2871.7,21.9,2871.4,21.4z"/>
				<path fill="#FFFFFF" d="M2893.1,41.5c0-7.8,0-15.4,0-22.9c0.2-0.1,0.2-0.2,0.3-0.2c3,0,6-0.1,8.9,0.2c4.3,0.5,7.1,3.3,8,7.6
					c0.6,3.1,0.6,6.1-0.6,9.1c-1,2.6-2.8,4.5-5.5,5.3c-1.5,0.5-3.1,0.7-4.7,0.9C2897.5,41.6,2895.3,41.5,2893.1,41.5z M2894.9,40
					c2.4,0.1,4.8,0.1,7.1-0.4c3.7-0.8,5.9-3.1,6.6-6.8c0.4-2.1,0.4-4.2-0.1-6.3c-0.6-2.6-2-4.5-4.5-5.6c-2.9-1.3-6-0.9-9.1-0.9
					C2894.9,26.7,2894.9,33.2,2894.9,40z"/>
				<path fill="#FFFFFF" d="M2987.8,29.9c-0.1-2,0.1-4,0.9-5.9c1.7-3.8,4.6-5.8,8.8-6c1.3,0,2.6,0.1,3.8,0.4
					c3.1,0.8,5.1,2.8,6.2,5.7c1.4,3.7,1.4,7.5,0.1,11.2c-1.4,4.2-4.8,6.3-9.1,6.5c-6.3,0.2-10-3.9-10.6-9.8
					C2987.8,31.4,2987.8,30.6,2987.8,29.9z M2989.5,29.7c0.2,1.4,0.2,2.7,0.5,3.9c1,4.3,3.8,6.8,8.4,6.6c3.8-0.1,6.4-1.9,7.6-5.5
					c1-3.1,1-6.3,0-9.4c-0.3-1.1-1-2.2-1.7-3c-1.6-2-3.9-2.5-6.3-2.4c-3.8,0.1-6.6,2-7.6,5.7C2989.8,26.8,2989.7,28.4,2989.5,29.7z"
					/>
				<path fill="#FFFFFF" d="M2934.1,31.5c0,3.4,0,6.6,0,9.9c-0.6,0-1,0-1.6,0.1c0-7.7,0-15.3,0-22.9c0.2-0.1,0.2-0.2,0.3-0.2
					c2.6,0,5.3,0.1,7.9,0.1c0.3,0,0.6,0.1,0.9,0.2c4.4,1.1,6.3,5.7,3.9,9.6c-0.9,1.4-2.3,2.1-3.9,2.8c2,3.4,4,6.8,6.1,10.4
					c-0.8,0-1.3,0-2.1,0c-0.4-0.7-0.9-1.4-1.3-2.2c-1.3-2.3-2.7-4.5-4-6.8c-0.4-0.7-0.9-1-1.7-1
					C2937.2,31.5,2935.7,31.5,2934.1,31.5z M2934.2,20c0,3.5,0,6.7,0,10c1.7,0,3.3,0,4.9,0c0.8,0,1.5-0.2,2.3-0.5
					c2.1-0.7,3.2-2.5,3.1-4.8c-0.1-2.4-1.2-3.8-3.4-4.3C2938.9,19.8,2936.6,20,2934.2,20z"/>
				<path fill="#FFFFFF" d="M3027.9,41.3c-1.4,0.5-2.2,0-2.8-1.1c-1.6-2.9-3.4-5.7-5.1-8.7c-1.8,0-3.6,0-5.6,0c0,3.3,0,6.6,0,9.9
					c-0.7,0-1.1,0-1.7,0c0-7.7,0-15.3,0-23.1c3.3,0.1,6.4-0.4,9.5,0.5c2.4,0.7,3.9,2.2,4.2,4.7c0.4,3-0.6,5.4-2.9,6.7
					c-0.5,0.3-1.1,0.5-1.8,0.9C3023.9,34.5,3025.9,37.9,3027.9,41.3z M3014.6,30c2.2,0,4.2,0.2,6.3-0.3c0.3-0.1,0.6-0.1,0.8-0.2
					c2.1-0.8,3.2-2.5,3.1-4.8c-0.1-2.4-1.2-3.9-3.6-4.3c-1.8-0.3-3.7-0.3-5.5-0.4c-0.4,0-0.7,0.1-1.1,0.1
					C3014.6,23.4,3014.6,26.6,3014.6,30z"/>
				<path fill="#FFFFFF" d="M2846.3,18.5c0.6,0,1,0,1.7,0c0,0.6,0,1.1,0,1.7c0,4,0,7.9,0,11.9c0,0.4,0,0.8,0,1.2
					c0.1,5.7,5.1,8.8,10.3,6.4c2.4-1.1,3.5-3.1,3.5-5.6c0.1-4.4,0-8.9,0-13.3c0-0.7,0-1.4,0-2.2c0.6,0,1.1,0,1.8,0c0,0.5,0,1,0,1.5
					c0,4.2,0,8.4,0,12.6c0,0.9,0,1.8-0.2,2.6c-0.7,3.7-3,6-6.7,6.5c-1.3,0.2-2.7,0.2-3.9,0c-4.1-0.7-6.4-3.6-6.5-8
					c-0.1-4.8,0-9.7,0-14.5C2846.2,19,2846.3,18.8,2846.3,18.5z"/>
				<path fill="#FFFFFF" d="M2914.7,18.5c4.2,0,8.3,0,12.5,0c0,0.4,0.1,0.8,0.2,1.5c-3.7,0.1-7.2,0-10.7,0c-0.4,1.1-0.5,6.2-0.2,8.6
					c3.3,0,6.7,0,10.1,0c0,0.6,0,1,0,1.6c-3.4,0-6.7,0-9.9,0c-0.4,1.2-0.5,7.9-0.2,9.9c3.5,0,7.1,0,10.7,0c0,0.6,0.1,1,0.1,1.5
					c-4.2,0-8.4,0-12.6,0C2914.7,33.8,2914.7,26.2,2914.7,18.5z"/>
				<path fill="#FFFFFF" d="M3033.5,40c3.6,0,7.1,0,10.8,0c0,0.6,0,1,0,1.4c-4.2,0-8.3,0-12.6,0c0-7.7,0-15.3,0-23
					c4.2,0,8.3,0,12.5,0c0.1,0.2,0.2,0.3,0.2,0.4c0,0.3,0,0.6-0.1,1c-3.6,0-7.1,0-10.8,0c0,2.9,0,5.7,0,8.6c3.4,0,6.7,0,10.1,0
					c0.1,0.5,0.1,0.9,0.2,1.5c-3.5,0-6.8,0-10.2,0C3033.5,33.5,3033.5,36.7,3033.5,40z"/>
				<path fill="#FFFFFF" d="M3063.2,39.6c2.3,0.2,4.5,0.5,6.7,0.7c1.3,0.1,2.6-0.3,3.8-1c2.3-1.4,2.9-5.3,0-7
					c-1.1-0.6-2.3-1.1-3.5-1.6c-1.4-0.6-2.8-1.1-4.2-1.8c-3.5-1.8-3.8-7.4-0.1-9.6c0.9-0.5,1.9-0.9,2.9-1c2.7-0.5,5.3,0,7.9,1.1
					c-0.2,0.5-0.4,0.9-0.6,1.4c-1-0.3-1.8-0.6-2.7-0.7c-1.5-0.2-3-0.3-4.5-0.2c-2.9,0.3-4.4,2.8-3.6,5.4c0.3,1.1,1.1,1.9,2.1,2.3
					c1.2,0.6,2.5,1,3.8,1.6c1.3,0.6,2.6,1.1,3.8,1.8c3.4,2,2.9,7.1,0.4,9.1c-1.2,0.9-2.5,1.5-4,1.7c-2.3,0.2-4.7,0.2-7-0.4
					C3063,41,3063,41,3063.2,39.6z"/>
				<path fill="#FFFFFF" d="M2950.2,39.4c1.4,0.3,2.8,0.6,4.3,0.7c1.4,0.1,2.9,0.1,4.4-0.2c2.5-0.5,3.8-2.4,3.7-4.7
					c-0.1-1.6-0.9-2.6-2.2-3.2c-1.2-0.6-2.5-1.1-3.8-1.6c-1.2-0.5-2.3-1-3.5-1.5c-3.7-1.9-3.9-7.7,0.2-9.8c0.8-0.4,1.6-0.7,2.5-0.9
					c2.4-0.5,5.6,0,8,1.2c-0.1,0.4-0.3,0.8-0.5,1.4c-0.6-0.2-1.2-0.4-1.7-0.5c-1.8-0.6-3.6-0.7-5.5-0.4c-2.7,0.4-4.1,2.3-3.8,4.8
					c0.2,1.4,0.9,2.3,2.1,2.8c1,0.5,2.1,0.9,3.2,1.4c1.3,0.6,2.7,1.1,4,1.8c2,1,3,2.8,2.9,5c-0.1,2.3-1.1,4.1-3.1,5.1
					c-0.9,0.5-1.9,0.9-2.9,0.9c-2.4,0.2-4.9,0.2-7.3-0.4C2949.9,40.9,2949.9,40.9,2950.2,39.4z"/>
				<path fill="#FFFFFF" d="M2983.8,39.7c0.3,1,0.2,1.5-0.8,1.7c-2.4,0.6-4.8,0.7-7.3,0.3c-3.5-0.6-5.9-2.7-7.1-6.1
					c-1.3-3.6-1.4-7.2-0.1-10.8c1.5-4.2,4.7-6.4,9.1-6.7c2.5-0.2,5.5,0.3,7,1.3c-0.1,0.2-0.1,0.5-0.2,0.8c-0.1,0.2-0.2,0.4-0.3,0.4
					c-1.8-0.3-3.5-0.7-5.1-0.9c-5.2-0.3-8.5,3-9.3,7.5c-0.4,2.3-0.4,4.7,0.3,7c1.1,3.8,3.9,6,7.9,6c1.5,0,3-0.3,4.5-0.4
					C2982.9,39.8,2983.3,39.7,2983.8,39.7z"/>
				<path fill="#FFFFFF" d="M3056.6,18.5c0.7,0,1.1,0,1.7,0c0,0.5,0.1,0.9,0.1,1.3c0,7.1,0,14.2,0,21.3c0,0.8-0.1,1.7-0.2,2.5
					c-0.5,2.2-1.8,3.4-4,3.7c-0.9,0.1-1.8,0.1-2.6,0c-1-0.1-1-0.2-1-1.6c0.8,0,1.6,0,2.4,0c2.2,0,3.4-1.1,3.6-3.4c0-0.5,0-1.1,0-1.6
					c0-6.8,0-13.6,0-20.4C3056.6,19.7,3056.6,19.2,3056.6,18.5z"/>
				<path fill="#FFFFFF" d="M3051.4,40.2c0,1-0.4,1.6-1.2,1.6c-0.9,0.1-1.5-0.5-1.5-1.6c0-1,0.5-1.6,1.3-1.6
					C3050.9,38.6,3051.4,39.2,3051.4,40.2z"/>
			</g>
		</g>
		<g>
			<rect x="2845.6" y="51" fill="#0071B5" width="102.9" height="7.1"/>
			<rect x="2948.6" y="51" fill="#002A41" width="129.7" height="7.1"/>
		</g>
	</g>
	<g id="_x31_n6meT.tif">
		<g>
			<path fill="#FFFFFF" d="M3349.2,45.3c0.5,0.1,1.1,0.2,1.8,0.3c0,0.7,0.1,1.4,0.1,2.3c-1.8,0-3.6,0-5.5,0c0-0.5-0.1-1.1-0.1-1.6
				c0-2.7,0-5.4,0-8.1c0-1.1-0.1-2.3-1.3-2.7c-1.2-0.5-2.4-0.2-3.4,0.7c-1,0.9-1.7,2.2-1.8,3.5c-0.2,1.9,0,3.7,0,5.6
				c0.8,0.2,1.7,0.2,2.1,0.7c0.4,0.4,0.2,1.3,0.2,2c-2.7,0-5.2,0-7.7,0c-0.8-1.8-0.5-2.3,1.9-2.6c0-3.3,0-6.5,0-9.8
				c-0.8-0.2-1.6-0.3-2.1-0.7c-0.3-0.3-0.1-1.2-0.2-2c1.6-0.2,3-0.2,4.5,0c1,0.1,1.1,1.1,1.3,2.1c1.4-1.4,2.9-2.6,5-2.6
				c2.1,0,3.7,0.8,4.5,3.1c0.4-0.5,0.7-0.8,1-1.1c1.7-1.8,3.7-2.3,6.1-1.8c1.7,0.4,2.7,1.6,3.1,3.2c0.2,0.9,0.3,1.9,0.3,2.9
				c0,2.2,0,4.4,0,6.6c0.8,0.2,1.7,0.2,2.1,0.7c0.4,0.4,0.2,1.3,0.2,2c-0.4,0.1-0.7,0.1-0.9,0.1c-1.5,0-3,0-4.6,0
				c-0.1-0.7-0.2-1.3-0.2-1.9c0-2.8,0-5.5-0.1-8.3c-0.1-2.3-1.8-3.3-3.9-2.3c-1.3,0.6-1.9,1.7-2.3,3
				C3348.8,39.8,3348.8,43.8,3349.2,45.3z"/>
			<path fill="#FFFFFF" d="M3259.7,35.2c0-0.9,0-1.6,0-2.4c0.8,0,1.6-0.1,2.3-0.1c1,0,2.1,0,3.1,0c1.4,0,1.5,0.1,1.5,1.5
				c0,0.3-0.1,0.6-0.1,0.9c-0.6,0.1-1.1,0.1-1.8,0.2c0.8,2.9,1.6,5.7,2.5,8.9c1-3.3,1.9-6.3,2.8-9.3c0.1-0.2,0.1-0.4,0.2-0.6
				c0.5-1.6,1.1-2,2.8-1.7c0.7,0.1,0.8,0.7,0.9,1.2c0.9,2.8,1.7,5.7,2.5,8.5c0.2,0.5,0.3,1,0.6,1.9c0.9-3.1,1.7-5.9,2.5-8.8
				c-0.6-0.1-1.2-0.2-1.8-0.3c0-0.7,0-1.4,0-2.3c0.8,0,1.5-0.1,2.3-0.1c1,0,2.1,0,3.1,0c1.4,0,1.5,0.1,1.5,1.5
				c0,0.3-0.1,0.6-0.1,0.9c-0.6,0.1-1.1,0.2-1.8,0.3c-0.5,1.7-1.1,3.5-1.6,5.2c-0.6,2.1-1.3,4.2-1.9,6.4c-0.2,0.9-0.6,1.3-1.6,1.3
				c-2.3,0-2.3,0-2.9-2.2c-0.6-2-1.2-4-1.8-5.9c-0.2-0.7-0.5-1.5-0.9-2.5c-1,3.1-1.9,5.9-2.8,8.8c-0.2,0.6-0.4,1.5-0.8,1.6
				c-0.9,0.3-1.9,0.2-2.8,0c-0.3,0-0.6-0.7-0.7-1.2c-1-3.2-2-6.5-2.9-9.7c0,0,0-0.1,0-0.1C3261.8,35.9,3261.4,34.9,3259.7,35.2z"/>
			<path fill="#FFFFFF" d="M3252.4,47.9c0-0.9,0-1.6,0-2.4c0.7-0.1,1.2-0.2,2-0.3c-0.5-1.3-0.8-2.6-1.3-3.9c-0.1-0.2-0.6-0.5-1-0.5
				c-1.8,0-3.6,0-5.5,0c-0.3,0-0.8,0.2-0.9,0.5c-0.5,1.2-0.9,2.5-1.3,3.8c0.7,0.1,1.3,0.2,2,0.3c0,0.7,0.1,1.4,0.1,2.1
				c-1.1,0.4-5.6,0.5-7.5,0.2c0-0.7,0-1.5,0-2.3c0.6-0.1,1.2-0.1,1.9-0.2c0.9-2.5,1.8-5.1,2.7-7.6c1.2-3.2,2.3-6.5,3.5-9.7
				c0.3-1,0.8-1.3,1.8-1.3c2.8,0.1,2.2-0.3,3.1,2.2c1.8,4.9,3.5,9.7,5.2,14.6c0.2,0.6,0.4,1.2,0.7,1.8c0.6,0.1,1.2,0.1,1.9,0.2
				c0,0.8,0,1.5,0,2.4C3257.4,47.9,3255,47.9,3252.4,47.9z M3252.1,38.2c-0.9-2.5-1.7-4.9-2.5-7.3c-0.1,0-0.2,0-0.3,0.1
				c-0.8,2.3-1.7,4.7-2.5,7.2C3248.6,38.2,3250.2,38.2,3252.1,38.2z"/>
			<path fill="#FFFFFF" d="M3205.4,35.4c-2.6-0.4-2.6-0.4-2.1-2.7c1.3,0,2.7-0.1,4,0.1c0.4,0,0.9,0.7,1.2,1.1
				c0.2,0.2,0.2,0.6,0.3,1.1c0.4-0.4,0.7-0.6,0.9-0.8c1.8-1.9,4.1-2.1,6.4-1.6c1.7,0.4,2.7,1.6,3,3.3c0.2,1.1,0.3,2.2,0.3,3.4
				c0,2,0,4,0,6c2.5,0.6,2.5,0.6,2.2,2.7c-1.7,0-3.5,0-5.4,0c-0.1-0.5-0.2-1.1-0.2-1.6c0-2.8,0-5.5-0.1-8.3c0-2.1-1.3-3-3.3-2.5
				c-2,0.5-3.6,2.1-3.8,4.2c-0.2,1.8,0,3.7,0,5.5c0.8,0.3,1.7,0.4,2.1,0.9c0.3,0.3,0.1,1.2,0.1,1.9c-2.6,0-5.1,0-7.6,0
				c-0.8-1.8-0.5-2.3,1.8-2.6C3205.4,42,3205.4,38.8,3205.4,35.4z"/>
			<path fill="#FFFFFF" d="M3180.5,29.7c-1.9,0-3.7,0-5.7,0c-0.1,2.1-0.1,4.2,0,6.5c2.4,0,4.6,0,6.8,0c0.2,0.3,0.3,0.4,0.3,0.5
				c0.3,2.3,0.2,2.4-2,2.4c-1.6,0-3.2,0-5,0c0,2.2,0,4.2,0,6.3c0.9,0.1,1.7,0.1,2.6,0.2c0,0.8,0,1.5,0,2.4c-2.8,0-5.6,0-8.6,0
				c0-0.7-0.1-1.5-0.1-2.4c0.9-0.1,1.7-0.1,2.5-0.2c0-5.3,0-10.5,0-15.9c-0.8-0.1-1.5-0.1-2.4-0.2c0-0.8,0-1.5,0-2.4
				c4.9,0,9.7,0,14.6,0c0.3,1.5,0.2,3,0.1,4.5c0,0.2-0.4,0.6-0.7,0.6c-0.7,0.1-1.3,0-2.1,0C3180.7,31.1,3180.6,30.5,3180.5,29.7z"/>
			<path fill="#FFFFFF" d="M3193.3,32.4c4.7,0,8.3,3.4,8.2,8c0,5.2-4.6,8-8.3,8c-3.8,0-8.3-3.2-8.2-8.3
				C3185,36.2,3188.6,32.1,3193.3,32.4z M3198.1,40.2c0-3.1-1.9-5-5-5c-2.8,0-5,2.3-4.9,5.2c0.1,2.8,2,5.2,5,5
				C3196.2,45.3,3198.1,43.3,3198.1,40.2z"/>
			<path fill="#FFFFFF" d="M3323.3,48.3c-4,0.3-7.3-2.8-8-5.6c-1.6-6.5,3.3-10.4,7.6-10.4c3.4,0,6,1.2,7.6,4.1
				C3333.8,42.5,3328.8,48.7,3323.3,48.3z M3328.2,40.4c0-3.1-1.9-5.1-4.9-5.1c-2.9,0-5.1,2.2-5,5.1c0,2.8,2.1,5.2,4.9,5.2
				C3325.6,45.5,3328.4,43.4,3328.2,40.4z"/>
			<path fill="#FFFFFF" d="M3365.6,40.9c-0.1,1.8,0.7,3,2,3.8c2.5,1.5,4.9,0.7,7.3-0.8c0.4,0.7,0.9,1.4,1.3,2.2
				c-1.1,1.3-2.5,1.8-3.9,2.1c-3.6,0.8-6.7-0.2-8.8-3c-2.6-3.6-1.9-10.8,3.9-12.4c5.2-1.4,8.7,1.2,9.1,6.5c0.1,1.2-0.3,1.6-1.5,1.6
				c-2.6,0-5.1,0-7.7,0C3366.8,40.8,3366.3,40.9,3365.6,40.9z M3365.7,38.5c2.5,0,4.9,0,7.3,0c-0.2-2.2-1.2-3.3-3-3.5
				C3368.3,34.8,3365.9,36.2,3365.7,38.5z"/>
			<path fill="#FFFFFF" d="M3288.9,40.8c-0.1,2,0.8,3.3,2.2,4c2.4,1.3,4.8,0.6,7.1-0.9c0.5,0.7,0.9,1.4,1.3,2.1
				c-1,1.4-2.5,1.8-4,2.1c-3.6,0.8-6.9-0.2-8.9-3.4c-2.7-4.1-0.9-10.9,4.3-12.1c5.2-1.2,8.5,1.4,8.9,6.6c0.1,1.2-0.3,1.5-1.6,1.6
				c-2.5,0-5,0-7.5,0C3290.2,40.8,3289.6,40.8,3288.9,40.8z M3296.4,38.5c-0.4-2.4-1.4-3.4-3.2-3.5c-2-0.1-3.6,1.2-4.1,3.5
				C3291.4,38.5,3293.9,38.5,3296.4,38.5z"/>
			<path fill="#FFFFFF" d="M3301.7,42.9c0.5,0,1-0.1,1.5-0.1c0.7,0,1.1,0.2,1.1,1c0,0.8,0.5,1.2,1.2,1.5c1.2,0.5,2.4,0.5,3.6,0.1
				c0.7-0.3,1.2-0.7,1.3-1.5c0.1-0.8-0.4-1.2-1-1.5c-0.9-0.4-1.9-0.8-2.9-1.2c-1-0.4-2-0.9-2.9-1.5c-2.2-1.4-2.1-5.3,0.4-6.5
				c2.5-1.2,5-1.2,7.5,0c1.3,0.6,1.9,2.3,1.5,3.7c-0.1,0.2-0.3,0.6-0.5,0.6c-0.5,0.1-1.1,0.1-1.6,0c-0.8-0.1-0.6-0.7-0.7-1.2
				c-0.1-0.3-0.4-0.7-0.7-0.9c-1-0.5-2.1-0.6-3.1-0.1c-1.3,0.6-1.5,1.8-0.3,2.6c0.6,0.4,1.3,0.7,2,1c1.2,0.5,2.5,1,3.7,1.6
				c2.7,1.4,2.4,5.4,0.1,6.8c-2.4,1.5-6.9,1.5-9.1-0.2C3301.5,46.1,3301.2,45,3301.7,42.9z"/>
			<path fill="#FFFFFF" d="M3224.7,28.6c1.2,0,2.1,0,3.2,0c0,1.3,0,2.6,0,4c1.3,0.1,2.4,0.1,3.6,0.2c0,0.8,0,1.6,0,2.5
				c-1.2,0-2.3,0-3.5,0c0,1.6,0,3.1,0,4.5c0,1.2,0.1,2.5,0.3,3.7c0.2,1.1,1,1.6,2.1,1.8c1.5,0.2,1.7,0.4,1.6,1.9
				c0,0.2-0.1,0.5-0.2,0.7c-4,0.9-6.9-1.3-7-5.4c0-2.3,0-4.6,0-7c-0.4-0.1-0.7-0.1-1.1-0.2c-1.4-0.1-1.6-0.3-1.5-1.7
				c0-0.2,0.1-0.5,0.2-0.8c0.7-0.1,1.4-0.1,2.4-0.2C3224.7,31.3,3224.7,30.1,3224.7,28.6z"/>
		</g>
	</g>
	<rect x="2841" y="97.5" fill="none" width="241.9" height="129.9"/>
	<text transform="matrix(1 0 0 1 2841.0435 108.1083)"><tspan x="0" y="0" fill="#FFFFFF" font-family="'MyriadPro-Regular'" font-size="15">lBacon ipsum dolor amet biltong alca</tspan><tspan x="232.6" y="0" fill="#FFFFFF" font-family="'MyriadPro-Regular'" font-size="15">-</tspan><tspan x="0" y="24" fill="#FFFFFF" font-family="'MyriadPro-Regular'" font-size="15">tra turducken flank sausage, salami </tspan></text>
	<rect x="3151.7" y="97.5" fill="none" width="241.9" height="129.9"/>
	<text transform="matrix(1 0 0 1 3151.6904 108.1083)"><tspan x="0" y="0" fill="#FFFFFF" font-family="'MyriadPro-Regular'" font-size="15">lBacon ipsum dolor amet biltong alca</tspan><tspan x="232.6" y="0" fill="#FFFFFF" font-family="'MyriadPro-Regular'" font-size="15">-</tspan><tspan x="0" y="24" fill="#FFFFFF" font-family="'MyriadPro-Regular'" font-size="15">tra turducken flank sausage, salami </tspan></text>
</g>
<rect x="2121.8" y="-345.3" fill="none" stroke="#000000" stroke-miterlimit="10" width="1328.9" height="841.5"/>
<rect x="-716.4" y="-2286.8" fill="#212C31" stroke="#FFFFFF" stroke-width="5" stroke-miterlimit="10" width="1623.2" height="1101.1"/>
<rect x="-716.4" y="-2286.8" fill="#FFFFFF" width="1623.2" height="74.5"/>
</svg>
