<?xml version="1.0" encoding="utf-8"?>
<!-- Generator: Adobe Illustrator 18.1.1, SVG Export Plug-In . SVG Version: 6.00 Build 0)  -->
<svg version="1.1" id="Layer_1" xmlns="http://www.w3.org/2000/svg" xmlns:xlink="http://www.w3.org/1999/xlink" x="0px" y="0px"
	 width="400px" height="114px" viewBox="0 0 400 114" enable-background="new 0 0 400 114" xml:space="preserve">
<g>
	
		<linearGradient id="SVGID_1_" gradientUnits="userSpaceOnUse" x1="-188.9373" y1="-2505.7927" x2="-224.0686" y2="-2506.0327" gradientTransform="matrix(-0.9771 -0.323 0.2901 -0.8773 550.0548 -2202.6917)">
		<stop  offset="0.2308" style="stop-color:#999875"/>
		<stop  offset="0.5553" style="stop-color:#9A9976"/>
		<stop  offset="0.6722" style="stop-color:#9E9C7B"/>
		<stop  offset="0.7556" style="stop-color:#A5A383"/>
		<stop  offset="0.823" style="stop-color:#B0AD90"/>
		<stop  offset="0.8806" style="stop-color:#BFBBA2"/>
		<stop  offset="0.9317" style="stop-color:#D2CEBA"/>
		<stop  offset="0.9769" style="stop-color:#EAE7D9"/>
		<stop  offset="1" style="stop-color:#FCFAF0"/>
	</linearGradient>
	<path fill="url(#SVGID_1_)" d="M27.4,111.1l-3-1c0,0,0.4-15.1-5.1-16.1C15.8,89.8,20-83.6,33,93.4c0,0-4.5,2.2-5.3,6
		C26.8,103.2,27.4,111.1,27.4,111.1z"/>
	
		<linearGradient id="SVGID_2_" gradientUnits="userSpaceOnUse" x1="-183.5267" y1="-2444.3071" x2="-234.0691" y2="-2531.8491" gradientTransform="matrix(-0.9771 -0.323 0.2901 -0.8773 550.0548 -2202.6917)">
		<stop  offset="0" style="stop-color:#49A547"/>
		<stop  offset="1" style="stop-color:#409143"/>
	</linearGradient>
	<path fill="url(#SVGID_2_)" d="M29.1,96.5c0,0,25.9-17.1,19.8-52.5C43,18.3,29.2,9.9,27.8,6.6c-1.6-2.3-3.3-6.3-3.3-6.3L25.6,72
		C25.6,72,23.3,93.9,29.1,96.5z"/>
	
		<linearGradient id="SVGID_3_" gradientUnits="userSpaceOnUse" x1="-178.8965" y1="-2507.2378" x2="-214.722" y2="-2483.1738" gradientTransform="matrix(-0.9771 -0.323 0.2901 -0.8773 550.0548 -2202.6917)">
		<stop  offset="0" style="stop-color:#42A347"/>
		<stop  offset="0.4095" style="stop-color:#50A84A"/>
		<stop  offset="1" style="stop-color:#69B654"/>
	</linearGradient>
	<path fill="url(#SVGID_3_)" d="M23,97.5c0,0-24.3-16.6-22.9-45.8C1.5,22.4,18.6,8.1,22,5.5c2.2-2.3,2.2-3.2,2.4-5.5
		c1.5,3.3,1.3,48.6,1.4,53.9C26.4,74.5,24.7,93.6,23,97.5z"/>
	<path fill="#C1BFBE" d="M300.1,43.1c1.4,0,6.7,0.2,9.1,0.2c4.6,0,7.8-0.2,16.4-0.2c7.2,0,13.3,1.9,17.6,5.7c5.2,4.5,8,10.8,8,18.5
		c0,10.9-5,17.2-10,20.8c-5,3.7-11.5,5.8-20.7,5.8c-4.9,0-13.3-0.2-20.4-0.2h-0.1c-0.3-0.6,0.6-3.2,1.2-3.2c1.9-0.2,2.4-0.3,3.3-0.7
		c1.5-0.6,1.8-1.4,2-4c0.2-5,0.2-11,0.2-17.8c0-4.8,0.1-14.3-0.1-17.3c-0.2-2.5-1.3-3.2-3.4-3.6c-1.1-0.2-2.5-0.5-4.6-0.7
		C298.5,45.8,299.7,43.6,300.1,43.1z M316.5,88.1c1.7,1.4,5.2,1.9,8.2,1.9c3.9,0,7.8-0.7,11.5-4.1c3.8-3.5,6.5-8.8,6.5-17.3
		c0-8.2-3.1-14.8-9.5-18.7c-3.6-2.3-8.3-3.2-13.6-3.2c-1.6,0-3.1,0.1-4,0.5c-0.2,0.2-0.7,0.8-0.7,1.1c-0.2,1.5-0.2,12.5-0.2,19.1
		c0,6.7,0,16.1,0.2,17.2C314.9,85.6,315.4,87.3,316.5,88.1z"/>
	<path fill="#C1BFBE" d="M358.1,43.1c0.7,0,2.9,0.2,8.5,0.2c5.2,0,9.5-0.2,14.6-0.2c6.3,0,15,2.3,15,11.6c0,4.6-3.3,8.3-7.5,10.1
		c-0.2,0.1-0.2,0.2,0,0.3c6.1,1.5,11.4,5.3,11.4,12.4c0,6.9-4.3,11.3-10.6,14.1c-3.8,1.7-8.6,2.3-13.4,2.3c-3.7,0-13.5-0.4-19-0.3
		c-0.6-0.2,0.5-2.8,1-3.2c1.3-0.1,2.3-0.2,3.7-0.6c2-0.5,2.2-1.1,2.4-4c0.2-2.5,0.2-11.5,0.2-17.9c0-8.7,0.1-14.6,0-17.5
		c-0.1-2.3-0.9-3-2.5-3.4c-1.2-0.2-3.3-0.5-4.9-0.7C356.5,45.9,357.7,43.5,358.1,43.1z M391.5,79.4c0-7.1-5.2-11.2-14.8-11.2
		c-0.4,0-3.4-0.1-4.2,0.1c-0.2,0.1-0.5,0.2-0.5,0.4c0,5.1-0.1,13.3,0.2,16.5c0.2,1.4,1.1,3.3,2.4,3.9c1.3,0.7,4.3,0.9,6.3,0.9
		C386.5,90,391.5,86.8,391.5,79.4z M372.9,47.1c-0.3,0.1-0.7,0.9-0.7,1.3c-0.1,2.9-0.2,10.5-0.2,15.8c0,0.2,0.2,0.4,0.4,0.4
		c1.1,0.1,3.7,0.2,5.9,0.2c3.1,0,4.9-0.4,5.9-0.9c2.6-1.3,3.8-4.1,3.8-7.2c0-7-4.9-9.7-12.2-9.7C375.4,46.9,374,46.9,372.9,47.1z"/>
	<path fill="#FFFFFF" d="M65.4,93.8c-0.1-0.2-0.3-0.9-0.3-1.6c0-0.6,0.1-1,0.2-1.1c1.5-0.2,2.3-0.4,3.1-0.6c1.4-0.4,2-1.1,2.1-3
		c0.2-4.4,0.3-12.5,0.2-18.3l0-0.2c0-0.6,0-1.5-0.8-2.1c-1.1-0.7-2.5-1.4-4.3-1.9c-0.7-0.2-1.1-0.6-1-1c0-0.4,0.5-0.9,1.3-1.1
		c2.4-0.2,8.6-1.7,11-2.8c0.1,0.2,0.4,0.6,0.3,1.2c0,0.3,0,0.5-0.1,0.8c-0.1,0.8-0.1,1.7-0.1,2.7c0,0.3,0.3,0.5,0.6,0.5
		c0.2,0,0.3-0.1,0.4-0.2c4.6-3.6,8.8-4.9,10.9-4.9c3.5,0,6.3,1.7,8.4,5.1c0.1,0.2,0.3,0.3,0.5,0.3c0.2,0,0.3-0.1,0.4-0.2
		c4.3-3.2,8.5-5.2,11.3-5.2c6.7,0,10.7,5,10.7,13.4c0,2.4,0,5.5,0,8.3c0,2.5,0,4.8,0,6.5c0,0.4,0.5,1.5,1.3,1.7c1,0.5,2.4,0.7,4.2,1
		l0.1,0c0.1,0.5-0.1,2.4-0.4,2.7c-0.4,0-1.1,0-1.8-0.1c-1.4-0.1-3.3-0.2-5.5-0.2c-4.5,0-6.8,0.1-9,0.2c-0.2-0.6-0.2-2.3,0-2.7
		c1.3-0.2,1.9-0.4,2.7-0.6c1.4-0.5,1.8-1.1,1.9-3c0-1.3,0.3-13.1-0.2-15.9c-0.4-2.9-2.6-6.3-7.4-6.3c-1.8,0-4.6,0.7-7.4,2.8
		c-0.2,0.2-0.3,0.5-0.3,0.7l0,0.1c0.3,1.5,0.3,3.3,0.3,5.9c0,1.5,0,3.1,0,4.7c0,3.2,0,6.3,0,8.6c0,1.6,1,2,1.7,2.3
		c0.4,0.1,0.7,0.2,1.1,0.3c0.6,0.2,1.3,0.3,2.3,0.5c0.1,0.3,0.1,1.2,0,2c-0.1,0.4-0.2,0.6-0.3,0.7c-2.5-0.1-5-0.2-8.7-0.2
		c-1.1,0-2.9,0-4.5,0.1c-1.3,0-2.5,0.1-3.2,0.1c-0.1-0.2-0.2-0.7-0.2-1.4c0-0.7,0.1-1.2,0.3-1.3c0.3-0.1,0.7-0.1,1-0.2
		c0.9-0.2,1.6-0.3,2.3-0.5c1.2-0.4,1.7-1,1.8-2.6c0.2-3.6,0.4-14-0.1-16.5c-0.9-4.2-3.2-6.3-7.1-6.3c-2.2,0-5.1,1.1-7.4,2.8
		c-0.4,0.3-0.7,1-0.7,1.7c0,1.2,0,2.7,0,4.3c0,5.2,0,11.7,0.1,14.5c0.1,0.9,0.4,1.9,2,2.3c0.4,0.1,1,0.2,1.7,0.3
		c0.4,0.1,0.9,0.1,1.3,0.2c0.2,0.4,0.1,2.2-0.2,2.7c-0.7,0-1.6,0-2.6-0.1c-1.5-0.1-3.4-0.2-5.6-0.2c-2.6,0-4.3,0.1-5.8,0.2
		C67.1,93.8,66.3,93.8,65.4,93.8L65.4,93.8z"/>
	<path fill="#FFFFFF" d="M147.9,94.6c-12.3,0-16.7-9-16.7-17.4c0-5.9,2.4-10.5,7.2-13.7c3.4-2.1,7.4-3.3,11.1-3.3
		c9.4,0,15.9,6.7,15.9,16.4c0,6.6-2.6,11.7-7.6,15C155.5,93,151.3,94.6,147.9,94.6L147.9,94.6z M146.6,63.6c-1.5,0-2.9,0.4-3.9,1.1
		c-2.8,1.7-4.3,5.2-4.3,10.2c0,9.5,4.8,16.1,11.6,16.1c2,0,3.6-0.6,5-1.8c2.1-1.7,3.2-5.2,3.2-10.1
		C158.2,69.9,153.5,63.6,146.6,63.6L146.6,63.6z"/>
	<path fill="#FFFFFF" d="M275.2,94.6c-12.3,0-16.7-9-16.7-17.4c0-5.9,2.4-10.5,7.2-13.7c3.4-2.1,7.4-3.3,11.1-3.3
		c9.4,0,15.9,6.7,15.9,16.4c0,6.6-2.6,11.7-7.6,15C282.8,93,278.6,94.6,275.2,94.6L275.2,94.6z M273.9,63.6c-1.5,0-2.9,0.4-3.9,1.1
		c-2.8,1.7-4.3,5.2-4.3,10.2c0,9.5,4.8,16.1,11.6,16.1c2,0,3.6-0.6,5-1.8c2.1-1.7,3.2-5.2,3.2-10.1
		C285.5,69.9,280.8,63.6,273.9,63.6L273.9,63.6z"/>
	<path fill="#FFFFFF" d="M232.8,114c-4.4,0-7.6-0.9-10.3-3c-2.6-2-3.8-5.1-3.8-7.1c0-0.6,0.1-2.2,1.4-3.6c0.8-0.9,2.6-2.5,6.7-5.3
		c0.1,0,0.2-0.2,0.2-0.3c0-0.2-0.1-0.3-0.3-0.3c-3.4-1.3-4.4-3.4-4.7-4.6c0,0,0-0.1,0-0.2c-0.1-0.5-0.2-0.9,0.4-1.3
		c0.5-0.3,1.2-0.8,2-1.3c1.2-0.7,2.5-1.5,3.3-2.1c0.1-0.1,0.2-0.3,0.1-0.5c0-0.2-0.1-0.3-0.3-0.4c-5-1.7-7.5-5.4-7.5-11.1
		c0-3.7,1.7-7,4.6-9.1c2-1.6,7.1-3.5,10.4-3.5l0.2,0c3.4,0.1,5.3,0.8,7.9,1.8c1.4,0.5,2.8,0.7,4.7,0.7c2.8,0,4-0.9,5.1-1.9
		c0.1,0.1,0.2,0.5,0.3,1.4c0.1,0.9-0.2,2.3-0.9,3.3c-0.6,0.8-1.9,1.4-3.1,1.4c-0.1,0-0.2,0-0.4,0c-1.3-0.1-1.9-0.3-1.9-0.3l-0.3,0.1
		c-0.1,0.1,0,0.3,0,0.5c0,0,0,0.1,0,0.1c0.2,0.7,0.5,2.6,0.5,3.1c0,5.9-2.3,8.5-4.9,10.5c-2.4,1.8-5.3,2.9-8.4,3.3h0
		c-0.1,0-0.4,0-1,0.1c-0.4,0-0.9,0.1-1,0.1l-0.1,0c-0.6,0.2-2,0.8-2,2.1c0,1.1,0.7,2.4,3.8,2.6c0.6,0,1.3,0.1,2,0.1
		c4.1,0.3,9.2,0.6,11.6,1.5c3.3,1.2,5.4,4.2,5.4,7.8c0,5.3-3.8,10.4-10.2,13.4C239.3,113.3,236.2,114,232.8,114L232.8,114z
		 M232.3,95.2c-1.4,0-2.5,0.4-3.1,0.8c-3,1.9-4.4,3.8-4.4,6c0,2.1,0.8,3.7,2.5,5.2c2.1,1.8,4.9,2.6,8.7,2.6c7.3,0,10.6-3.9,10.6-7.9
		c0-2.7-1.4-4.5-4.2-5.6C240.3,95.7,236.7,95.2,232.3,95.2L232.3,95.2z M232.8,63.3c-3.8,0-6.2,3-6.2,7.6c0,4.7,2.1,10.1,8,10.1
		c1,0,2.9-0.5,3.8-1.5c1.4-1.3,2.3-3.9,2.3-6.6C240.6,66.9,237.7,63.3,232.8,63.3L232.8,63.3z"/>
	<path fill="#FFFFFF" d="M212.8,90.9c-1.8-0.2-3.1-0.5-4.7-1.2c-0.2-0.2-0.6-0.9-0.6-1.1c-0.2-2.5-0.2-9.8-0.2-14.5
		c0-3.9-0.7-7.3-2.3-9.7c-2-2.7-4.7-4.4-8.3-4.4c-3.2,0-7.4,2.2-11,5.2c-0.1,0.1-0.6,0.6-0.6-0.2c0-0.8,0.1-2.4,0.2-3.4
		c0.1-1-0.5-1.5-0.5-1.5c-2.3,1.1-8.9,2.7-11.2,2.9c-1.7,0.3-2.3,2-0.4,2.6v0c0,0,0.1,0,0.1,0c1.9,0.6,3.3,1.2,4.3,1.8
		c0.7,0.6,0.7,1.4,0.7,2c0.1,5.4,0.1,13.7-0.1,18.3c-0.1,1.8-0.6,2.4-1.9,2.7l0.1,0c-1,0.2-1.8,0.4-3,0.6c-0.4,0.4-0.4,2.7,0,3.2
		c0.8,0,5-0.2,8.4-0.2c4.7,0,7.2,0.2,8.4,0.2c0.5-0.6,0.7-2.7,0.3-3.2c-1.4-0.1-2.4-0.2-3.4-0.5c-1.3-0.3-1.6-1-1.7-2.4
		c-0.2-3.8-0.2-11.9-0.2-17.4c0-1.5,0.4-2.3,0.9-2.7c1.6-1.5,4.3-2.4,6.7-2.4c2.3,0,3.8,0.7,5,1.7c1.6,1.3,2.1,3.2,2.3,4.5
		c0.3,3.1,0.2,9.2,0.2,14.5c0,2.9-0.2,3.6-1.3,4c-0.5,0.2-1.8,0.5-3.4,0.6c-0.5,0.5-0.3,2.7,0,3.2c2.1,0,4.6-0.2,8.2-0.2
		c4.5,0,7.4,0.2,8.5,0.2C213,93.5,213.1,91.4,212.8,90.9z"/>
</g>
</svg>
