<?xml version="1.0" encoding="utf-8"?>
<!-- Generator: Adobe Illustrator 18.1.1, SVG Export Plug-In . SVG Version: 6.00 Build 0)  -->
<svg version="1.1" id="Layer_1" xmlns="http://www.w3.org/2000/svg" xmlns:xlink="http://www.w3.org/1999/xlink" x="0px" y="0px"
	 width="500px" height="135px" viewBox="0 0 500 135" enable-background="new 0 0 500 135" xml:space="preserve">
<g>
	<path fill-rule="evenodd" clip-rule="evenodd" fill="#FFFFFF" d="M75.2,71.8c0-1.5-0.8-2.8-2-3.5L39.6,48.9
		c-0.6-0.3-1.2-0.5-1.8-0.5c-0.1,0-0.3,0-0.3,0c-0.6,0-1.3,0.2-1.9,0.5L2,68.2c-1.3,0.7-2,2.1-2,3.5l0.1,52c0,0.7,0.4,1.4,1,1.8
		c0.6,0.4,1.4,0.4,2,0L23,114.1c1.3-0.7,2-2.1,2-3.5V86.3c0-1.4,0.8-2.8,2-3.5l8.5-4.9c0.6-0.4,1.3-0.5,2-0.5c0.7,0,1.4,0.2,2,0.5
		l8.5,4.9c1.3,0.7,2,2.1,2,3.5v24.3c0,1.4,0.8,2.8,2,3.5l19.9,11.4c0.6,0.4,1.4,0.4,2,0c0.6-0.4,1-1,1-1.8L75.2,71.8z"/>
	<path fill-rule="evenodd" clip-rule="evenodd" fill="#FFFFFF" d="M254.5,0.3c-0.6-0.3-1.4-0.3-2,0c-0.6,0.4-1,1-1,1.7v51.5
		c0,0.5-0.3,1-0.7,1.2c-0.4,0.3-1,0.3-1.4,0l-8.4-4.8c-1.3-0.7-2.8-0.7-4.1,0l-33.6,19.4c-1.3,0.7-2,2.1-2,3.5v38.8
		c0,1.4,0.8,2.8,2,3.5l33.6,19.4c1.3,0.7,2.8,0.7,4.1,0l33.6-19.4c1.3-0.7,2-2.1,2-3.5V14.9c0-1.5-0.8-2.8-2.1-3.5L254.5,0.3z
		 M251.3,98.8c0,0.4-0.2,0.7-0.5,0.9l-11.5,6.6c-0.3,0.2-0.7,0.2-1,0l-11.5-6.6c-0.3-0.2-0.5-0.5-0.5-0.9V85.5
		c0-0.4,0.2-0.7,0.5-0.9l11.5-6.7c0.3-0.2,0.7-0.2,1,0l11.5,6.7c0.3,0.2,0.5,0.5,0.5,0.9V98.8z"/>
	<path fill-rule="evenodd" clip-rule="evenodd" fill="#FFFFFF" d="M374.6,85.2c1.2-0.7,2-2.1,2-3.5v-9.4c0-1.4-0.8-2.8-2-3.5
		l-33.4-19.4c-1.3-0.7-2.8-0.7-4.1,0l-33.6,19.4c-1.3,0.7-2,2.1-2,3.5V111c0,1.5,0.8,2.8,2,3.5l33.4,19c1.2,0.7,2.7,0.7,4,0
		l20.2-11.2c0.6-0.4,1-1,1-1.8c0-0.7-0.4-1.4-1-1.8l-33.8-19.4c-0.6-0.4-1-1-1-1.8V85.6c0-0.7,0.4-1.4,1-1.8l10.5-6.1
		c0.6-0.4,1.4-0.4,2,0l10.5,6.1c0.6,0.4,1,1,1,1.8v9.6c0,0.7,0.4,1.4,1,1.8c0.6,0.4,1.4,0.4,2,0L374.6,85.2z"/>
	<path fill-rule="evenodd" clip-rule="evenodd" fill="#80BE42" d="M136.3,49.2c1.3-0.7,2.8-0.7,4.1,0l33.6,19.4c1.3,0.7,2,2.1,2,3.5
		v38.8c0,1.4-0.8,2.8-2,3.5l-33.6,19.4c-1.3,0.7-2.8,0.7-4.1,0l-33.6-19.4c-1.3-0.7-2-2.1-2-3.5V72.1c0-1.4,0.8-2.8,2-3.5
		L136.3,49.2z"/>
	<path fill="#80BE42" d="M439.8,134.3c-1.2,0-2.3-0.3-3.3-0.9l-10.6-6.3c-1.6-0.9-0.8-1.2-0.3-1.4c2.1-0.7,2.5-0.9,4.8-2.2
		c0.2-0.1,0.5-0.1,0.8,0.1l8.1,4.8c0.3,0.2,0.7,0.2,1,0l31.7-18.3c0.3-0.2,0.5-0.5,0.5-0.9V72.8c0-0.4-0.2-0.7-0.5-0.9l-31.6-18.3
		c-0.3-0.2-0.7-0.2-1,0L407.7,72c-0.3,0.2-0.5,0.5-0.5,0.9v36.5c0,0.3,0.2,0.7,0.5,0.8l8.7,5c4.7,2.4,7.6-0.4,7.6-3.2V76
		c0-0.5,0.4-0.9,0.9-0.9h4c0.5,0,0.9,0.4,0.9,0.9V112c0,6.3-3.4,9.9-9.4,9.9c-1.8,0-3.3,0-7.3-2l-8.3-4.8c-2.1-1.2-3.3-3.4-3.3-5.8
		V72.8c0-2.4,1.3-4.6,3.3-5.8l31.7-18.3c2-1.1,4.7-1.1,6.7,0l31.7,18.3c2.1,1.2,3.3,3.4,3.3,5.8v36.5c0,2.4-1.3,4.6-3.3,5.8
		l-31.7,18.3C442.1,134,440.9,134.3,439.8,134.3z"/>
	<path fill="#80BE42" d="M449.6,109.1c-13.9,0-16.8-6.4-16.8-11.7c0-0.5,0.4-0.9,0.9-0.9h4.1c0.5,0,0.8,0.3,0.9,0.8
		c0.6,4.2,2.5,6.3,10.8,6.3c6.7,0,9.5-1.5,9.5-5c0-2-0.8-3.6-11.2-4.6c-8.7-0.9-14-2.8-14-9.7c0-6.4,5.4-10.2,14.4-10.2
		c10.1,0,15.2,3.5,15.8,11.1c0,0.3-0.1,0.5-0.2,0.7c-0.2,0.2-0.4,0.3-0.7,0.3h-4.1c-0.4,0-0.8-0.3-0.9-0.7c-1-4.4-3.4-5.8-9.9-5.8
		c-7.3,0-8.1,2.5-8.1,4.4c0,2.3,1,3,10.8,4.3c9.7,1.3,14.4,3.1,14.4,9.9C465.3,105.2,459.6,109.1,449.6,109.1z"/>
	<path fill-rule="evenodd" clip-rule="evenodd" fill="#80BE42" d="M338.7,83.4c0.2-0.1,0.5-0.1,0.8,0l6.4,3.7
		c0.2,0.1,0.4,0.4,0.4,0.7v7.4c0,0.3-0.1,0.5-0.4,0.7l-6.4,3.7c-0.2,0.1-0.5,0.1-0.8,0l-6.4-3.7c-0.2-0.1-0.4-0.4-0.4-0.7v-7.4
		c0-0.3,0.1-0.5,0.4-0.7L338.7,83.4z"/>
	<g>
		<path fill="#80BE42" d="M500,58.7c0,3.4-2.7,6.1-6.1,6.1c-3.3,0-6.1-2.7-6.1-6.1c0-3.5,2.8-6.1,6.1-6.1
			C497.2,52.6,500,55.2,500,58.7z M488.8,58.7c0,2.8,2.3,5.1,5.1,5.1c2.8,0,5.1-2.3,5.1-5.1c0-2.8-2.3-5.1-5.1-5.1
			C491.1,53.6,488.8,55.8,488.8,58.7z M491.6,55.2h2.4c0.8,0,2.4,0,2.4,1.8c0,1.3-0.8,1.5-1.3,1.7c0.9,0.1,1,0.7,1.1,1.5
			c0.1,0.5,0.2,1.5,0.4,1.8h-1.5c0-0.3-0.3-2.1-0.3-2.2c-0.1-0.4-0.2-0.6-0.7-0.6h-1.2v2.7h-1.3V55.2z M492.9,58.3h1.1
			c0.9,0,1-0.6,1-1c0-0.9-0.6-0.9-1-0.9h-1.1V58.3z"/>
	</g>
</g>
</svg>
