<?xml version="1.0" encoding="utf-8"?>
<!-- Generator: Adobe Illustrator 18.1.1, SVG Export Plug-In . SVG Version: 6.00 Build 0)  -->
<svg version="1.1" id="Layer_1" xmlns="http://www.w3.org/2000/svg" xmlns:xlink="http://www.w3.org/1999/xlink" x="0px" y="0px"
	 width="320px" height="175px" viewBox="0 0 320 175" enable-background="new 0 0 320 175" xml:space="preserve">
<g>
	<path fill="#FFFFFF" d="M212.8,71.3c-4.6,8.6-7.7,17.3-7.7,27c0,1.4,0.9,2.8,1.3,4c3.3,0.2,4.3-2.8,7-4.3c-0.6,3.2-2.4,4.7-4,6.1
		c-1.2,1.1-2.7,1.8-4.2,2.3c-3.7,1.3-6.7-0.7-7.3-4.8c-0.3-2.1,0-4.3,0.1-6.4c0.1-1.5,0.4-3.1,0-4.8c-1.5,2.1-2.8,4.4-4.4,6.3
		c-2.3,2.7-4.9,5.2-7.4,7.7c-0.7,0.7-1.5,1.1-2.4,1.5c-5.2,2.6-9.5-0.6-8.9-6.7c0.6-6,2-11.7,4.5-17.2c0.5-1.1,1-2.2,1.8-4.1
		c-1.8,1.1-2.9,1.8-4.7,2.9c0.3-1.1,0.2-1.7,0.5-2c3.6-3.7,7.8-6.3,12.3-8.3c0.7-0.3,1.7,0,3,0c-1,1.7-1.7,3-2.5,4.3
		c-3.4,5.8-5.9,12.1-6.9,19c-0.2,1.3-0.3,2.6-0.2,3.8c0.3,3.5,2.2,4.6,4.8,2.4c2-1.6,3.9-3.5,5.3-5.7c3.9-6.3,7.5-12.7,11.1-19.2
		C205.8,71.4,208.7,69.9,212.8,71.3z"/>
	<path fill="#80BE42" d="M89.5,160.5c2.3,5,4.4,6.1,8.4,5.3c4.6-0.9,8.2-3.6,11.7-6.8c6.4-6.1,11.2-13.6,15.4-21.6
		c7.6-14.7,12.7-30.3,15.5-46.8c0.6-3.6,0.7-7.3,1-11c0.1-1.1-0.1-2.3-0.5-3.3c-0.6-1.7-2.1-2.3-3.5-1.2c-1.8,1.4-3.3,3.1-5.1,4.8
		c-0.1-0.3-0.4-0.8-0.3-1c2.5-4.1,5.5-7.7,10.1-9.1c3.9-1.3,6.5,0.6,6.3,4.9c-0.3,4.8-0.8,9.7-1.9,14.3c-6,23.6-16,45.2-29.3,64.9
		c-4.3,6.3-9.1,12.3-15.4,16.5c-2.1,1.4-4.5,2.5-6.9,3.1c-4.5,1.2-7.9-2.3-7-7.2C88.2,164.5,88.8,163,89.5,160.5z"/>
	<path fill="#80BE42" d="M211.8,13.5c-3.4-5.2-7.1-6.2-12.8-3.2c-5.3,2.8-9.6,7-13.3,12c-12.1,16.3-19.4,35.1-23.7,55.4
		c-1.1,5.4-1.6,10.9-2.3,16.4c-0.1,0.6-0.1,1.1,0,1.7c0.2,1.7,0.4,3.6,2.2,4.2c1.6,0.6,2.8-0.6,3.8-1.7c1.1-1.1,2.1-2.2,3.4-3
		c-2,4.7-5.4,7.9-9.8,9.6c-4.1,1.6-7-0.7-6.6-5.4c0.4-5.5,1.2-11.1,2.7-16.3c6.5-23.3,16.4-44.7,30.1-64.1
		c3.9-5.5,8.2-10.9,13.8-14.5c2.3-1.5,5-2.6,7.6-3.2c4-1,7,2.3,6.5,6.7C213.2,9.8,212.4,11.5,211.8,13.5z"/>
	<path fill="#FFFFFF" d="M128.3,53.2c-3,6.3-5.5,11.8-8.2,17.5c3.5,1,6.8-0.5,10.2,1.3c-3.7,2.6-7.6,0.6-11.3,2.1
		c-2.3,5.6-4.1,11.6-5.3,17.9c-0.2,1.3-0.5,2.5-0.6,3.8c-0.2,2.2-0.3,4.5,1.7,5.7c2.1,1.3,4.1,0,5.7-1.6c1.3-1.2,2.6-2.4,3.9-3.6
		c0,0.1,0.4,0.5,0.2,0.7c-2,4-4.8,7.2-8.7,8.9c-6.4,2.8-11.1-1-10-8.3c0.7-5.2,2.3-10.2,3.6-15.3c0.6-2.5,1.5-4.8,2.4-7.8
		c-2.1,0.2-3.9,0.4-6.1,0.6c1.2-2.5,3-3.3,5-3.4c1.9-0.1,2.7-1.1,3.5-2.8c1.5-3.3,3.3-6.5,4.7-9.8C120.7,55.2,123.9,53.9,128.3,53.2
		z"/>
	<path fill="#FFFFFF" d="M78.5,94.6c-0.3,0.6-0.6,1.2-0.8,1.8c-1.2,3.6-0.1,6.8,2.7,7.8c3.7,1.4,7.9-0.6,8.7-4.3
		c0.5-2.5,0.5-5.1-0.9-7.4c-1.1-1.9-2.2-3.9-3.2-5.9c-0.6-1.2-1.4-2.5-1.8-3.8c-1.7-4.9,0.1-9.2,4.6-11.1c3.1-1.3,6.4-1.7,9.7-0.7
		c2.6,0.8,3.4,1.9,2.8,4.6c-0.4,1.7-0.5,3.6-2.7,5c-0.1-1.5-0.2-2.7-0.3-3.9c-0.1-1.6-0.3-3.2-1.9-3.8c-1.7-0.7-3.9,0-5,1.6
		c-1.5,2-1.5,4.3-0.4,6.4c1.2,2.4,2.8,4.5,3.9,6.9c1.1,2.4,2.3,4.9,2.6,7.5c0.5,4.6-1.6,8.1-5.5,9.8c-4.4,2-8.9,2.5-13.5,0.9
		c-4.2-1.5-5.1-4-2.7-8.1c0.9-1.5,2.1-2.7,3.1-4.1C77.9,94.1,78.2,94.4,78.5,94.6z"/>
	<path fill="#FFFFFF" d="M237.8,80.9c0-2.3,0.2-3.7,0-5c-0.2-1.6-0.9-3-2.7-3.3c-1.7-0.2-3.2,0.1-4.3,1.6c-1.5,2.1-1.7,4.5-0.5,6.8
		c1.3,2.6,2.8,5.1,4.4,7.6c1.6,2.5,2.1,5.1,2,8.1c-0.1,3.7-1.7,6.3-4.7,7.8c-4.7,2.5-9.6,3.1-14.6,1.3c-4-1.4-4.8-3.8-2.6-7.8
		c0.9-1.6,1.7-3.5,4.2-4.1c-0.3,0.9-0.4,1.4-0.6,1.9c-1.7,3.9-0.9,7,2,8.3c3.3,1.5,7.4-0.1,8.9-3.4c1.2-2.7,0.5-5.3-0.6-7.8
		c-0.8-1.8-1.8-3.5-2.7-5.2c-0.5-0.9-1-1.7-1.4-2.6c-3.6-7.3-1.1-12.9,6.4-14.4c2.4-0.5,4.7-0.5,7,0.2c2.2,0.7,2.9,1.6,2.5,4
		C240.4,77,240,78.9,237.8,80.9z"/>
</g>
</svg>
