<?xml version="1.0" encoding="utf-8"?>
<!-- Generator: Adobe Illustrator 18.1.1, SVG Export Plug-In . SVG Version: 6.00 Build 0)  -->
<svg version="1.1" id="Layer_1" xmlns="http://www.w3.org/2000/svg" xmlns:xlink="http://www.w3.org/1999/xlink" x="0px" y="0px"
	 width="320px" height="100.4px" viewBox="0 0 320 100.4" enable-background="new 0 0 320 100.4" xml:space="preserve">
<g>
	<g id="_x36_JPTJa.tif_1_">
		<g>
			<path fill="#FFFFFF" d="M39.7,44.5c0,8.8,0,17.4,0,25.9c0,0.2-0.1,0.4-0.2,0.6c-0.6,0-1.2,0-1.9,0c0-10.1,0-20.2,0-30.2
				c1.9-0.6,2.1-0.6,3.2,1c5.2,7.8,10.4,15.7,15.7,23.5c0.3,0.5,0.7,1,1.3,1.8c0-9,0-17.7,0-26.6c0.7,0,1.3-0.1,1.9-0.1
				c0.5,1.5,0.7,27.2,0.3,30.4c-2.1,0.6-2.1,0.6-3.3-1.2C51.4,61.8,46.2,54,40.9,46.1C40.6,45.6,40.2,45.1,39.7,44.5z"/>
			<path fill="#FFFFFF" d="M68.6,71.1c0-10.3,0-20.4,0-30.3c0.2-0.1,0.3-0.3,0.4-0.3c3.9,0.1,7.9-0.2,11.8,0.2
				c5.8,0.7,9.4,4.3,10.6,10.1c0.8,4.1,0.7,8.1-0.8,12c-1.3,3.5-3.8,5.9-7.3,7c-2,0.6-4.2,1-6.3,1.1C74.3,71.3,71.5,71.1,68.6,71.1z
				 M70.9,69.1c3.2,0.1,6.4,0.2,9.4-0.5c4.9-1.1,7.8-4.1,8.7-9c0.5-2.8,0.5-5.5-0.1-8.3c-0.8-3.4-2.6-6-5.9-7.5
				c-3.9-1.7-8-1.2-12.1-1.2C70.9,51.5,70.9,60.1,70.9,69.1z"/>
			<path fill="#FFFFFF" d="M194.2,55.7c-0.2-2.7,0.2-5.3,1.2-7.8c2.2-5.1,6.1-7.8,11.6-7.9c1.7,0,3.4,0.1,5,0.5
				c4.1,1,6.8,3.8,8.2,7.6c1.8,4.9,1.9,9.9,0.1,14.9c-1.9,5.5-6.3,8.4-12.1,8.6c-8.3,0.3-13.3-5.2-14.1-13
				C194.1,57.6,194.2,56.6,194.2,55.7z M196.4,55.4c0.2,1.9,0.3,3.6,0.7,5.1c1.3,5.7,5.1,9,11.1,8.8c5.1-0.2,8.5-2.5,10-7.3
				c1.3-4.1,1.3-8.3,0-12.5c-0.5-1.4-1.3-2.9-2.3-4c-2.1-2.6-5.1-3.3-8.4-3.2c-5.1,0.1-8.7,2.7-10.1,7.5
				C196.9,51.6,196.7,53.7,196.4,55.4z"/>
			<path fill="#FFFFFF" d="M122.9,57.8c0,4.5,0,8.8,0,13.2c-0.8,0-1.4,0.1-2.1,0.1c0-10.2,0-20.3,0-30.3c0.2-0.1,0.3-0.3,0.4-0.3
				c3.5,0,7,0.1,10.5,0.2c0.4,0,0.8,0.1,1.1,0.2c5.8,1.4,8.3,7.6,5.2,12.7c-1.1,1.9-3,2.8-5.2,3.7c2.7,4.6,5.3,9.1,8.1,13.7
				c-1,0-1.8,0-2.7,0c-0.5-0.9-1.1-1.9-1.7-2.9c-1.8-3-3.6-6-5.3-9.1c-0.6-1-1.2-1.4-2.3-1.3C127,57.9,125.1,57.8,122.9,57.8z
				 M123.1,42.6c0,4.6,0,8.9,0,13.2c2.3,0,4.4,0.1,6.6,0c1,0,2.1-0.3,3-0.6c2.8-0.9,4.3-3.4,4.1-6.3c-0.2-3.2-1.6-5-4.5-5.7
				C129.2,42.3,126.2,42.6,123.1,42.6z"/>
			<path fill="#FFFFFF" d="M247.4,70.9c-1.9,0.6-2.9,0-3.7-1.5c-2.1-3.9-4.4-7.6-6.7-11.5c-2.4,0-4.7,0-7.4,0c0,4.4,0,8.7,0,13.1
				c-0.9,0-1.5,0-2.2,0c0-10.2,0-20.3,0-30.6c4.3,0.1,8.5-0.5,12.7,0.7c3.2,0.9,5.2,2.9,5.6,6.2c0.5,4-0.9,7.2-3.9,8.9
				c-0.7,0.4-1.5,0.7-2.4,1.1C242,61.8,244.7,66.3,247.4,70.9z M229.7,55.8c2.9,0,5.6,0.2,8.4-0.3c0.4-0.1,0.8-0.2,1.1-0.3
				c2.8-1,4.2-3.3,4.1-6.4c-0.1-3.2-1.6-5.2-4.7-5.7c-2.4-0.4-4.9-0.4-7.3-0.5c-0.5,0-1,0.1-1.5,0.2
				C229.7,47.1,229.7,51.4,229.7,55.8z"/>
			<path fill="#FFFFFF" d="M6.4,40.5c0.8,0,1.4,0,2.2,0c0,0.8,0,1.5,0,2.2c0,5.3,0,10.5,0,15.8c0,0.5,0,1,0,1.6
				c0.2,7.5,6.7,11.6,13.6,8.5c3.2-1.4,4.6-4.1,4.7-7.5c0.1-5.9,0.1-11.8,0.1-17.7c0-0.9,0-1.8,0-2.9c0.8,0,1.5,0,2.4,0
				c0,0.7,0,1.3,0,2c0,5.6,0,11.2,0,16.7c0,1.2,0,2.3-0.2,3.5c-0.9,4.9-4,8-8.9,8.6c-1.7,0.2-3.5,0.2-5.2-0.1
				c-5.4-0.9-8.5-4.8-8.6-10.6c-0.1-6.4,0-12.8,0-19.3C6.3,41.2,6.4,41,6.4,40.5z"/>
			<path fill="#FFFFFF" d="M97.2,40.5c5.6,0,11,0,16.6,0c0.1,0.6,0.1,1.1,0.2,2c-4.8,0.1-9.5,0-14.2,0c-0.5,1.5-0.6,8.2-0.2,11.4
				c4.4,0,8.8,0,13.4,0c0,0.8,0,1.3,0,2.1c-4.5,0-8.8,0-13.2,0c-0.5,1.6-0.6,10.4-0.2,13.1c4.7,0,9.4,0,14.2,0
				c0,0.7,0.1,1.3,0.1,1.9c-5.6,0-11.1,0-16.7,0C97.2,60.9,97.2,50.8,97.2,40.5z"/>
			<path fill="#FFFFFF" d="M254.7,69.1c4.8,0,9.5,0,14.3,0c0,0.7,0,1.3,0,1.9c-5.6,0-11.1,0-16.7,0c0-10.2,0-20.3,0-30.5
				c5.6,0,11,0,16.5,0c0.1,0.2,0.2,0.4,0.2,0.6c0,0.4,0,0.8-0.1,1.4c-4.8,0-9.5,0-14.3,0c0,3.9,0,7.6,0,11.4c4.5,0,8.8,0,13.4,0
				c0.1,0.7,0.1,1.2,0.2,2c-4.6,0-9,0-13.6,0C254.7,60.4,254.7,64.7,254.7,69.1z"/>
			<path fill="#FFFFFF" d="M294.1,68.5c3.1,0.3,6,0.7,8.9,0.9c1.8,0.1,3.4-0.5,5-1.4c3-1.8,3.9-7,0.1-9.2c-1.4-0.8-3-1.4-4.6-2.1
				c-1.8-0.8-3.7-1.5-5.5-2.4c-4.7-2.4-5.1-9.8-0.1-12.7c1.2-0.7,2.5-1.1,3.8-1.4c3.6-0.6,7.1,0,10.5,1.5c-0.3,0.7-0.5,1.2-0.8,1.9
				c-1.3-0.4-2.4-0.9-3.6-1c-2-0.2-4-0.5-6-0.2c-3.8,0.5-5.8,3.7-4.8,7.2c0.4,1.5,1.5,2.5,2.8,3.1c1.6,0.8,3.4,1.4,5,2.1
				c1.7,0.8,3.5,1.5,5.1,2.4c4.5,2.7,3.9,9.5,0.5,12.1c-1.6,1.2-3.4,2-5.3,2.2c-3.1,0.3-6.2,0.3-9.3-0.5
				C294,70.5,294,70.4,294.1,68.5z"/>
			<path fill="#FFFFFF" d="M144.3,68.3c1.9,0.3,3.8,0.8,5.7,1c1.9,0.1,3.9,0.1,5.8-0.2c3.3-0.6,5.1-3.1,5-6.2
				c-0.1-2.1-1.2-3.4-2.9-4.3c-1.6-0.8-3.3-1.4-5-2.2c-1.5-0.7-3.1-1.3-4.6-2c-5-2.6-5.1-10.2,0.3-13c1-0.5,2.2-0.9,3.3-1.1
				c3.1-0.7,7.4,0,10.6,1.6c-0.2,0.5-0.4,1.1-0.7,1.9c-0.8-0.3-1.6-0.5-2.3-0.7c-2.4-0.8-4.8-1-7.3-0.6c-3.5,0.5-5.4,3-5,6.4
				c0.2,1.8,1.2,3,2.7,3.8c1.4,0.7,2.8,1.3,4.3,1.9c1.8,0.8,3.6,1.4,5.3,2.3c2.6,1.4,4,3.7,3.9,6.7c-0.1,3-1.4,5.4-4.1,6.8
				c-1.2,0.6-2.5,1.1-3.8,1.3c-3.2,0.3-6.5,0.3-9.7-0.6C143.9,70.3,143.9,70.3,144.3,68.3z"/>
			<path fill="#FFFFFF" d="M188.8,68.7c0.4,1.3,0.2,1.9-1,2.2c-3.2,0.7-6.4,0.9-9.7,0.4c-4.7-0.8-7.8-3.6-9.5-8
				c-1.7-4.7-1.8-9.6-0.1-14.3c2-5.6,6.3-8.4,12.1-8.9c3.3-0.3,7.3,0.4,9.3,1.8c-0.1,0.3-0.1,0.7-0.2,1c-0.1,0.3-0.3,0.5-0.4,0.6
				c-2.4-0.4-4.6-1-6.8-1.1c-6.9-0.4-11.3,3.9-12.3,10c-0.5,3.1-0.5,6.2,0.4,9.3c1.5,5,5.2,7.9,10.5,8c2,0,4-0.3,6-0.5
				C187.7,68.8,188.2,68.7,188.8,68.7z"/>
			<path fill="#FFFFFF" d="M285.4,40.5c0.9,0,1.5,0,2.2,0c0,0.6,0.1,1.2,0.1,1.8c0,9.4,0,18.8,0,28.2c0,1.1-0.1,2.2-0.3,3.3
				c-0.6,2.9-2.3,4.5-5.3,4.9c-1.1,0.2-2.3,0.1-3.5-0.1c-1.4-0.2-1.4-0.3-1.3-2.1c1.1,0,2.1,0,3.2,0c3,0,4.5-1.5,4.7-4.5
				c0.1-0.7,0-1.4,0-2.1c0-9,0-18.1,0-27.1C285.4,42.2,285.4,41.5,285.4,40.5z"/>
			<path fill="#FFFFFF" d="M278.5,69.3c0,1.4-0.5,2.1-1.6,2.2c-1.2,0.1-1.9-0.7-1.9-2.1c0-1.3,0.7-2.1,1.8-2.1
				C277.8,67.3,278.5,68,278.5,69.3z"/>
		</g>
	</g>
	<g>
		<rect x="5.6" y="83.7" fill="#0572B6" width="136.6" height="9.4"/>
		<rect x="142.2" y="83.7" fill="#002A41" width="172.1" height="9.4"/>
	</g>
</g>
</svg>
